<mxfile host="Electron" agent="Mozilla/5.0 (Windows NT 10.0; Win64; x64) AppleWebKit/537.36 (KHTML, like Gecko) draw.io/26.2.2 Chrome/134.0.6998.178 Electron/35.1.2 Safari/537.36" version="26.2.2">
  <diagram name="Page-1" id="kGzlTUpNQUmZDkRe_ut6">
    <mxGraphModel dx="2068" dy="434" grid="1" gridSize="10" guides="1" tooltips="1" connect="1" arrows="0" fold="1" page="0" pageScale="1" pageWidth="827" pageHeight="1169" background="none" math="0" shadow="0">
      <root>
        <mxCell id="0" />
        <mxCell id="1" parent="0" />
        <mxCell id="5Y0m7SEWrtOaW2OVviik-11" value="&lt;div style=&quot;font-size: 12px;&quot;&gt;&lt;b&gt;Reály svet&lt;/b&gt;&lt;/div&gt;" style="html=1;outlineConnect=0;whiteSpace=wrap;shape=mxgraph.archimate3.application;appType=grouping;archiType=square;dashed=1;fillColor=#D2D7D7;fontFamily=Helvetica;fontSize=11;labelBackgroundColor=none;verticalAlign=top;strokeColor=#000000;" parent="1" vertex="1">
          <mxGeometry x="40" y="1160" width="120" height="900" as="geometry" />
        </mxCell>
        <mxCell id="v1EW0JT8d4S7AqYUZW40-4" value="Právne predpisy" style="html=1;outlineConnect=0;whiteSpace=wrap;fillColor=#D2D7D7;shape=mxgraph.archimate3.application;appType=contract;archiType=square;verticalAlign=top;spacingTop=9;strokeColor=#000000;" vertex="1" parent="1">
          <mxGeometry x="60" y="1270" width="80" height="190" as="geometry" />
        </mxCell>
        <mxCell id="nRFMR0SAhJJAzwHKPwyQ-186" value="&lt;b style=&quot;font-size: 12px;&quot;&gt;Digitálny obraz&lt;/b&gt;&lt;div style=&quot;font-size: 12px;&quot;&gt;niektorých aspektov reálneho sveta&lt;/div&gt;&lt;div style=&quot;font-size: 12px;&quot;&gt;&lt;br&gt;&lt;/div&gt;&lt;div style=&quot;font-size: 12px;&quot;&gt;&lt;br&gt;&lt;/div&gt;" style="html=1;outlineConnect=0;whiteSpace=wrap;shape=mxgraph.archimate3.application;appType=grouping;archiType=square;dashed=1;fillColor=#D2D7D7;fontFamily=Helvetica;fontSize=11;labelBackgroundColor=none;verticalAlign=top;strokeColor=#000000;" parent="1" vertex="1">
          <mxGeometry x="200" y="1160" width="440" height="900" as="geometry" />
        </mxCell>
        <mxCell id="b4YsowTs5IO4OCW3UgzT-78" value="&lt;div style=&quot;font-size: 12px;&quot;&gt;&lt;b&gt;Oprávnenia&lt;/b&gt;&lt;/div&gt;&lt;div style=&quot;font-size: 12px;&quot;&gt;Osobitné zákony definujúce jednotlivé agendy, právne princípy, ústava&lt;span style=&quot;background-color: transparent; color: light-dark(rgb(0, 0, 0), rgb(255, 255, 255));&quot;&gt;.&lt;/span&gt;&lt;/div&gt;" style="html=1;outlineConnect=0;whiteSpace=wrap;shape=mxgraph.archimate3.application;appType=grouping;archiType=square;dashed=1;fillColor=#D2D7D7;fontFamily=Helvetica;fontSize=11;labelBackgroundColor=none;verticalAlign=top;strokeColor=#000000;" parent="1" vertex="1">
          <mxGeometry x="230" y="1520" width="380" height="260" as="geometry" />
        </mxCell>
        <mxCell id="b4YsowTs5IO4OCW3UgzT-76" value="&lt;div style=&quot;font-size: 12px;&quot;&gt;&lt;b&gt;Kompetencie - digitálne dvojča legislatívy&lt;/b&gt;&lt;/div&gt;&lt;div style=&quot;font-size: 12px;&quot;&gt;Zákon č. 575/2001 Z. z. o organizácii činnosti vlády a organizácii ústrednej štátnej správy, tzv. kompetenčný zákon, spolu s osobitnými zákonmi upravujúcimi jednotlivé agendy&lt;/div&gt;" style="html=1;outlineConnect=0;whiteSpace=wrap;shape=mxgraph.archimate3.application;appType=grouping;archiType=square;dashed=1;fillColor=#D2D7D7;fontFamily=Helvetica;fontSize=11;labelBackgroundColor=none;verticalAlign=top;strokeColor=#000000;" parent="1" vertex="1">
          <mxGeometry x="230" y="1220" width="380" height="270" as="geometry" />
        </mxCell>
        <mxCell id="Mj89tKXQSyuhwqXj9ipI-14" value="&lt;div&gt;&lt;b&gt;Riadenie eGovernmentu&lt;/b&gt;&lt;/div&gt;&lt;div&gt;95/2019 Z. z.&amp;nbsp;&lt;span style=&quot;text-align: justify;&quot;&gt;o informačných technológiách vo verejnej správe&lt;/span&gt;&lt;/div&gt;" style="html=1;outlineConnect=0;whiteSpace=wrap;shape=mxgraph.archimate3.application;appType=grouping;archiType=square;dashed=1;fillColor=#D2D7D7;verticalAlign=top;strokeColor=#000000;" parent="1" vertex="1">
          <mxGeometry x="680" y="1160" width="910" height="640" as="geometry" />
        </mxCell>
        <mxCell id="b4YsowTs5IO4OCW3UgzT-64" value="&lt;b&gt;MetaIS&lt;/b&gt;&lt;div&gt;&lt;br&gt;&lt;div style=&quot;text-align: left;&quot;&gt;podľa 95/2019 §3c obsahom MetaIS sú&amp;nbsp;&lt;span style=&quot;background-color: transparent; color: light-dark(rgb(0, 0, 0), rgb(255, 255, 255));&quot;&gt;najmä technologické, administratívne a organizačné údaje o prevádzkovaných informačných technológiách verejnej správy,&lt;/span&gt;&lt;/div&gt;&lt;/div&gt;" style="html=1;outlineConnect=0;whiteSpace=wrap;fillColor=#66CCFF;shape=mxgraph.archimate3.application;appType=comp;archiType=square;strokeColor=#000000;verticalAlign=top;spacing=6;" parent="1" vertex="1">
          <mxGeometry x="720" y="1220" width="830" height="330" as="geometry" />
        </mxCell>
        <mxCell id="Mj89tKXQSyuhwqXj9ipI-8" value="&lt;div&gt;&lt;b&gt;Reálizácia eGovernmentu - centrálne kompenty&lt;/b&gt;&lt;br&gt;&lt;div&gt;305/2013&amp;nbsp;&lt;span style=&quot;text-align: justify;&quot;&gt;o elektronickej podobe výkonu pôsobnosti orgánov verejnej moci a niektoré ďalšie zákony&lt;/span&gt;&lt;/div&gt;&lt;/div&gt;" style="html=1;outlineConnect=0;whiteSpace=wrap;shape=mxgraph.archimate3.application;appType=grouping;archiType=square;dashed=1;fillColor=#D2D7D7;verticalAlign=top;strokeColor=#000000;" parent="1" vertex="1">
          <mxGeometry x="680" y="1840" width="910" height="220" as="geometry" />
        </mxCell>
        <mxCell id="Mj89tKXQSyuhwqXj9ipI-2" value="Register kompetencií" style="html=1;outlineConnect=0;whiteSpace=wrap;fillColor=#66CCFF;shape=mxgraph.archimate3.application;appType=comp;archiType=square;strokeColor=#000000;verticalAlign=top;fontStyle=1" parent="1" vertex="1">
          <mxGeometry x="250" y="1290" width="340" height="180" as="geometry" />
        </mxCell>
        <mxCell id="Mj89tKXQSyuhwqXj9ipI-3" value="Register oprávnení" style="html=1;outlineConnect=0;whiteSpace=wrap;fillColor=#66CCFF;shape=mxgraph.archimate3.application;appType=comp;archiType=square;strokeColor=#000000;verticalAlign=top;fontStyle=1" parent="1" vertex="1">
          <mxGeometry x="250" y="1570" width="340" height="180" as="geometry" />
        </mxCell>
        <mxCell id="Mj89tKXQSyuhwqXj9ipI-5" value="CSRU / OverSi" style="html=1;outlineConnect=0;whiteSpace=wrap;fillColor=#33CC66;shape=mxgraph.archimate3.application;appType=sysSw;archiType=square;strokeColor=#000000;verticalAlign=top;" parent="1" vertex="1">
          <mxGeometry x="710" y="1910" width="200" height="130" as="geometry" />
        </mxCell>
        <mxCell id="PhzSfmGoKHry_nglsGGV-2" value="&lt;span style=&quot;&quot;&gt;+ automatizácia overenia oprávnenia&lt;/span&gt;" style="html=1;outlineConnect=0;whiteSpace=wrap;fillColor=#007B28;shape=mxgraph.archimate3.application;appType=func;archiType=rounded;align=left;strokeColor=#000000;fontColor=#FFFFFF;spacing=4;" parent="1" vertex="1">
          <mxGeometry x="720" y="1950" width="180" height="50" as="geometry" />
        </mxCell>
        <mxCell id="b4YsowTs5IO4OCW3UgzT-3" value="CAMP" style="html=1;outlineConnect=0;whiteSpace=wrap;fillColor=#33CC66;shape=mxgraph.archimate3.application;appType=sysSw;archiType=square;strokeColor=#000000;verticalAlign=top;" parent="1" vertex="1">
          <mxGeometry x="930" y="1910" width="200" height="130" as="geometry" />
        </mxCell>
        <mxCell id="b4YsowTs5IO4OCW3UgzT-4" value="&lt;span style=&quot;&quot;&gt;+ automatizácia overenia oprávnenia&lt;/span&gt;" style="html=1;outlineConnect=0;whiteSpace=wrap;fillColor=#007B28;shape=mxgraph.archimate3.application;appType=func;archiType=rounded;align=left;strokeColor=#000000;fontColor=#FFFFFF;spacing=4;" parent="1" vertex="1">
          <mxGeometry x="940" y="1950" width="180" height="50" as="geometry" />
        </mxCell>
        <mxCell id="b4YsowTs5IO4OCW3UgzT-6" value="MOU" style="html=1;outlineConnect=0;whiteSpace=wrap;fillColor=#33CC66;shape=mxgraph.archimate3.application;appType=sysSw;archiType=square;strokeColor=#000000;verticalAlign=top;" parent="1" vertex="1">
          <mxGeometry x="1150" y="1910" width="200" height="130" as="geometry" />
        </mxCell>
        <mxCell id="b4YsowTs5IO4OCW3UgzT-7" value="&lt;span style=&quot;&quot;&gt;+ udelenie súhlasu na prístup&amp;nbsp;&lt;/span&gt;&lt;div&gt;&lt;span style=&quot;&quot;&gt;k oprávneniu (napr. nemusí si každý vedieť overiť, kto je koho poručník&lt;/span&gt;&lt;/div&gt;" style="html=1;outlineConnect=0;whiteSpace=wrap;fillColor=#007B28;shape=mxgraph.archimate3.application;appType=func;archiType=rounded;align=left;strokeColor=#000000;fontColor=#FFFFFF;spacing=4;" parent="1" vertex="1">
          <mxGeometry x="1160" y="1950" width="180" height="70" as="geometry" />
        </mxCell>
        <mxCell id="b4YsowTs5IO4OCW3UgzT-12" value="Infraštuktúrna služba" style="html=1;outlineConnect=0;whiteSpace=wrap;fillColor=#FFFFFF;shape=mxgraph.archimate3.application;appType=passive;archiType=square;verticalAlign=middle;strokeColor=#000000;" parent="1" vertex="1">
          <mxGeometry x="1140" y="1430" width="180" height="50" as="geometry" />
        </mxCell>
        <mxCell id="b4YsowTs5IO4OCW3UgzT-13" value="Referenčný register" style="html=1;outlineConnect=0;whiteSpace=wrap;fillColor=#FFFFFF;shape=mxgraph.archimate3.application;appType=passive;archiType=square;verticalAlign=middle;strokeColor=#000000;" parent="1" vertex="1">
          <mxGeometry x="1340" y="1310" width="180" height="50" as="geometry" />
        </mxCell>
        <mxCell id="b4YsowTs5IO4OCW3UgzT-46" value="Ciele, Princípy, KRIT" style="html=1;outlineConnect=0;whiteSpace=wrap;fillColor=#FFFFFF;shape=mxgraph.archimate3.application;appType=passive;archiType=square;verticalAlign=middle;strokeColor=#000000;" parent="1" vertex="1">
          <mxGeometry x="740" y="1310" width="180" height="50" as="geometry" />
        </mxCell>
        <mxCell id="b4YsowTs5IO4OCW3UgzT-47" value="Programy, Projekt, Aktivity" style="html=1;outlineConnect=0;whiteSpace=wrap;fillColor=#FFFFFF;shape=mxgraph.archimate3.application;appType=passive;archiType=square;verticalAlign=middle;strokeColor=#000000;" parent="1" vertex="1">
          <mxGeometry x="740" y="1370" width="180" height="50" as="geometry" />
        </mxCell>
        <mxCell id="b4YsowTs5IO4OCW3UgzT-48" value="Orgány riadenia,&amp;nbsp;&lt;span style=&quot;&quot;&gt;, správca&amp;nbsp;&lt;/span&gt;&lt;div style=&quot;&quot;&gt;&lt;span style=&quot;&quot;&gt;IS ...&amp;nbsp;&lt;/span&gt;&lt;span style=&quot;background-color: transparent; color: light-dark(rgb(0, 0, 0), rgb(255, 255, 255));&quot;&gt;sa budú mapovať na OVM definované v RKO&lt;/span&gt;&lt;/div&gt;" style="html=1;outlineConnect=0;whiteSpace=wrap;fillColor=#FF9800;shape=mxgraph.archimate3.application;appType=passive;archiType=square;verticalAlign=middle;strokeColor=#000000;align=left;" parent="1" vertex="1">
          <mxGeometry x="940" y="1310" width="180" height="50" as="geometry" />
        </mxCell>
        <mxCell id="b4YsowTs5IO4OCW3UgzT-49" value="Koncová služba&lt;br&gt;&lt;div style=&quot;&quot;&gt;&lt;span style=&quot;background-color: transparent;&quot;&gt;biznis vrstva: KS, agendy, úseky do RKO&lt;/span&gt;&lt;/div&gt;" style="html=1;outlineConnect=0;whiteSpace=wrap;fillColor=#D32300;shape=mxgraph.archimate3.application;appType=passive;archiType=square;verticalAlign=middle;strokeColor=#000000;fontColor=#FFFFFF;align=left;" parent="1" vertex="1">
          <mxGeometry x="940" y="1370" width="180" height="50" as="geometry" />
        </mxCell>
        <mxCell id="b4YsowTs5IO4OCW3UgzT-50" value="Formulár&lt;div&gt;bude odkazovať na služby, činnosti v RKO&lt;/div&gt;" style="html=1;outlineConnect=0;whiteSpace=wrap;fillColor=#FF9800;shape=mxgraph.archimate3.application;appType=passive;archiType=square;verticalAlign=middle;strokeColor=#000000;noLabel=0;container=0;collapsible=0;metaEdit=0;enumerate=0;comic=0;align=left;" parent="1" vertex="1">
          <mxGeometry x="940" y="1430" width="180" height="50" as="geometry" />
        </mxCell>
        <mxCell id="b4YsowTs5IO4OCW3UgzT-51" value="Aplikačná služba" style="html=1;outlineConnect=0;whiteSpace=wrap;fillColor=#FFFFFF;shape=mxgraph.archimate3.application;appType=passive;archiType=square;verticalAlign=middle;strokeColor=#000000;" parent="1" vertex="1">
          <mxGeometry x="1140" y="1310" width="180" height="50" as="geometry" />
        </mxCell>
        <mxCell id="b4YsowTs5IO4OCW3UgzT-52" value="IS VS" style="html=1;outlineConnect=0;whiteSpace=wrap;fillColor=#FFFFFF;shape=mxgraph.archimate3.application;appType=passive;archiType=square;verticalAlign=middle;strokeColor=#000000;" parent="1" vertex="1">
          <mxGeometry x="1140" y="1370" width="180" height="50" as="geometry" />
        </mxCell>
        <mxCell id="b4YsowTs5IO4OCW3UgzT-53" value="Štandardizácia" style="html=1;outlineConnect=0;whiteSpace=wrap;fillColor=#FFFFFF;shape=mxgraph.archimate3.application;appType=passive;archiType=square;verticalAlign=middle;strokeColor=#000000;" parent="1" vertex="1">
          <mxGeometry x="740" y="1430" width="180" height="50" as="geometry" />
        </mxCell>
        <mxCell id="b4YsowTs5IO4OCW3UgzT-55" value="Zostavy a monitoring" style="html=1;outlineConnect=0;whiteSpace=wrap;fillColor=#FFFFFF;shape=mxgraph.archimate3.application;appType=passive;archiType=square;verticalAlign=middle;strokeColor=#000000;" parent="1" vertex="1">
          <mxGeometry x="740" y="1490" width="180" height="50" as="geometry" />
        </mxCell>
        <mxCell id="b4YsowTs5IO4OCW3UgzT-57" value="&lt;b&gt;CMÚ - Centrálny model údajov&lt;/b&gt;&lt;div&gt;&lt;br&gt;&lt;div style=&quot;text-align: left;&quot;&gt;&lt;span style=&quot;background-color: transparent; color: light-dark(rgb(0, 0, 0), rgb(255, 255, 255));&quot;&gt;78/2020 §2 c) m) o)&lt;/span&gt;&lt;/div&gt;&lt;/div&gt;" style="html=1;outlineConnect=0;whiteSpace=wrap;fillColor=#66CCFF;shape=mxgraph.archimate3.application;appType=comp;archiType=square;strokeColor=#000000;verticalAlign=top;spacing=4;" parent="1" vertex="1">
          <mxGeometry x="720" y="1570" width="830" height="200" as="geometry" />
        </mxCell>
        <mxCell id="b4YsowTs5IO4OCW3UgzT-60" value="+ RUN informácie o IS, AS,&amp;nbsp;&lt;div&gt;KS, SLA, ..., napr. URL služby&lt;/div&gt;" style="html=1;outlineConnect=0;whiteSpace=wrap;fillColor=#007B28;shape=mxgraph.archimate3.application;appType=passive;archiType=square;verticalAlign=middle;strokeColor=#000000;fontColor=#FFFFFF;" parent="1" vertex="1">
          <mxGeometry x="1140" y="1490" width="180" height="50" as="geometry" />
        </mxCell>
        <mxCell id="b4YsowTs5IO4OCW3UgzT-61" value="&lt;span style=&quot;&quot;&gt;Referencovateľné identifikátory&lt;/span&gt;&lt;div&gt;&lt;span style=&quot;&quot;&gt;patria do CMÚ. V MetaIS budú väzby služba → URI&lt;/span&gt;&lt;/div&gt;" style="html=1;outlineConnect=0;whiteSpace=wrap;fillColor=#FF9800;shape=mxgraph.archimate3.application;appType=passive;archiType=square;verticalAlign=bottom;strokeColor=#000000;align=left;" parent="1" vertex="1">
          <mxGeometry x="1340" y="1430" width="180" height="50" as="geometry" />
        </mxCell>
        <mxCell id="b4YsowTs5IO4OCW3UgzT-62" value="Číselník&lt;div&gt;&lt;font style=&quot;color: rgb(255, 51, 0);&quot;&gt;presunúť do CMÚ??&lt;/font&gt;&lt;/div&gt;" style="html=1;outlineConnect=0;whiteSpace=wrap;fillColor=#FFFFFF;shape=mxgraph.archimate3.application;appType=passive;archiType=square;verticalAlign=middle;strokeColor=#000000;" parent="1" vertex="1">
          <mxGeometry x="1340" y="1370" width="180" height="50" as="geometry" />
        </mxCell>
        <mxCell id="b4YsowTs5IO4OCW3UgzT-65" value="&lt;a href=&quot;https://znalosti.gov.sk/&quot;&gt;&lt;span role=&quot;link&quot;&gt;https://znalosti.gov.sk/&lt;/span&gt;&lt;/a&gt;" style="html=1;outlineConnect=0;whiteSpace=wrap;fillColor=#FFFFFF;shape=mxgraph.archimate3.application;appType=comp;archiType=square;strokeColor=#000000;" parent="1" vertex="1">
          <mxGeometry x="740" y="1645" width="180" height="50" as="geometry" />
        </mxCell>
        <mxCell id="b4YsowTs5IO4OCW3UgzT-66" value="CMÚ by sa mal stať referenčným, aby sa naň dalo odkazovať z referenčných." style="html=1;outlineConnect=0;whiteSpace=wrap;fillColor=#007B28;shape=mxgraph.archimate3.application;appType=workPackage;archiType=rounded;strokeColor=#000000;fontColor=#FFFFFF;align=left;spacing=4;" parent="1" vertex="1">
          <mxGeometry x="1340" y="1645" width="180" height="50" as="geometry" />
        </mxCell>
        <mxCell id="b4YsowTs5IO4OCW3UgzT-67" value="&lt;span style=&quot;&quot;&gt;Referencovateľné identifikátory&amp;nbsp;&lt;/span&gt;&lt;div&gt;&lt;span style=&quot;&quot;&gt;z MetaIS&lt;/span&gt;&lt;/div&gt;" style="html=1;outlineConnect=0;whiteSpace=wrap;fillColor=#FF9800;shape=mxgraph.archimate3.application;appType=passive;archiType=square;verticalAlign=bottom;strokeColor=#000000;align=left;" parent="1" vertex="1">
          <mxGeometry x="1140" y="1645" width="180" height="50" as="geometry" />
        </mxCell>
        <mxCell id="b4YsowTs5IO4OCW3UgzT-68" value="Ontológie, znalostný graf" style="html=1;outlineConnect=0;whiteSpace=wrap;fillColor=#FFFFFF;shape=mxgraph.archimate3.application;appType=passive;archiType=square;verticalAlign=middle;strokeColor=#000000;" parent="1" vertex="1">
          <mxGeometry x="940" y="1645" width="180" height="50" as="geometry" />
        </mxCell>
        <mxCell id="b4YsowTs5IO4OCW3UgzT-72" value="ÚPVS" style="html=1;outlineConnect=0;whiteSpace=wrap;fillColor=#33CC66;shape=mxgraph.archimate3.application;appType=sysSw;archiType=square;strokeColor=#000000;verticalAlign=top;" parent="1" vertex="1">
          <mxGeometry x="1370" y="1910" width="200" height="130" as="geometry" />
        </mxCell>
        <mxCell id="b4YsowTs5IO4OCW3UgzT-73" value="&lt;span style=&quot;&quot;&gt;+ informovanie o kompetenciách a oprávneniach založené na štruktúrovaných údajoch&lt;/span&gt;" style="html=1;outlineConnect=0;whiteSpace=wrap;fillColor=#007B28;shape=mxgraph.archimate3.application;appType=func;archiType=rounded;align=left;strokeColor=#000000;fontColor=#FFFFFF;spacing=4;" parent="1" vertex="1">
          <mxGeometry x="1380" y="1950" width="180" height="70" as="geometry" />
        </mxCell>
        <mxCell id="b4YsowTs5IO4OCW3UgzT-75" value="Prehľad o elektronizácii" style="html=1;outlineConnect=0;whiteSpace=wrap;fillColor=#007B28;shape=mxgraph.archimate3.application;appType=passive;archiType=square;verticalAlign=middle;strokeColor=#000000;fontColor=#FFFFFF;" parent="1" vertex="1">
          <mxGeometry x="940" y="1490" width="180" height="50" as="geometry" />
        </mxCell>
        <mxCell id="b4YsowTs5IO4OCW3UgzT-77" value="&lt;div style=&quot;font-size: 12px;&quot;&gt;&lt;b&gt;Agendy - digitálne dvojča reálneho sveta&lt;/b&gt;&lt;/div&gt;&lt;div style=&quot;font-size: 12px;&quot;&gt;Osobitné zákony definujúce jednotlivé agendy&lt;span style=&quot;background-color: transparent; color: light-dark(rgb(0, 0, 0), rgb(255, 255, 255));&quot;&gt;.&lt;/span&gt;&lt;/div&gt;" style="html=1;outlineConnect=0;whiteSpace=wrap;shape=mxgraph.archimate3.application;appType=grouping;archiType=square;dashed=1;fillColor=#D2D7D7;fontFamily=Helvetica;fontSize=11;labelBackgroundColor=none;verticalAlign=top;strokeColor=#000000;" parent="1" vertex="1">
          <mxGeometry x="230" y="1820" width="380" height="220" as="geometry" />
        </mxCell>
        <mxCell id="b4YsowTs5IO4OCW3UgzT-71" value="&lt;div&gt;&lt;span style=&quot;&quot;&gt;305/2013 §4 (4)&lt;/span&gt;&lt;/div&gt;&lt;span style=&quot;&quot;&gt;&lt;b&gt;Agendové &lt;/b&gt;systémy sú informačné systémy verejnej správy&lt;/span&gt;&lt;a class=&quot;citacnyOdkazJednoduchy&quot; title=&quot;Odkaz na predpis alebo ustanovenie&quot; href=&quot;https://www.slov-lex.sk/ezbierky-fe/pravne-predpisy/SK/ZZ/2013/305/20250101#poznamky.poznamka-3&quot; style=&quot;box-sizing: border-box; -webkit-font-smoothing: antialiased; display: inline;&quot;&gt;&lt;span style=&quot;box-sizing: border-box;&quot;&gt;3&lt;/span&gt;)&lt;/a&gt;&lt;span style=&quot;&quot;&gt;&amp;nbsp;v správe orgánov verejnej moci, ktoré slúžia na zabezpečenie výkonu verejnej moci v rozsahu pôsobnosti a oprávnení týchto orgánov podľa osobitných predpisov.&lt;/span&gt;" style="text;strokeColor=#000000;align=left;fillColor=#FFFFFF;html=1;verticalAlign=top;whiteSpace=wrap;rounded=0;" parent="1" vertex="1">
          <mxGeometry x="250" y="1870" width="340" height="150" as="geometry" />
        </mxCell>
        <mxCell id="b4YsowTs5IO4OCW3UgzT-74" value="Elektronická zbierka&amp;nbsp;&lt;div&gt;(Slov-Lex)&lt;/div&gt;" style="html=1;outlineConnect=0;whiteSpace=wrap;fillColor=#D2D7D7;shape=mxgraph.archimate3.application;appType=representation;archiType=square;strokeColor=#000000;verticalAlign=middle;spacingTop=10;fontSize=10;" parent="1" vertex="1">
          <mxGeometry x="70" y="1370" width="60" height="70" as="geometry" />
        </mxCell>
        <mxCell id="5Y0m7SEWrtOaW2OVviik-5" value="" style="shape=image;verticalLabelPosition=bottom;labelBackgroundColor=default;verticalAlign=top;aspect=fixed;imageAspect=0;editableCssRules=.*;image=data:image/svg+xml,PHN2ZyB4bWxuczp4bGluaz0iaHR0cDovL3d3dy53My5vcmcvMTk5OS94bGluayIgeG1sbnM9Imh0dHA6Ly93d3cudzMub3JnLzIwMDAvc3ZnIiB4bWw6c3BhY2U9InByZXNlcnZlIiBzdHlsZT0iZW5hYmxlLWJhY2tncm91bmQ6bmV3IDAgMCAyNTUgMjU1OyIgdmlld0JveD0iMjQuNDU2NTQ0ODc2MDk4NjMzIDM0Ljc5OTk4Nzc5Mjk2ODc1IDIwNi4xNDQyNDEzMzMwMDc4IDE4NS4yOTk5NzI1MzQxNzk3IiB5PSIwcHgiIHg9IjBweCIgaWQ9IkxheWVyXzEiIHZlcnNpb249IjEuMSIgd2lkdGg9IjIwNi4xNDQyNDEzMzMwMDc4IiBoZWlnaHQ9IjE4NS4yOTk5NzI1MzQxNzk3Ij4mI3hhOzxwYXRoIGQ9Ik0yMzAuNSwyMTQuMmMwLDAtNS4xLTI2LjgtOC00MS41Yy0yLjMtMTEuNy0xNy40LTIxLjQtNDQuOC0yOVYxMzJjNS4xLTUuNCwxMC4zLTExLjQsMTIuOC0xNy4zYzEuMS0wLjEsMi0wLjUsMi41LTAuOCYjMTA7JiM5O2MyLjMtMS4yLDQtMy40LDQuNS02YzAuMi0wLjcsMC44LTMuMSwxLjYtNS44YzItNywyLjctOS42LDIuOS0xMC44YzAtMC40LDAuMS0wLjgsMC4xLTEuMmMwLTQuNC0yLjUtOC4yLTYuMi0xMHYtNS40JiMxMDsmIzk7YzAtMjItMTcuOS0zOS45LTM5LjktMzkuOWMtMTMuNiwwLTI2LjEsNy4xLTMzLjQsMTguMmMtNy44LTguNC0xOS0xMy43LTMxLjMtMTMuN2MtMjMuNiwwLTQyLjksMTkuMi00Mi45LDQyLjkmIzEwOyYjOTtjMCwzLjMsMC40LDYuNywxLjEsOS42YzEuOSwxMi4zLDAuOCwyMi44LTMuMSwyOC4yYy0xLjUsMi4xLTEuMiw0LjksMC43LDYuNmM2LjQsNS45LDEzLjksMTAuNCwyMi4yLDEzLjN2MTAuNyYjMTA7JiM5O2MtMTEuOCwyLjQtMjYuNyw2LjYtMzcuNSwxMy41Yy0xLjMsMC44LTIuMSwyLjItMi4zLDMuN2wtNSw0Ni43Yy0wLjIsMS40LDAuMywyLjgsMS4zLDMuOWMwLjksMS4xLDIuMywxLjcsMy43LDEuN2gxMTguNmg1aDcyLjcmIzEwOyYjOTtjMS41LDAsMi45LTAuNywzLjktMS44QzIzMC40LDIxNy4xLDIzMC44LDIxNS42LDIzMC41LDIxNC4yeiBNMTMzLjYsMTMyLjFsMC40LDEyLjRjLTgsMi43LTEzLjgsNS42LTE2LjYsNy4yJiMxMDsmIzk7Yy0xLjUtMC4zLTIuOS0wLjYtNC4zLTAuOVYxNDBjNi43LTIuNCwxMi45LTUuOCwxOC40LTEwLjFDMTMyLjMsMTMwLjcsMTMzLDEzMS40LDEzMy42LDEzMi4xeiBNMzkuMSwxNzEuNSYjMTA7JiM5O2MxMC42LTYuMSwyNS4yLTkuNywzNi0xMS43YzIuNC0wLjQsNC4xLTIuNSw0LjEtNC45di0xOC41YzAtMi4yLTEuNS00LjItMy42LTQuOGMtNy0yLTEzLjMtNS4yLTE4LjgtOS42YzQuOS0xMC4yLDMuOC0yMy45LDIuNS0zMiYjMTA7JiM5O2MtMC42LTIuNi0wLjktNS4yLTAuOS03LjdjMC0xOC4xLDE0LjctMzIuOSwzMi45LTMyLjljMTEuNywwLDIyLDYuMSwyNy44LDE1LjRjMC4xLDAuMiwwLjIsMC40LDAuNCwwLjZjMyw0LjksNC43LDEwLjcsNC43LDE2LjkmIzEwOyYjOTtjMCwyLjUtMC4zLDUtMSw4Yy0xLjIsNy45LTIuMSwyMS42LDIuNSwzMS43Yy01LjUsNC40LTExLjgsNy42LTE4LjgsOS42Yy0yLjEsMC42LTMuNiwyLjYtMy42LDQuOHYxOC41YzAsMi40LDEuNyw0LjUsNC4xLDQuOSYjMTA7JiM5O2MxMC43LDIsMjUuNCw1LjYsMzYsMTEuN2w0LjEsMzguN0gzNC45TDM5LjEsMTcxLjV6IE0xNTcuNCwyMTAuMWwtNC41LTQyLjJjLTAuMi0xLjUtMS0yLjktMi4zLTMuN2MtNS40LTMuNC0xMS44LTYuMi0xOC40LTguNCYjMTA7JiM5O2MyLjUtMSw1LjMtMiw4LjQtMi45YzIuMi0wLjYsMy43LTIuNywzLjYtNWwtMC43LTE4LjFjMC0xLjItMC41LTIuNC0xLjQtMy4zYy0yLjEtMi4yLTQuNC00LjYtNi41LTcuMWMtMC4xLTAuMS0wLjItMC4yLTAuMy0wLjMmIzEwOyYjOTtjLTMuMy01LjUtNC4yLTE1LjQtMi41LTI3YzAuOC0zLjMsMS4yLTYuNiwxLjItOS45YzAtNy4zLTEuOC0xNC4yLTUuMS0yMC4yYzQuOS0xMC4zLDE1LjUtMTcuMSwyNy0xNy4xYzE2LjUsMCwyOS45LDEzLjQsMjkuOSwyOS45JiMxMDsmIzk7Vjg0YzAsMi44LDIuMiw1LDUsNWMwLjcsMCwxLjIsMC41LDEuMiwxLjJjLTAuMiwxLTEuNyw2LjItMi41LDkuM2MtMC41LDEuOS0xLDMuNi0xLjQsNC44Yy0xLjItMC4zLTIuNS0wLjItMy42LDAuNCYjMTA7JiM5O2MtMS40LDAuOC0yLjQsMi4yLTIuNiwzLjhjLTAuNyw1LjQtOC45LDE0LTEyLjgsMTguMWMtMC45LDAuOS0xLjQsMi4yLTEuNCwzLjV2MTcuNGMwLDIuMywxLjUsNC4zLDMuNyw0LjgmIzEwOyYjOTtjMjQsNi4yLDM5LjgsMTQuOCw0MS4zLDIyLjNjMi4xLDEwLjQsNS4yLDI2LjgsNi45LDM1LjZIMTU3LjR6Ii8+JiN4YTs8L3N2Zz4=;" parent="1" vertex="1">
          <mxGeometry x="83.3" y="1675" width="33.4" height="30" as="geometry" />
        </mxCell>
        <mxCell id="5Y0m7SEWrtOaW2OVviik-6" value="" style="shape=image;verticalLabelPosition=bottom;labelBackgroundColor=default;verticalAlign=top;aspect=fixed;imageAspect=0;editableCssRules=.*;image=data:image/svg+xml,PHN2ZyB4bWxuczp4bGluaz0iaHR0cDovL3d3dy53My5vcmcvMTk5OS94bGluayIgeG1sbnM9Imh0dHA6Ly93d3cudzMub3JnLzIwMDAvc3ZnIiB4bWw6c3BhY2U9InByZXNlcnZlIiBzdHlsZT0iZW5hYmxlLWJhY2tncm91bmQ6bmV3IDAgMCAyNTUgMjU1OyIgdmlld0JveD0iNDIuMDk5OTk0NjU5NDIzODMgNDEuNzAwMDAwNzYyOTM5NDUgMTcwLjkwMDAwOTE1NTI3MzQ0IDE3MS40OTk5ODQ3NDEyMTA5NCIgeT0iMHB4IiB4PSIwcHgiIGlkPSJMYXllcl8xIiB2ZXJzaW9uPSIxLjEiIHdpZHRoPSIxNzAuOTAwMDA5MTU1MjczNDQiIGhlaWdodD0iMTcxLjQ5OTk4NDc0MTIxMDk0Ij4mI3hhOzxnPiYjeGE7CTxwYXRoIGQ9Ik0yMDcuOSw0MS43aC0xMTVjLTIuOCwwLTUsMi4yLTUsNXY1MmwtNDQuMSwzOS4xYy0xLjEsMC45LTEuNywyLjMtMS43LDMuN3Y2Ni43YzAsMi44LDIuMiw1LDUsNUg3OGgxNWgxNWgzMC44aDY5LjImIzEwOyYjOTsmIzk7YzIuOCwwLDUtMi4yLDUtNVY0Ni43QzIxMi45LDQ0LDIxMC43LDQxLjcsMjA3LjksNDEuN3ogTTkyLjksMjAzLjNIODN2LTM2LjdoMTkuOXYzNi43SDkyLjl6IE0xMTIuOSwyMDMuM3YtNDEuN2MwLTIuOC0yLjItNS01LTUmIzEwOyYjOTsmIzk7SDc4Yy0yLjgsMC01LDIuMi01LDV2NDEuN0g1Mi4xdi01OS41bDQwLjgtMzYuMmw0MC44LDM2LjJ2NTkuNUgxMTIuOXogTTIwMi45LDIwMy4zaC01OS4ydi02MS43YzAtMS40LTAuNi0yLjgtMS43LTMuN0w5Ny45LDk4LjcmIzEwOyYjOTsmIzk7di00N2gxMDVWMjAzLjN6Ii8+JiN4YTsJPHBhdGggZD0iTTExNy4xLDk0LjhoMjIuNGMyLjgsMCw1LTIuMiw1LTVWNjcuNGMwLTIuOC0yLjItNS01LTVoLTIyLjRjLTIuOCwwLTUsMi4yLTUsNXYyMi40QzExMi4xLDkyLjUsMTE0LjMsOTQuOCwxMTcuMSw5NC44eiYjMTA7JiM5OyYjOTsgTTEyMi4xLDcyLjRoMTIuNHYxMi40aC0xMi40VjcyLjR6Ii8+JiN4YTsJPHBhdGggZD0iTTE2MS4zLDk0LjhoMjIuNGMyLjgsMCw1LTIuMiw1LTVWNjcuNGMwLTIuOC0yLjItNS01LTVoLTIyLjRjLTIuOCwwLTUsMi4yLTUsNXYyMi40QzE1Ni4zLDkyLjUsMTU4LjYsOTQuOCwxNjEuMyw5NC44eiYjMTA7JiM5OyYjOTsgTTE2Ni4zLDcyLjRoMTIuNHYxMi40aC0xMi40VjcyLjR6Ii8+JiN4YTsJPHBhdGggZD0iTTE2MS4zLDEzNy42aDIyLjRjMi44LDAsNS0yLjIsNS01di0yMi40YzAtMi44LTIuMi01LTUtNWgtMjIuNGMtMi44LDAtNSwyLjItNSw1djIyLjQmIzEwOyYjOTsmIzk7QzE1Ni4zLDEzNS40LDE1OC42LDEzNy42LDE2MS4zLDEzNy42eiBNMTY2LjMsMTE1LjNoMTIuNHYxMi40aC0xMi40VjExNS4zeiIvPiYjeGE7PC9nPiYjeGE7PC9zdmc+;" parent="1" vertex="1">
          <mxGeometry x="85" y="1720" width="30" height="30" as="geometry" />
        </mxCell>
        <mxCell id="5Y0m7SEWrtOaW2OVviik-7" value="" style="shape=image;verticalLabelPosition=bottom;labelBackgroundColor=default;verticalAlign=top;aspect=fixed;imageAspect=0;editableCssRules=.*;image=data:image/svg+xml,PHN2ZyB4bWxuczp4bGluaz0iaHR0cDovL3d3dy53My5vcmcvMTk5OS94bGluayIgeG1sbnM9Imh0dHA6Ly93d3cudzMub3JnLzIwMDAvc3ZnIiB4bWw6c3BhY2U9InByZXNlcnZlIiBzdHlsZT0iZW5hYmxlLWJhY2tncm91bmQ6bmV3IDAgMCAyNTUgMjU1OyIgdmlld0JveD0iMjYuNjMxMTk1MDY4MzU5Mzc1IDM5LjU3NDk5Njk0ODI0MjE5IDIwMS43Mzc2MDk4NjMyODEyNSAxNzUuODI0OTk2OTQ4MjQyMiIgeT0iMHB4IiB4PSIwcHgiIGlkPSJMYXllcl8xIiB2ZXJzaW9uPSIxLjEiIHdpZHRoPSIyMDEuNzM3NjA5ODYzMjgxMjUiIGhlaWdodD0iMTc1LjgyNDk5Njk0ODI0MjIiPiYjeGE7PHBhdGggZD0iTTIyMC4zLDEwOS43YzMuNywwLDYuOS0yLjMsNy44LTUuOGMwLjktMy40LTAuNS02LjgtMy42LTguN2wtOTIuOC01NC41Yy0yLjYtMS41LTUuOC0xLjUtOC40LDBMMzAuNSw5NS4yJiMxMDsmIzk7Yy0zLjEsMS44LTQuNSw1LjMtMy42LDguN2MwLjksMy41LDQuMSw1LjgsNy44LDUuOGgxOS4ydjY4SDQ5Yy0xLjgsMC0zLjQsMC45LTQuMywyLjVsLTE2LjQsMjcuN2MtMC45LDEuNS0wLjksMy41LDAsNSYjMTA7JiM5O2MwLjksMS42LDIuNSwyLjUsNC4zLDIuNWgxODkuOGMxLjgsMCwzLjUtMSw0LjMtMi41YzAuOS0xLjYsMC45LTMuNSwwLTVsLTE2LjQtMjcuN2MtMC45LTEuNS0yLjUtMi41LTQuMy0yLjVoLTd2LTY4SDIyMC4zeiYjMTA7JiM5OyBNMjEzLjYsMjA1LjRINDEuNGwxMC41LTE3LjdoNy4xaDI0LjloMzEuM2gyNC45aDI5LjJIMTk0aDkuMkwyMTMuNiwyMDUuNHogTTExMC4xLDE3Ny43SDg4Ljh2LTY4aDIxLjNWMTc3Ljd6IE0xNjQuMSwxNzcuN2gtMTkuMiYjMTA7JiM5O3YtNjhoMTkuMlYxNzcuN3ogTTE3NC4xLDE3Ny43di03M2MwLTIuOC0yLjItNS01LTVoLTI5LjJjLTIuOCwwLTUsMi4yLTUsNXY3M2gtMTQuOXYtNzNjMC0yLjgtMi4yLTUtNS01SDgzLjhjLTIuOCwwLTUsMi4yLTUsNXY3MyYjMTA7JiM5O0g2My45di03M2MwLTIuOC0yLjItNS01LTVINDIuN2w4NC44LTQ5LjlsODQuOCw0OS45SDE5NGMtMi44LDAtNSwyLjItNSw1djczSDE3NC4xeiIvPiYjeGE7PC9zdmc+;" parent="1" vertex="1">
          <mxGeometry x="82.78" y="1770" width="34.44" height="30" as="geometry" />
        </mxCell>
        <mxCell id="5Y0m7SEWrtOaW2OVviik-8" value="" style="shape=image;verticalLabelPosition=bottom;labelBackgroundColor=default;verticalAlign=top;aspect=fixed;imageAspect=0;editableCssRules=.*;image=data:image/svg+xml,PHN2ZyB4bWxuczp4bGluaz0iaHR0cDovL3d3dy53My5vcmcvMTk5OS94bGluayIgeG1sbnM9Imh0dHA6Ly93d3cudzMub3JnLzIwMDAvc3ZnIiB4bWw6c3BhY2U9InByZXNlcnZlIiBzdHlsZT0iZW5hYmxlLWJhY2tncm91bmQ6bmV3IDAgMCAyNTUgMjU1OyIgdmlld0JveD0iNDQgNTAuMTAwMDAyMjg4ODE4MzYgMTY3IDE1NC42OTk5OTY5NDgyNDIyIiB5PSIwcHgiIHg9IjBweCIgaWQ9IkxheWVyXzEiIHZlcnNpb249IjEuMSIgd2lkdGg9IjE2NyIgaGVpZ2h0PSIxNTQuNjk5OTk2OTQ4MjQyMiI+JiN4YTs8Zz4mI3hhOwk8cGF0aCBkPSJNMTk3LjcsODEuOWgtMzMuOGMtMi40LTE3LjktMTcuOC0zMS44LTM2LjQtMzEuOGMtMTguNiwwLTM0LDEzLjgtMzYuNCwzMS44SDU3LjNjLTcuMywwLTEzLjMsNi0xMy4zLDEzLjN2OTYuMyYjMTA7JiM5OyYjOTtjMCw3LjMsNiwxMy4zLDEzLjMsMTMuM2gxNDAuNGM3LjMsMCwxMy4zLTYsMTMuMy0xMy4zVjk1LjJDMjExLDg3LjksMjA1LDgxLjksMTk3LjcsODEuOXogTTEyNy41LDYwLjFjMTMsMCwyMy45LDkuNCwyNi4zLDIxLjgmIzEwOyYjOTsmIzk7aC01Mi42QzEwMy42LDY5LjUsMTE0LjUsNjAuMSwxMjcuNSw2MC4xeiBNMjAxLDE5MS41YzAsMS44LTEuNSwzLjMtMy4zLDMuM0g1Ny4zYy0xLjgsMC0zLjMtMS41LTMuMy0zLjNWOTUuMiYjMTA7JiM5OyYjOTtjMC0xLjgsMS41LTMuMywzLjMtMy4zaDE0MC40YzEuOCwwLDMuMywxLjUsMy4zLDMuM1YxOTEuNXoiLz4mI3hhOwk8cGF0aCBkPSJNMTYxLjEsMTI1aC0xNS4xdi0xNS4xYzAtMi44LTIuMi01LTUtNWgtMjYuOGMtMi44LDAtNSwyLjItNSw1VjEyNUg5My45Yy0yLjgsMC01LDIuMi01LDV2MjYuOGMwLDIuOCwyLjIsNSw1LDVoMTUuMXYxNS4xJiMxMDsmIzk7JiM5O2MwLDIuOCwyLjIsNSw1LDVoMjYuOGMyLjgsMCw1LTIuMiw1LTV2LTE1LjFoMTUuMWMyLjgsMCw1LTIuMiw1LTVWMTMwQzE2Ni4xLDEyNy4yLDE2My44LDEyNSwxNjEuMSwxMjV6IE0xNTYuMSwxNTEuOGgtMTUuMSYjMTA7JiM5OyYjOTtjLTIuOCwwLTUsMi4yLTUsNXYxNS4xaC0xNi44di0xNS4xYzAtMi44LTIuMi01LTUtNUg5OC45VjEzNWgxNS4xYzIuOCwwLDUtMi4yLDUtNXYtMTUuMWgxNi44VjEzMGMwLDIuOCwyLjIsNSw1LDVoMTUuMVYxNTEuOHoiLz4mI3hhOzwvZz4mI3hhOzwvc3ZnPg==;" parent="1" vertex="1">
          <mxGeometry x="83.84" y="1820" width="32.32" height="30" as="geometry" />
        </mxCell>
        <mxCell id="5Y0m7SEWrtOaW2OVviik-12" value="&lt;font style=&quot;font-size: 28px;&quot;&gt;§&lt;/font&gt;" style="text;strokeColor=none;align=center;fillColor=none;html=1;verticalAlign=middle;whiteSpace=wrap;rounded=0;" parent="1" vertex="1">
          <mxGeometry x="70" y="1326" width="60" height="30" as="geometry" />
        </mxCell>
        <mxCell id="5Y0m7SEWrtOaW2OVviik-13" value="" style="edgeStyle=elbowEdgeStyle;html=1;endArrow=openAsync;elbow=vertical;rounded=0;endFill=0;entryX=0;entryY=0.5;entryDx=0;entryDy=0;entryPerimeter=0;" parent="1" source="5Y0m7SEWrtOaW2OVviik-11" target="b4YsowTs5IO4OCW3UgzT-77" edge="1">
          <mxGeometry width="160" relative="1" as="geometry">
            <mxPoint x="380" y="2220" as="sourcePoint" />
            <mxPoint x="540" y="2220" as="targetPoint" />
          </mxGeometry>
        </mxCell>
        <mxCell id="5Y0m7SEWrtOaW2OVviik-14" value="" style="edgeStyle=elbowEdgeStyle;html=1;endArrow=openAsync;elbow=vertical;rounded=0;endFill=0;entryX=0;entryY=0.5;entryDx=0;entryDy=0;entryPerimeter=0;" parent="1" source="v1EW0JT8d4S7AqYUZW40-4" target="b4YsowTs5IO4OCW3UgzT-76" edge="1">
          <mxGeometry width="160" relative="1" as="geometry">
            <mxPoint x="910" y="1660" as="sourcePoint" />
            <mxPoint x="1070" y="1660" as="targetPoint" />
          </mxGeometry>
        </mxCell>
        <mxCell id="5Y0m7SEWrtOaW2OVviik-15" value="" style="edgeStyle=elbowEdgeStyle;html=1;endArrow=openAsync;elbow=vertical;rounded=0;endFill=0;" parent="1" source="b4YsowTs5IO4OCW3UgzT-76" target="b4YsowTs5IO4OCW3UgzT-78" edge="1">
          <mxGeometry width="160" relative="1" as="geometry">
            <mxPoint x="170" y="1320" as="sourcePoint" />
            <mxPoint x="240" y="1320" as="targetPoint" />
          </mxGeometry>
        </mxCell>
        <mxCell id="5Y0m7SEWrtOaW2OVviik-16" value="" style="edgeStyle=elbowEdgeStyle;html=1;endArrow=openAsync;elbow=vertical;rounded=0;endFill=0;exitX=0.5;exitY=0;exitDx=0;exitDy=0;exitPerimeter=0;" parent="1" source="b4YsowTs5IO4OCW3UgzT-77" target="b4YsowTs5IO4OCW3UgzT-78" edge="1">
          <mxGeometry width="160" relative="1" as="geometry">
            <mxPoint x="430" y="1410" as="sourcePoint" />
            <mxPoint x="430" y="1530" as="targetPoint" />
          </mxGeometry>
        </mxCell>
        <mxCell id="5Y0m7SEWrtOaW2OVviik-18" value="" style="shape=image;verticalLabelPosition=bottom;labelBackgroundColor=default;verticalAlign=top;aspect=fixed;imageAspect=0;editableCssRules=.*;image=data:image/svg+xml,PHN2ZyB4bWxuczp4bGluaz0iaHR0cDovL3d3dy53My5vcmcvMTk5OS94bGluayIgeG1sbnM9Imh0dHA6Ly93d3cudzMub3JnLzIwMDAvc3ZnIiB4bWw6c3BhY2U9InByZXNlcnZlIiBzdHlsZT0iZW5hYmxlLWJhY2tncm91bmQ6bmV3IDAgMCAyNTUgMjU1OyIgdmlld0JveD0iNDEuMzAwMDAzMDUxNzU3ODEgNDEuMzk5OTkzODk2NDg0Mzc1IDE3Mi4xOTk5OTY5NDgyNDIyIDE3Mi4xOTk5OTY5NDgyNDIyIiB5PSIwcHgiIHg9IjBweCIgaWQ9IkxheWVyXzEiIHZlcnNpb249IjEuMSIgd2lkdGg9IjE3Mi4xOTk5OTY5NDgyNDIyIiBoZWlnaHQ9IjE3Mi4xOTk5OTY5NDgyNDIyIj4mI3hhOzxwYXRoIGQ9Ik0yMDIuOSwxNjguOWM2LjgtMTIuMywxMC42LTI2LjQsMTAuNi00MS40YzAtNDcuNS0zOC42LTg2LjEtODYuMS04Ni4xYy00Ny41LDAtODYuMSwzOC42LTg2LjEsODYuMWMwLDE1LDMuOCwyOSwxMC42LDQxLjMmIzEwOyYjOTtjMC4yLDAuNSwwLjQsMC45LDAuNywxLjNjMTQuOCwyNS45LDQyLjgsNDMuNSw3NC43LDQzLjVjMzIsMCw2MC0xNy42LDc0LjgtNDMuNkMyMDIuNSwxNjkuNiwyMDIuOCwxNjkuMywyMDIuOSwxNjguOXogTTUxLjYsMTMyLjUmIzEwOyYjOTtoMjdjMC4zLDEwLjUsMS43LDIwLjQsMy45LDI5LjVINTkuOEM1NS4yLDE1Myw1Mi4zLDE0My4xLDUxLjYsMTMyLjV6IE01OS43LDkzLjJoMjIuOGMtMi4yLDktMy41LDE4LjktMy44LDI5LjNoLTI3JiMxMDsmIzk7QzUyLjMsMTEyLDU1LjEsMTAyLjEsNTkuNyw5My4yeiBNMjAzLjQsMTIyLjVoLTI3Yy0wLjMtMTAuNC0xLjctMjAuMy0zLjgtMjkuM2gyMi44QzE5OS45LDEwMi4xLDIwMi43LDExMiwyMDMuNCwxMjIuNXomIzEwOyYjOTsgTTE2Ni40LDEyMi41aC0zMy45VjkzLjJoMjkuNkMxNjQuNSwxMDIuMSwxNjYsMTEyLjEsMTY2LjQsMTIyLjV6IE0xMzIuNSw4My4yVjUyLjFjMTAuNywyLjgsMjAuMiwxNC41LDI2LjQsMzEuMUgxMzIuNXomIzEwOyYjOTsgTTEyMi41LDUyLjF2MzEuMUg5Ni4xQzEwMi4zLDY2LjYsMTExLjgsNTQuOSwxMjIuNSw1Mi4xeiBNMTIyLjUsOTMuMnYyOS4zSDg4LjZjMC40LTEwLjQsMS45LTIwLjQsNC4zLTI5LjNIMTIyLjV6IE04OC42LDEzMi41JiMxMDsmIzk7aDMzLjlWMTYySDkyLjlDOTAuNSwxNTMsODksMTQzLDg4LjYsMTMyLjV6IE0xMjIuNSwxNzJ2MzAuOWMtMTAuNy0yLjgtMjAuMi0xNC40LTI2LjQtMzAuOUgxMjIuNXogTTEzMi41LDIwMi45VjE3MmgyNi40JiMxMDsmIzk7QzE1Mi43LDE4OC41LDE0My4yLDIwMC4xLDEzMi41LDIwMi45eiBNMTMyLjUsMTYydi0yOS41aDMzLjljLTAuNCwxMC41LTEuOSwyMC41LTQuMywyOS41SDEzMi41eiBNMTc2LjQsMTMyLjVoMjcmIzEwOyYjOTtjLTAuNywxMC42LTMuNSwyMC41LTguMSwyOS41aC0yMi43QzE3NC43LDE1Mi45LDE3Ni4xLDE0MywxNzYuNCwxMzIuNXogTTE4OS4zLDgzLjJoLTE5LjZjLTMuNS0xMC40LTguMi0xOS4zLTEzLjgtMjYuMiYjMTA7JiM5O0MxNjkuMyw2Mi40LDE4MC45LDcxLjYsMTg5LjMsODMuMnogTTk5LjEsNTdjLTUuNiw2LjktMTAuMywxNS44LTEzLjgsMjYuMkg2NS43Qzc0LjEsNzEuNiw4NS43LDYyLjQsOTkuMSw1N3ogTTY1LjksMTcyaDE5LjUmIzEwOyYjOTtjMy41LDEwLjMsOC4yLDE5LjIsMTMuNywyNkM4NS43LDE5Mi42LDc0LjIsMTgzLjUsNjUuOSwxNzJ6IE0xNTUuOSwxOThjNS42LTYuOSwxMC4zLTE1LjcsMTMuNy0yNmgxOS41JiMxMDsmIzk7QzE4MC44LDE4My41LDE2OS4zLDE5Mi42LDE1NS45LDE5OHoiLz4mI3hhOzwvc3ZnPg==;" parent="1" vertex="1">
          <mxGeometry x="44" y="1165" width="20" height="20" as="geometry" />
        </mxCell>
        <mxCell id="HM-HWS3Q9hcDez5ZIT6Y-2" value="" style="shape=image;verticalLabelPosition=bottom;labelBackgroundColor=default;verticalAlign=top;aspect=fixed;imageAspect=0;editableCssRules=.*;image=data:image/svg+xml,PHN2ZyB4bWxuczp4bGluaz0iaHR0cDovL3d3dy53My5vcmcvMTk5OS94bGluayIgeG1sbnM9Imh0dHA6Ly93d3cudzMub3JnLzIwMDAvc3ZnIiB4bWw6c3BhY2U9InByZXNlcnZlIiBzdHlsZT0iZW5hYmxlLWJhY2tncm91bmQ6bmV3IDAgMCAyNTUgMjU1OyIgdmlld0JveD0iMzkuMjAwMDAwNzYyOTM5NDUgNDcuMjAwMDAwNzYyOTM5NDUgMTc2LjUwMTA4MzM3NDAyMzQ0IDE2MC42MDAwMDYxMDM1MTU2MiIgeT0iMHB4IiB4PSIwcHgiIGlkPSJMYXllcl8xIiB2ZXJzaW9uPSIxLjEiIHdpZHRoPSIxNzYuNTAxMDgzMzc0MDIzNDQiIGhlaWdodD0iMTYwLjYwMDAwNjEwMzUxNTYyIj4mI3hhOzxnPiYjeGE7CTxwYXRoIGQ9Ik0yMDAuOCw1NS45aC0xOS42di0zLjdjMC0yLjgtMi4yLTUtNS01cy01LDIuMi01LDV2My43aC05MHYtMy43YzAtMi44LTIuMi01LTUtNXMtNSwyLjItNSw1djMuN0g1NC4yYy04LjMsMC0xNSw2LjctMTUsMTUmIzEwOyYjOTsmIzk7djEyMS45YzAsOC4zLDYuNywxNSwxNSwxNWgxNDYuNWM4LjMsMCwxNS02LjcsMTUtMTVWNzAuOUMyMTUuOCw2Mi42LDIwOSw1NS45LDIwMC44LDU1Ljl6IE0yMDUuOCwxOTIuOGMwLDIuOC0yLjIsNS01LDVINTQuMiYjMTA7JiM5OyYjOTtjLTIuOCwwLTUtMi4yLTUtNVY3MC45YzAtMi44LDIuMi01LDUtNWgxNi45djMuN2MwLDIuOCwyLjIsNSw1LDVzNS0yLjIsNS01di0zLjdoOTB2My43YzAsMi44LDIuMiw1LDUsNXM1LTIuMiw1LTV2LTMuN2gxOS42JiMxMDsmIzk7JiM5O2MyLjgsMCw1LDIuMiw1LDVWMTkyLjh6Ii8+JiN4YTsJPHBhdGggZD0iTTk3LDE1MGMxLjIsMCwyLjQtMC40LDMuMy0xLjNsNDItMzcuOHYyMGMwLDIuOCwyLjIsNSw1LDVzNS0yLjIsNS01Vjk5LjdjMC0wLjEsMC0wLjIsMC0wLjNjMC0wLjIsMC0wLjQtMC4xLTAuNSYjMTA7JiM5OyYjOTtjMC0wLjItMC4xLTAuMy0wLjEtMC41YzAtMC4yLTAuMS0wLjMtMC4xLTAuNWMtMC4xLTAuMi0wLjEtMC4zLTAuMi0wLjVjLTAuMS0wLjEtMC4xLTAuMy0wLjItMC40Yy0wLjEtMC4yLTAuMi0wLjMtMC4zLTAuNSYjMTA7JiM5OyYjOTtjLTAuMS0wLjEtMC4xLTAuMi0wLjItMC4yYzAsMC0wLjEtMC4xLTAuMS0wLjFjLTAuMS0wLjEtMC4zLTAuMy0wLjQtMC40Yy0wLjEtMC4xLTAuMi0wLjItMC4zLTAuM2MtMC4xLTAuMS0wLjMtMC4yLTAuNC0wLjMmIzEwOyYjOTsmIzk7Yy0wLjEtMC4xLTAuMy0wLjItMC40LTAuMmMtMC4xLTAuMS0wLjMtMC4xLTAuNC0wLjJjLTAuMi0wLjEtMC4zLTAuMS0wLjUtMC4xYy0wLjEsMC0wLjMsMC0wLjQtMC4xYy0wLjIsMC0wLjQtMC4xLTAuNS0wLjEmIzEwOyYjOTsmIzk7YzAsMC0wLjEsMC0wLjEsMGgtMzEuMmMtMi44LDAtNSwyLjItNSw1czIuMiw1LDUsNWgxOC4ybC00MC42LDM2LjZjLTIuMSwxLjktMi4yLDUtMC40LDcuMUM5NC4zLDE0OS41LDk1LjcsMTUwLDk3LDE1MHoiLz4mI3hhOwk8cGF0aCBkPSJNMTc2LjIsOTQuN2MtMi44LDAtNSwyLjItNSw1djY5LjloLTk1Yy0yLjgsMC01LDIuMi01LDVzMi4yLDUsNSw1aDk5LjRjMC4xLDAsMC4yLDAsMC4zLDBjMC4xLDAsMC4yLDAsMC4zLDAmIzEwOyYjOTsmIzk7YzIuOCwwLDUtMi4yLDUtNVY5OS43QzE4MS4yLDk2LjksMTc4LjksOTQuNywxNzYuMiw5NC43eiIvPiYjeGE7PC9nPiYjeGE7PC9zdmc+;" parent="1" vertex="1">
          <mxGeometry x="693.79" y="1170" width="32.98" height="30" as="geometry" />
        </mxCell>
        <mxCell id="HM-HWS3Q9hcDez5ZIT6Y-4" value="&lt;span style=&quot;&quot;&gt;+ poskytovanie údajov&amp;nbsp;&lt;/span&gt;&lt;div&gt;&lt;span style=&quot;&quot;&gt;pre RKO&lt;/span&gt;&lt;/div&gt;" style="html=1;outlineConnect=0;whiteSpace=wrap;fillColor=#007B28;shape=mxgraph.archimate3.application;appType=func;archiType=rounded;align=left;strokeColor=#000000;fontColor=#FFFFFF;spacing=4;" parent="1" vertex="1">
          <mxGeometry x="260" y="1955" width="150" height="50" as="geometry" />
        </mxCell>
        <mxCell id="HM-HWS3Q9hcDez5ZIT6Y-5" value="&lt;span style=&quot;&quot;&gt;+ vytvorenie&amp;nbsp;&lt;/span&gt;&lt;div&gt;&lt;span style=&quot;&quot;&gt;chýbajúcich registrov&lt;/span&gt;&lt;/div&gt;" style="html=1;outlineConnect=0;whiteSpace=wrap;fillColor=#007B28;shape=mxgraph.archimate3.application;appType=func;archiType=rounded;align=left;strokeColor=#000000;fontColor=#FFFFFF;spacing=4;" parent="1" vertex="1">
          <mxGeometry x="430" y="1955" width="150" height="50" as="geometry" />
        </mxCell>
        <mxCell id="v1EW0JT8d4S7AqYUZW40-5" value="" style="shape=image;verticalLabelPosition=bottom;labelBackgroundColor=default;verticalAlign=top;aspect=fixed;imageAspect=0;editableCssRules=.*;image=data:image/svg+xml,PHN2ZyB4bWxuczp4bGluaz0iaHR0cDovL3d3dy53My5vcmcvMTk5OS94bGluayIgeG1sbnM9Imh0dHA6Ly93d3cudzMub3JnLzIwMDAvc3ZnIiB4bWw6c3BhY2U9InByZXNlcnZlIiBzdHlsZT0iZW5hYmxlLWJhY2tncm91bmQ6bmV3IDAgMCAyNTUgMjU1OyIgdmlld0JveD0iMzAuNDk5OTk4MDkyNjUxMzY3IDYwLjQwMDAwMTUyNTg3ODkwNiAxOTMuOTAxMzY3MTg3NSAxMzMuNDAwMDI0NDE0MDYyNSIgeT0iMHB4IiB4PSIwcHgiIGlkPSJMYXllcl8xIiB2ZXJzaW9uPSIxLjEiIHdpZHRoPSIxOTMuOTAxMzY3MTg3NSIgaGVpZ2h0PSIxMzMuNDAwMDI0NDE0MDYyNSI+JiN4YTs8Zz4mI3hhOwk8cGF0aCBkPSJNMTcxLDEwMS44SDQyLjZjLTYuNywwLTEyLjEsNS40LTEyLjEsMTIuMXY2Ny44YzAsNi43LDUuNCwxMi4xLDEyLjEsMTIuMUgxNzFjNi43LDAsMTIuMS01LjQsMTIuMS0xMi4xdi02Ny44JiMxMDsmIzk7JiM5O0MxODMuMSwxMDcuMiwxNzcuNiwxMDEuOCwxNzEsMTAxLjh6IE0xNDkuNCwxODMuN0g2NC4xYy0xLjMtMTEuNi0xMS4yLTIwLjctMjMtMjAuN2MtMC4yLDAtMC40LDAtMC42LDAuMXYtMzAuOCYjMTA7JiM5OyYjOTtjMC4yLDAsMC40LDAuMSwwLjYsMC4xYzExLjksMCwyMS43LTksMjMtMjAuNmg4NS4zYzEuMywxMS42LDExLjIsMjAuNiwyMywyMC42YzAuMiwwLDAuNCwwLDAuNi0wLjF2MzAuOGMtMC4yLDAtMC40LTAuMS0wLjYtMC4xJiMxMDsmIzk7JiM5O0MxNjAuNywxNjMuMSwxNTAuNywxNzIuMSwxNDkuNCwxODMuN3ogTTE3My4xLDExMy45djguNmMtMC4yLDAtMC40LTAuMS0wLjYtMC4xYy02LjMsMC0xMS43LTQuNi0xMi45LTEwLjZIMTcxJiMxMDsmIzk7JiM5O0MxNzIuMSwxMTEuOCwxNzMuMSwxMTIuNywxNzMuMSwxMTMuOXogTTQyLjYsMTExLjhoMTEuNGMtMS4yLDYuMS02LjUsMTAuNi0xMi45LDEwLjZjLTAuMiwwLTAuNCwwLTAuNiwwLjF2LTguNiYjMTA7JiM5OyYjOTtDNDAuNSwxMTIuNyw0MS41LDExMS44LDQyLjYsMTExLjh6IE00MC41LDE4MS43VjE3M2MwLjIsMCwwLjQsMC4xLDAuNiwwLjFjNi4zLDAsMTEuNyw0LjYsMTIuOSwxMC43SDQyLjYmIzEwOyYjOTsmIzk7QzQxLjUsMTgzLjcsNDAuNSwxODIuOCw0MC41LDE4MS43eiBNMTcxLDE4My43aC0xMS40YzEuMi02LjEsNi42LTEwLjYsMTIuOS0xMC42YzAuMiwwLDAuNCwwLDAuNi0wLjF2OC42JiMxMDsmIzk7JiM5O0MxNzMuMSwxODIuOCwxNzIuMSwxODMuNywxNzEsMTgzLjd6Ii8+JiN4YTsJPHBhdGggZD0iTTE5Miw4MC44SDU2LjVjLTIuOCwwLTUsMi4yLTUsNXMyLjIsNSw1LDVIMTkyYzEuMSwwLDIuMSwxLDIuMSwyLjF2NzQuOWMwLDIuOCwyLjIsNSw1LDVzNS0yLjIsNS01VjkyLjkmIzEwOyYjOTsmIzk7QzIwNCw4Ni4yLDE5OC42LDgwLjgsMTkyLDgwLjh6Ii8+JiN4YTsJPHBhdGggZD0iTTIxMi40LDYwLjRINzYuOWMtMi44LDAtNSwyLjItNSw1czIuMiw1LDUsNWgxMzUuNGMxLjEsMCwyLjEsMSwyLjEsMi4xdjc0LjljMCwyLjgsMi4yLDUsNSw1czUtMi4yLDUtNVY3Mi40JiMxMDsmIzk7JiM5O0MyMjQuNSw2NS44LDIxOS4xLDYwLjQsMjEyLjQsNjAuNHoiLz4mI3hhOwk8cGF0aCBkPSJNMTAxLjUsMTM4LjRjMC0zLDMuMi00LjIsNi00LjJjMS42LDAsMy4xLDAuNCw0LjUsMS4xYzEuNCwwLjcsMy4yLDAuMiw0LjEtMS4xYzEuMi0xLjcsMC42LTQtMS4zLTQuOSYjMTA7JiM5OyYjOTtjLTEuOC0wLjgtMy42LTEuMy01LjQtMS41di0yLjdjMC0xLjgtMS41LTMuMy0zLjMtMy4zaDBjLTEuOCwwLTMuMywxLjUtMy4zLDMuM3YzLjFjLTQuOCwxLjMtOC43LDUtOC43LDEwLjRjMCw0LjQsMi40LDcsNS41LDguOCYjMTA7JiM5OyYjOTtjNS4yLDMuMSwxMi40LDMuNywxMi40LDguN2MwLDIuOC0yLjMsNC45LTUuNyw0LjljLTIuNSwwLTUtMC45LTctMi4zYy0xLjQtMS0zLjItMC45LTQuNCwwLjRsLTAuMiwwLjJjLTEuNCwxLjUtMS4yLDMuOSwwLjYsNS4xJiMxMDsmIzk7JiM5O2MyLjMsMS41LDQuNywyLjUsNy4zLDN2Mi45YzAsMS44LDEuNSwzLjMsMy4zLDMuM2gwYzEuOCwwLDMuMy0xLjUsMy4zLTMuM3YtMi44YzUuNi0xLjEsMTAuMS01LjQsMTAuMS0xMS4zJiMxMDsmIzk7JiM5O0MxMTkuNCwxNDIuOCwxMDEuNSwxNDQuNywxMDEuNSwxMzguNHoiLz4mI3hhOzwvZz4mI3hhOzwvc3ZnPg==;" vertex="1" parent="1">
          <mxGeometry x="82" y="1867" width="34" height="23.33" as="geometry" />
        </mxCell>
        <mxCell id="v1EW0JT8d4S7AqYUZW40-7" value="" style="shape=image;verticalLabelPosition=bottom;labelBackgroundColor=default;verticalAlign=top;aspect=fixed;imageAspect=0;image=data:image/png,iVBORw0KGgoAAAANSUhEUgAACFUAAAhVCAYAAACx2Qd4AAAACXBIWXMAAC4jAAAuIwF4pT92AAAAGXRFWHRTb2Z0d2FyZQBBZG9iZSBJbWFnZVJlYWR5ccllPAAAacZJREFUeNrs3dFtG3UcwHG34j3dIJEs+7XZoGGDMkHDBIQNwgRkg4YJKBMQJqC8OrJUNoAJwlm1kApfKE1ics59PtLpXor91x0//R/uG9+Tm5ubGQAAAAAAAAAAH3rqEgAAAAAAAAAA/J2oAgAAAAAAAAAgiCoAAAAAAAAAAIKoAgAAAAAAAAAgiCoAAAAAAAAAAIKoAgAAAAAAAAAgiCoAAAAAAAAAAIKoAgAAAAAAAAAgiCoAAAAAAAAAAIKoAgAAAAAAAAAgiCoAAAAAAAAAAIKoAgAAAAAAAAAgiCoAAAAAAAAAAIKoAgAAAAAAAAAgiCoAAAAAAAAAAIKoAgAAAAAAAAAgiCoAAAAAAAAAAIKoAgAAAAAAAAAgiCoAAAAAAAAAAIKoAgAAAAAAAAAgiCoAAAAAAAAAAIKoAgAAAAAAAAAgiCoAAAAAAAAAAIKoAgAAAAAAAAAgiCoAAAAAAAAAAIKoAgAAAAAAAAAgiCoAAAAAAAAAAIKoAgAAAAAAAAAgiCoAAAAAAAAAAIKoAgAAAAAAAAAgiCoAAAAAAAAAAIKoAgAAAAAAAAAgiCoAAAAAAAAAAIKoAgAAAAAAAAAgiCoAAAAAAAAAAIKoAgAAAAAAAAAgiCoAAAAAAAAAAIKoAgAAAAAAAAAgiCoAAAAAAAAAAIKoAgAAAAAAAAAgiCoAAAAAAAAAAIKoAgAAAAAAAAAgiCoAAAAAAAAAAIKoAgAAAAAAAAAgiCoAAAAAAAAAAIKoAgAAAAAAAAAgiCoAAAAAAAAAAIKoAgAAAAAAAAAgiCoAAAAAAAAAAIKoAgAAAAAAAAAgiCoAAAAAAAAAAIKoAgAAAAAAAAAgiCoAAAAAAAAAAIKoAgAAAAAAAAAgiCoAAAAAAAAAAIKoAgAAAAAAAAAgiCoAAAAAAAAAAIKoAgAAAAAAAAAgiCoAAAAAAAAAAIKoAgAAAAAAAAAgiCoAAAAAAAAAAIKoAgAAAAAAAAAgiCoAAAAAAAAAAIKoAgAAAAAAAAAgiCoAAAAAAAAAAIKoAgAAAAAAAAAgiCoAAAAAAAAAAIKoAgAAAAAAAAAgiCoAAAAAAAAAAIKoAgAAAAAAAAAgiCoAAAAAAAAAAIKoAgAAAAAAAAAgiCoAAAAAAAAAAIKoAgAAAAAAAAAgiCoAAAAAAAAAAIKoAgAAAAAAAAAgiCoAAAAAAAAAAIKoAgAAAAAAAAAgiCoAAAAAAAAAAIKoAgAAAAAAAAAgiCoAAAAAAAAAAIKoAgAAAAAAAAAgiCoAAAAAAAAAAIKoAgAAAAAAAAAgiCoAAAAAAAAAAIKoAgAAAAAAAAAgiCoAAAAAAAAAAIKoAgAAAAAAAAAgiCoAAAAAAAAAAIKoAgAAAAAAAAAgiCoAAAAAAAAAAIKoAgAAAAAAAAAgiCoAAAAAAAAAAIKoAgAAAAAAAAAgiCoAAAAAAAAAAIKoAgAAAAAAAAAgiCoAAAAAAAAAAIKoAgAAAAAAAAAgiCoAAAAAAAAAAIKoAgAAAAAAAAAgiCoAAAAAAAAAAIKoAgAAAAAAAAAgiCoAAAAAAAAAAIKoAgAAAAAAAAAgiCoAAAAAAAAAAIKoAgAAAAAAAAAgiCoAAAAAAAAAAIKoAgAAAAAAAAAgiCoAAAAAAAAAAIKoAgAAAAAAAAAgiCoAAAAAAAAAAIKoAgAAAAAAAAAgiCoAAAAAAAAAAIKoAgAAAAAAAAAgiCoAAAAAAAAAAIKoAgAAAAAAAAAgiCoAAAAAAAAAAIKoAgAAAAAAAAAgiCoAAAAAAAAAAIKoAgAAAAAAAAAgiCoAAAAAAAAAAIKoAgAAAAAAAAAgiCoAAAAAAAAAAIKoAgAAAAAAAAAgiCoAAAAAAAAAAIKoAgAAAAAAAAAgiCoAAAAAAAAAAIKoAgAAAAAAAAAgiCoAAAAAAAAAAIKoAgAAAAAAAAAgiCoAAAAAAAAAAIKoAgAAAAAAAAAgiCoAAAAAAAAAAIKoAgAAAAAAAAAgiCoAAAAAAAAAAIKoAgAAAAAAAAAgiCoAAAAAAAAAAIKoAgAAAAAAAAAgiCoAAAAAAAAAAIKoAgAAAAAAAAAgiCoAAAAAAAAAAIKoAgAAAAAAAAAgiCoAAAAAAAAAAIKoAgAAAAAAAAAgiCoAAAAAAAAAAIKoAgAAAAAAAAAgiCoAAAAAAAAAAIKoAgAAAAAAAAAgiCoAAAAAAAAAAIKoAgAAAAAAAAAgiCoAAAAAAAAAAIKoAgAAAAAAAAAgiCoAAAAAAAAAAIKoAgAAAAAAAAAgiCoAAAAAAAAAAIKoAgAAAAAAAAAgiCoAAAAAAAAAAIKoAgAAAAAAAAAgiCoAAAAAAAAAAIKoAgAAAAAAAAAgiCoAAAAAAAAAAIKoAgAAAAAAAAAgiCoAAAAAAAAAAIKoAgAAAAAAAAAgiCoAAAAAAAAAAIKoAgAAAAAAAAAgiCoAAAAAAAAAAIKoAgAAAAAAAAAgiCoAAAAAAAAAAIKoAgAAAAAAAAAgiCoAAAAAAAAAAIKoAgAAAAAAAAAgiCoAAAAAAAAAAIKoAgAAAAAAAAAgiCoAAAAAAAAAAIKoAgAAAAAAAAAgiCoAAAAAAAAAAIKoAgAAAAAAAAAgiCoAAAAAAAAAAIKoAgAAAAAAAAAgiCoAAAAAAAAAAIKoAgAAAAAAAAAgiCoAAAAAAAAAAIKoAgAAAAAAAAAgiCoAAAAAAAAAAIKoAgAAAAAAAAAgiCoAAAAAAAAAAIKoAgAAAAAAAAAgiCoAAAAAAAAAAIKoAgAAAAAAAAAgiCoAAAAAAAAAAIKoAgAAAAAAAAAgiCoAAAAAAAAAAIKoAgAAAAAAAAAgiCoAAAAAAAAAAIKoAgAAAAAAAAAgiCoAAAAAAAAAAIKoAgAAAAAAAAAgiCoAAAAAAAAAAIKoAgAAAAAAAAAgiCoAAAAAAAAAAIKoAgAAAAAAAAAgiCoAAAAAAAAAAIKoAgAAAAAAAAAgiCoAAAAAAAAAAIKoAgAAAAAAAAAgiCoAAAAAAAAAAIKoAgAAAAAAAAAgiCoAAAAAAAAAAIKoAgAAAAAAAAAgiCoAAAAAAAAAAIKoAgAAAAAAAAAgiCoAAAAAAAAAAIKoAgAAAAAAAAAgiCoAAAAAAAAAAIKoAgAAAAAAAAAgiCoAAAAAAAAAAIKoAgAAAAAAAAAgiCoAAAAAAAAAAIKoAgAAAAAAAAAgiCoAAAAAAAAAAIKoAgAAAAAAAAAgiCoAAAAAAAAAAIKoAgAAAAAAAAAgiCoAAAAAAAAAAIKoAgAAAAAAAAAgiCoAAAAAAAAAAIKoAgAAAAAAAAAgiCoAAAAAAAAAAIKoAgAAAAAAAAAgiCoAAAAAAAAAAIKoAgAAAAAAAAAgiCoAAAAAAAAAAIKoAgAAAAAAAAAgiCoAAAAAAAAAAIKoAgAAAAAAAAAgiCoAAAAAAAAAAIKoAgAAAAAAAAAgiCoAAAAAAAAAAIKoAgAAAAAAAAAgiCoAAAAAAAAAAIKoAgAAAAAAAAAgiCoAAAAAAAAAAIKoAgAAAAAAAAAgiCoAAAAAAAAAAIKoAgAAAAAAAAAgiCoAAAAAAAAAAIKoAgAAAAAAAAAgiCoAAAAAAAAAAIKoAgAAAAAAAAAgiCoAAAAAAAAAAIKoAgAAAAAAAAAgiCoAAAAAAAAAAIKoAgAAAAAAAAAgiCoAAAAAAAAAAIKoAgAAAAAAAAAgiCoAAAAAAAAAAIKoAgAAAAAAAAAgiCoAAAAAAAAAAIKoAgAAAAAAAAAgiCoAAAAAAAAAAIKoAgAAAAAAAAAgiCoAAAAAAAAAAIKoAgAAAAAAAAAgiCoAAAAAAAAAAIKoAgAAAAAAAAAgiCoAAAAAAAAAAIKoAgAAAAAAAAAgiCoAAAAAAAAAAIKoAgAAAAAAAAAgiCoAAAAAAAAAAIKoAgAAAAAAAAAgiCoAAAAAAAAAAIKoAgAAAAAAAAAgiCoAAAAAAAAAAIKoAgAAAAAAAAAgiCoAAAAAAAAAAIKoAgAAAAAAAAAgiCoAAAAAAAAAAIKoAgAAAAAAAAAgiCoAAAAAAAAAAIKoAgAAAAAAAAAgiCoAAAAAAAAAAIKoAgAAAAAAAAAgiCoAAAAAAAAAAIKoAgAAAAAAAAAgiCoAAAAAAAAAAIKoAgAAAAAAAAAgiCoAAAAAAAAAAIKoAgAAAAAAAAAgiCoAAAAAAAAAAIKoAgAAAAAAAAAgiCoAAAAAAAAAAIKoAgAAAAAAAAAgiCoAAAAAAAAAAIKoAgAAAAAAAAAgiCoAAAAAAAAAAIKoAgAAAAAAAAAgiCoAAAAAAAAAAIKoAgAAAAAAAAAgiCoAAAAAAAAAAIKoAgAAAAAAAAAgiCoAAAAAAAAAAIKoAgAAAAAAAAAgiCoAAAAAAAAAAIKoAgAAAAAAAAAgiCoAAAAAAAAAAIKoAgAAAAAAAAAgiCoAAAAAAAAAAIKoAgAAAAAAAAAgiCoAAAAAAAAAAIKoAgAAAAAAAAAgiCoAAAAAAAAAAIKoAgAAAAAAAAAgiCoAAAAAAAAAAIKoAgAAAAAAAAAgiCoAAAAAAAAAAIKoAgAAAAAAAAAgiCoAAAAAAAAAAIKoAgAAAAAAAAAgiCoAAAAAAAAAAIKoAgAAAAAAAAAgiCoAAAAAAAAAAIKoAgAAAAAAAAAgiCoAAAAAAAAAAIKoAgAAAAAAAAAgiCoAAAAAAAAAAIKoAgAAAAAAAAAgiCoAAAAAAAAAAIKoAgAAAAAAAAAgiCoAAAAAAAAAAIKoAgAAAAAAAAAgiCoAAAAAAAAAAIKoAgAAAAAAAAAgiCoAAAAAAAAAAIKoAgAAAAAAAAAgiCoAAAAAAAAAAIKoAgAAAAAAAAAgiCoAAAAAAAAAAIKoAgAAAAAAAAAgiCoAAAAAAAAAAIKoAgAAAAAAAAAgiCoAAAAAAAAAAIKoAgAAAAAAAAAgiCoAAAAAAAAAAIKoAgAAAAAAAAAgiCoAAAAAAAAAAIKoAgAAAAAAAAAgiCoAAAAAAAAAAIKoAgAAAAAAAAAgiCoAAAAAAAAAAIKoAgAAAAAAAAAgiCoAAAAAAAAAAIKoAgAAAAAAAAAgiCoAAAAAAAAAAIKoAgAAAAAAAAAgiCoAAAAAAAAAAIKoAgAAAAAAAAAgiCoAAAAAAAAAAIKoAgAAAAAAAAAgiCoAAAAAAAAAAIKoAgAAAAAAAAAgiCoAAAAAAAAAAIKoAgAAAAAAAAAgiCoAAAAAAAAAAIKoAgAAAAAAAAAgiCoAAAAAAAAAAIKoAgAAAAAAAAAgiCoAAAAAAAAAAIKoAgAAAAAAAAAgiCoAAAAAAAAAAIKoAgAAAAAAAAAgiCoAAAAAAAAAAIKoAgAAAAAAAAAgiCoAAAAAAAAAAIKoAgAAAAAAAAAgiCoAAAAAAAAAAIKoAgAAAAAAAAAgiCoAAAAAAAAAAIKoAgAAAAAAAAAgiCoAAAAAAAAAAIKoAgAAAAAAAAAgiCoAAAAAAAAAAIKoAgAAAAAAAAAgiCoAAAAAAAAAAIKoAgAAAAAAAAAgiCoAAAAAAAAAAIKoAgAAAAAAAAAgiCoAAAAAAAAAAIKoAgAAAAAAAAAgiCoAAAAAAAAAAIKoAgAAAAAAAAAgiCoAAAAAAAAAAIKoAgAAAAAAAAAgiCoAAAAAAAAAAIKoAgAAAAAAAAAgiCoAAAAAAAAAAIKoAgAAAAAAAAAgiCoAAAAAAAAAAIKoAgAAAAAAAAAgiCoAAAAAAAAAAIKoAgAAAAAAAAAgiCoAAAAAAAAAAIKoAgAAAAAAAAAgiCoAAAAAAAAAAIKoAgAAAAAAAAAgiCoAAAAAAAAAAIKoAgAAAAAAAAAgiCoAAAAAAAAAAIKoAgAAAAAAAAAgiCoAAAAAAAAAAIKoAgAAAAAAAAAgiCoAAAAAAAAAAIKoAgAAAAAAAAAgiCoAAAAAAAAAAIKoAgAAAAAAAAAgiCoAAAAAAAAAAIKoAgAAAAAAAAAgiCoAAAAAAAAAAIKoAgAAAAAAAAAgiCoAAAAAAAAAAIKoAgAAAAAAAAAgiCoAAAAAAAAAAIKoAgAAAAAAAAAgfOYSAAAAfNxyMT8eTpvjaDhO4p+8HY7fhuNqdb2+csXgP8/VZp6e/ctcvduczRXYrwAAAB7Ck5ubG1cBAAAgLBfzo+F0Nhwvh+PwE//zH4bjcnW9fuNKwgdztXnYe3qLufp9ON5s5+rKlYR72a82c3VlvwIAAPhnogoAAIC/2D70vRiOF/fwcb8Ox/nqen3pyjLxuTrZzIK5AnMFAACwT0QVAAAAW8vFfPMKgvPh+GoHH//LcJyurtdvXWkmOFebSOnVDj7+p+1cvXOlsV/ZrwAAAHZBVAEAADD789cpNj99frjjr/p6db2+cMWZ0FxdDcfBDr9m8/qCM39dj/3KfgUAALALT10CAABg6paL+ens/YPfw//h674dvu/SVWcic/XzbLdBxWz7+a/NFfYr+xUAAMAu+KUKAABg0rYPqF4/wFd/t7pen7oDmCtzBeYKAABgvEQVAADAZC0X85Ph9OMDLsGDKh7jXL0cTt8/4BK+Gebq3J3AfmW/AgAAuA+iCgAAYJKWi/nRcHo72/2rCT7my9X1+tId4ZHM1fHs/asJHnquvhjm6o07gv3KfgUAAHBXT10CAABgoi5nD/+AauNi+8AMzNU9rmOYq2duB+bKfgUAAHBXogoAAGBytu+lfzGS5WwelF26KzyCuTobTs9HNFcX7gr2K/sVAADAXXn9BwAAMDnLxfzdcDoc2bI+X12vr9wd9nSmNr8KsZmrA3MF9isAAIDHxC9VAAAAk7L9q9/DES7t3N1hj21+peJghOs6dWuwX9mvAAAA7kJUAQAATM3ZSNf1wrvq2WOnI13XK3OF/cp+BQAAcBeiCgAAYDKWi/nxcHo+4iWeuUvs6VwdjniJL90l7Ff2KwAAgNsSVQAAAFNyYn1w705Hvj5RBfto7P/f2q8AAIDJEFUAAABTMvaHVM+Xi/kzt4k9czzy9b1wi9hDJ/YrAACAcRBVAAAAU3JsjXDvRh8tbF+lAPYr+xUAAMAnE1UAAABTcrAHa/SQir2xXMyP9mSp/qIe+5X9CgAA4FZEFQAAwCQsF/OTPVmqh7/sk6M9WeeJW4X9yn4FAABwG6IKAAAAAAAAAIAgqgAAAAAAAAAACKIKAAAAAAAAAIAgqgAAAAAAAAAACKIKAAAAAAAAAIAgqgAAAAAAAAAACKIKAAAAAAAAAIAgqgAAAAAAAAAACKIKAAAAAAAAAIAgqgAAAAAAAAAACKIKAAAAAAAAAIAgqgAAAAAAAAAACKIKAAAAAAAAAIAgqgAAAAAAAAAACKIKAAAAAAAAAIAgqgAAAAAAAAAACKIKAAAAAAAAAIAgqgAAAAAAAAAACKIKAAAAAAAAAIAgqgAAAAAAAAAACKIKAAAAAAAAAIAgqgAAAAAAAAAACKIKAAAAAAAAAIAgqgAAAAAAAAAACKIKAAAAAAAAAIAgqgAAAAAAAAAACKIKAAAAAAAAAIAgqgAAAAAAAAAACKIKAAAAAAAAAIAgqgAAAP5g745u27jSMAxPDF8uYG0F0oIgbyVgCzBTgbUVmKnA2grMdKAOQnegDpauYJVbEsRKHVgVaM9AY8BAvs3G4aE0M3we4GB8GfwBcTScl2cAAAAAAAhEFQAAAAAAAAAAgagCAAAAAAAAACAQVQAAAAAAAAAABKIKAAAAAAAAAIBAVAEAAAAAAAAAEIgqAAAAAAAAAAACUQUAAAAAAAAAQCCqAAAAAAAAAAAIRBUAAAAAAAAAAIGoAgAAAAAAAAAgEFUAAAAAAAAAAASiCgAAAAAAAACAQFQBAAAAAAAAABCIKgAAAAAAAAAAAlEFAAAAAAAAAEAgqgAAAAAAAAAACEQVAAAAAAAAAACBqAIAAAAAAAAAIBBVAAAAAAAAAAAEogoAAAAAAAAAgEBUAQAAAAAAAAAQiCoAAAAAAAAAAAJRBQAAAAAAAABAIKoAAAAAAAAAAAhEFQAAAAAAAAAAgagCAAAAAAAAACAQVQAAAAAAAAAABKIKAAAAAAAAAIBAVAEAAAAAAAAAEIgqAAAAAAAAAAACUQUAAAAAAAAAQCCqAAAAAAAAAAAIRBUAAAAAAAAAAIGoAgAAAAAAAAAgEFUAAAAAAAAAAASiCgAAAAAAAACAQFQBAAAAAAAAABCIKgAAAAAAAAAAAlEFAAAAAAAAAEAgqgAAAAAAAAAACEQVAAAAAAAAAACBqAIAAAAAAAAAIBBVAAAAAAAAAAAEogoAAAAAAAAAgEBUAQAAAAAAAAAQiCoAAAAAAAAAAAJRBQAAAAAAAABAIKoAAAAAAAAAAAhEFQAAAAAAAAAAgagCAAAAAAAAACAQVQAAAAAAAAAABKIKAAAAAAAAAIBAVAEAAAAAAAAAEIgqAAAAAAAAAAACUQUAAAAAAAAAQCCqAAAAAAAAAAAIRBUAAAAAAAAAAIGoAgAAAAAAAAAgEFUAAAAAAAAAAASiCgAAAAAAAACAQFQBAAAAAAAAABCIKgAAAAAAAAAAAlEFAAAAAAAAAEAgqgAAAAAAAAAACEQVAAAAAAAAAACBqAIAAAAAAAAAIBBVAAAAAAAAAAAEogoAAAAAAAAAgEBUAQAAAAAAAAAQiCoAAAAAAAAAAAJRBQAAAAAAAABAIKoAAAAAAAAAAAhEFQAAAAAAAAAAgagCAAAAAAAAACAQVQAAAAAAAAAABKIKAAAAAAAAAIBAVAEAAAAAAAAAEIgqAAAAAAAAAAACUQUAAAAAAAAAQCCqAAAAAAAAAAAIRBUAAAAAAAAAAIGoAgAAAAAAAAAgEFUAAAAAAAAAAASiCgAAAAAAAACAQFQBAAAAAAAAABCIKgAAAAAAAAAAAlEFAAAAAAAAAEAgqgAAAAAAAAAACEQVAAAAAAAAAACBqAIAAAAAAAAAIBBVAAAAAAAAAAAEogoAAAAAAAAAgEBUAQAAAAAAAAAQiCoAAAAAAAAAAAJRBQAAAAAAAABAIKoAAAAAAAAAAAhEFQAAAAAAAAAAgagCAAAAAAAAACAQVQAAAAAAAAAABKIKAAAAAAAAAIBAVAEAAAAAAAAAEIgqAAAAAAAAAAACUQUAAAAAAAAAQCCqAAAAAAAAAAAIRBUAAAAAAAAAAIGoAgAAAAAAAAAgEFUAAAAAAAAAAASiCgAAAAAAAACAQFQBAAAAAAAAABCIKgAAAAAAAAAAAlEFAAAAAAAAAEAgqgAAAAAAAAAACEQVAAAAAAAAAACBqAIAAAAAAAAAIBBVAAAAAAAAAAAEogoAAAAAAAAAgEBUAQAAAAAAAAAQiCoAAAAAAAAAAAJRBQAAAAAAAABAIKoAAAAAAAAAAAhEFQAAAAAAAAAAgagCAAAAAAAAACAQVQAAAAAAAAAABKIKAAAAAAAAAIBAVAEAAAAAAAAAEIgqAAAAAAAAAAACUQUAAAAAAAAAQCCqAAAAAAAAAAAIRBUAAAAAAAAAAIGoAgAAAAAAAAAgEFUAAAAAAAAAAASiCgAAAAAAAACAQFQBAAAAAAAAABCIKgAAAAAAAAAAAlEFAAAAAAAAAEAgqgAAAAAAAAAACEQVAAAAAAAAAACBqAIAAAAAAAAAIBBVAAAAAAAAAAAEogoAAAAAAAAAgEBUAQAAAAAAAAAQiCoAAAAAAAAAAAJRBQAAAAAAAABAIKoAAAAAAAAAAAhEFQAAAAAAAAAAgagCAAAAAAAAACAQVQAAAAAAAAAABKIKAAAAAAAAAIBAVAEAAAAAAAAAEIgqAAAAAAAAAAACUQUAAAAAAAAAQCCqAAAAAAAAAAAIRBUAAAAAAAAAAIGoAgAAAAAAAAAgEFUAAAAAAAAAAASiCgAAAAAAAACAQFQBAAAAAAAAABCIKgAAAAAAAAAAAlEFAAAAAAAAAEAgqgAAAAAAAAAACEQVAAAAAAAAAACBqAIAAAAAAAAAIBBVAAAAAAAAAAAEogoAAAAAAAAAgEBUAQAAAAAAAAAQiCoAAAAAAAAAAAJRBQAAAAAAAABAIKoAAAAAAAAAAAhEFQAAAAAAAAAAgagCAAAAAAAAACAQVQAAAAAAAAAABKIKAAAAAAAAAIBAVAEAAAAAAAAAEIgqAAAAAAAAAAACUQUAAAAAAAAAQCCqAAAAAAAAAAAIRBUAAAAAAAAAAIGoAgAAAAAAAAAgEFUAAAAAAAAAAASiCgAAAAAAAACAQFQBAAAAAAAAABCIKgAAAAAAAAAAAlEFAAAAAAAAAEAgqgAAAAAAAAAACEQVAAAAAAAAAADBayMAAKAPZtPJRbmcmAQHdDGQ/86z8nmY+9+Fz5XPFT5XPlccu812tzYFAABe2g+Pj4+mAADAs+siikVZ87LOTQQAAAh+LWvdrs12d2McAAA8N1EFAADPajadLMrlqhFSAAAA3+e+rFVZ15vt7otxAADwHEQVAAA8i9l0clku12WdmgYAALCHh7KWm+3u2igAADg0UQUAAAc1m05Omqdfk70zDQAAoKL21SCXm+3uzigAADiUV0YAAMChzKaTi3K5bQQVAABAfe0rBW+7U/EAAOAgnFQBAMBBdEHFuqw3pgEAABzYT5vtbmUMAADU5qQKAACqE1QAAADP7JdyH7IwBgAAanNSBQAAVc2mk5Pm6ZUfp6YBAAA8o4ey5pvt7tYoAACoxUkVAADUtmoEFQAAwPNrT8pbdaE3AABUIaoAAKCa2XRyWS7vTAIAAHgh52VdGQMAALV4/QcAANXMppO7xikVAADAy/vbZru7MwYAAPblpAoAAKqYTSeLRlABAAD0w9IIAACowUkVAABU4ZQKAACgZ/662e6+GAMAAPtwUgUAAHubTScXjaACAADol4URAACwL1EFAAA1LIwAAABwnwIAwNiIKgAAqGFuBAAAQM+cz6aTE2MAAGAfogoAAPbSfUl5bhIAAEAPXRgBAAD7EFUAALAvX1ICAADuVwAAGCVRBQAAAAAAY+X1HwAA7EVUAQDAvuZGAAAA9JSoAgCAvYgqAAAAAAAYK6//AABgL6IKAAAAAAAAAIBAVAEAAAAAAAAAEIgqAAAAAAAAAAACUQUAAAAAAAAAQCCqAAAAAAAAAAAIRBUAAAAAAAAAAIGoAgAAAAAAAAAgEFUAAAAAAAAAAASiCgAAAAAAAACAQFQBAAAAAAAAABCIKgAAAAAAAAAAAlEFAAAAAAAAAEAgqgAAAAAAAAAACEQVAAAAAAAAAACBqAIAAAAAAAAAIBBVAAAAAAAAAAAEogoAAAAAAAAAgEBUAQAAAAAAAAAQiCoAAAAAAAAAAAJRBQAAAAAAAABA8NoIAAA4Ep/KujMGAACo5qMRAAAwdqIKAACOxWqz3a2NAQAA6phNJ6IKAABGz+s/AAAAAAAAAAACUQUAAAAAAAAAQCCqAAAAAAAAAAAIRBUAAAAAAAAAAIGoAgAAAAAAAAAgEFUAAAAAAAAAAASiCgAAAAAAAACAQFQBAAAAAAAAABCIKgAAAAAAAAAAAlEFAAAAAAAAAEAgqgAAAAAAAAAACEQVAAAAAAAAAACBqAIAAAAAAAAAIBBVAAAAAAAAAAAEogoAAAAAAAAAgEBUAQAAAAAAAAAQiCoAAAAAAAAAAAJRBQAAAAAAAABAIKoAAAAAAAAAAAhEFQAAAAAAAAAAgagCAAAAAAAAACAQVQAAAAAAAAAABKIKAAAAAAAAAIBAVAEAAAAAAAAAEIgqAAAAAAAAAAACUQUAAAAAAAAAQCCqAAAAAAAAAAAIRBUAAAAAAAAAAIGoAgAAAAAAAAAgEFUAAAAAAAAAAASiCgAAAAAAAACAQFQBAAAAAAAAABCIKgAAAAAAAAAAAlEFAAAAAAAAAEAgqgAAAAAAAAAACEQVAAAAAAAAAACBqAIAAAAAAAAAIBBVAAAAAAAAAAAEogoAAAAAAAAAgEBUAQAAAAAAAAAQiCoAAAAAAAAAAAJRBQAAAAAAAABAIKoAAAAAAAAAAAhEFQAAAAAAAAAAgagCAAAAAAAAACAQVQAAAAAAAAAABKIKAAAAAAAAAIBAVAEAAAAAAAAAEIgqAAAAAAAAAAACUQUAAAAAAAAAQCCqAAAAAAAAAAAIRBUAAAAAAAAAAIGoAgAAAAAAAAAgEFUAAAAAAAAAAASiCgAAAAAAAACAQFQBAAAAAAAAABCIKgAAAAAAAAAAAlEFAAAAAAAAAEAgqgAAAAAAAAAACEQVAAAAAAAAAACBqAIAAAAAAAAAIBBVAAAAAAAAAAAEogoAAAAAAAAAgEBUAQAAAAAAAAAQiCoAAAAAAAAAAAJRBQAAAAAAAABAIKoAAAAAAAAAAAhEFQAAAAAAAAAAgagCAAAAAAAAACAQVQAAAAAAAAAABKIKAAAAAAAAAIBAVAEAAAAAAAAAEIgqAAAAAAAAAAACUQUAAAAAAAAAQCCqAAAAAAAAAAAIRBUAAAAAAAAAAIGoAgAAAAAAAAAgEFUAAAAAAAAAAASiCgAAAAAAAACAQFQBAAAAAAAAABCIKgAAAAAAAAAAAlEFAAAAAAAAAEAgqgAAAAAAAAAACEQVAAAAAAAAAACBqAIAAAAAAAAAIBBVAAAAAAAAAAAEogoAAAAAAAAAgEBUAQAAAAAAAAAQiCoAAAAAAAAAAAJRBQAAAAAAAABAIKoAAAAAAAAAAAhEFQAAAAAAAAAAgagCAAAAAAAAACAQVQAAAAAAAAAABKIKAAAAAAAAAIBAVAEAAAAAAAAAEIgqAAAAAAAAAAACUQUAAAAAAAAAQCCqAAAAAAAAAAAIRBUAAAAAAAAAAIGoAgAAAAAAAAAgEFUAAAAAAAAAAASiCgAAAAAAAACAQFQBAAAAAAAAABCIKgAAAAAAAAAAAlEFAAAAAAAAAEAgqgAAAAAAAAAACEQVAAAAAAAAAACBqAIAAAAAAAAAIBBVAAAAAAAAAAAEogoAAAAAAAAAgEBUAQAAAAAAAAAQiCoAAAAAAAAAAAJRBQAAAAAAAABAIKoAAAAAAAAAAAhEFQAAAAAAAAAAgagCAAAAAAAAACAQVQAAAAAAAAAABKIKAAAAAAAAAIBAVAEAAAAAAAAAEIgqAAAAAAAAAAACUQUAAAAAAAAAQCCqAAAAAAAAAAAIRBUAAAAAAAAAAIGoAgAAAAAAAAAgEFUAAAAAAAAAAASiCgAAAAAAAACA4LURAHAsZtPJRbmcmARUd2YEHOm+0u4pFyYBwEDcbba7O2PgCP2l/N02NwY4iNuyt3wxBgDGTlQBwOjMppOzcpl3q33YdW4qAOy5t7T7yeU3e8sbUwFggPvZ139+Luu2rHW7PBBj5P5e1r+MAQ66tzx8s6/clH3l1mQAGJMfHh8fTQGAsdzEtQ+7FmW9Mw0g+HGz3a2Nge/YV9qTKK66veXURAAYsU9lrfytxJ/4e8mXy0ByX9Z1t7cI9wAYPFEFAIPXHeO5ajzwAn6fqII/uq98jSna5UQKAI5Je4LFwmtC+I6/m3y5DPye9gSL67KvLI0CgCF7ZQQADFX70Kusm+bpGE9BBQA19pZ583Rs7cdGUAHA8Xlb1n/Kfrg0CgAqaO+pPpZ95bZ7pSIADJKoAoBB6m7E2odeXvUBQK29ZdkI9QCg9fUB2IlRAFDBeVn/LvvKwigAGCJRBQCD0wUV68ZDLwDq7S2r5ul0CgDgSfsAzC+LAajpl7KvXBsDAEMjqgBgUL4JKhzJDkCtvWVVLu9NAgB+ow3Z106sAKCiD8IKAIZGVAHAYJQbrrNGUAFA3b2l/TJPUAEA/1t7/yWsAKCmD14FAsCQiCoAGJKbRlABQCWz6eSyXD6YBAD8X+2rQPyqGICarr1iCoChEFUAMAjlJmvZPH2RBwA19pX217YrkwCAP+x9FyQCQA1v3JMBMBSiCgB6r3vtx0eTAKCiZeP0IwD4Xk6rAKCm89l0cmUMAPSdqAKAIVgaAQC1dLGe134AwPc7LfvowhgAqGjZnSQIAL0lqgCg17qbqvcmAUBFfgkFAH/e0ggAqKg9QdDrpQDoNVEFAH23MAIA7C0A0BvtaRUefgFQk/AdgF4TVQDQdwsjAKCW7iHQG5MAgL2IKgCo6bx7TSMA9JKoAoDe6l79cW4SAFQ0NwIAsJ8C0DuCPQB6S1QBQJ/NjQCAyi6MAAD2duoXxQC4VwPgWIgqAHAzBcAxeWsEAFDFmREAYF8B4BiIKgDosxMjAKCW7rVSAEAdcyMAoCIBPAC9JaoAoM+cVAGAfQUAAAAAeDGiCgAAAAAAAACAQFQBAAAAAAAAABCIKgDosy9GAAAAAAAAwEsRVQDQZ7dGAAAAAACjd28EAPSVqAKAPnNSBQAAAACM350RANBXogoA+mxtBAAAAAAwemsjAKCvRBUA9NZmu2tf//FgEgAAAAAwamsjAKCvRBUA9N2NEQAAAADAaD1stru1MQDQV6IKAPpuZQQAAAAAMFp+VAVAr4kqAOi1rlK/NwkAAAAAGKWlEQDQZ6IKANxYAQAAAAAv4dNmu7szBgD6TFQBQO+VG6tVuXw2CQAAAAAYlaURANB3ogoAhuLKCAAAAABgNH52SgUAQyCqAGAQyg3Wbbn80yQAAAAAYPA+b7a7pTEAMASiCgAGo9xoXZfLJ5MAAAAAgMH6taxLYwBgKEQVAAzKZrtbNMIKAAAAABii+7Lmm+3ui1EAMBSiCgAGR1gBAAAAAIPTnlBxIagAYGhEFQAMUhdW/FTWg2kAAAAAQK+1P5ByQgUAgySqAGCwyk3YqlwuyvpsGgAAAADQO+3rPv7R/kBKUAHAUIkqABi0cjN2V9a8/PPHRlwBAAAAAH3QxhQ/N0+v+7gxDgCG7LURADAG5eZsXS7z2XTSnlyxKOuyrFOTAQAAAIBn0b6md13WSkgBwJiIKgAYlXLDdlsuV+2aTSdn5dquucnAQbWfsbfGANW0Jy+tjQHgaLX3MO+NAappfy2/MgY4qLuybrvv5QBgdEQVAIxW+2qQ7qZubRpwOLPpZNmIKqCmddnDlsYAcLR/W80bUQXUdOdvKwAA9vHKCAAAAAAAAAAAfktUAQAAAAAAAAAQiCoAAAAAAAAAAAJRBQAAAAAAAABAIKoAAAAAAAAAAAhEFQAAAAAAAAAAgagCAAAAAAAAACAQVQAAAAAAAAAABKIKAAAAAAAAAIBAVAEAAAAAAAAAEIgqAAAAAAAAAAACUQUAAAAAAAAAQCCqAAAAAAAAAAAIRBUAAAAAAAAAAIGoAgAAAAAAAAAgEFUAAAAAAAAAAASiCgAAAAAAAACAQFQBAAAAAAAAABCIKgAAAAAAAAAAAlEFAAAAAAAAAEAgqgAAAAAAAAAACEQVAAAAAAAAAACBqAIAAAAAAAAAIBBVAAAAAAAAAAAEogoAAAAAAAAAgEBUAQAAAAAAAAAQiCoAAAAAAAAAAAJRBQAAAAAAAABAIKoAAAAAAAAAAAhEFQAAAAAAAAAAgagCAAAAAAAAACAQVQAAAAAAAAAABKIKAAAAAAAAAIBAVAEAAAAAAAAAEIgqAAAAAAAAAAACUQUAAAAAAAAAQCCqAAAAAAAAAAAIRBUAAAAAAAAAAIGoAgAAAAAAAAAgEFUAAAAAAAAAAASiCgAAAAAAAACAQFQBAAAAAAAAABCIKgAAAAAAAAAAAlEFAAAAAAAAAEAgqgAAAAAAAAAACEQVAAAAAAAAAACBqAIAAAAAAAAAIBBVAAAAAAAAAAAEogoAAAAAAAAAgEBUAQAAAAAAAAAQiCoAAAAAAAAAAAJRBQAAAAAAAABAIKoAAAAAAAAAAAhEFQAAAAAAAAAAgagCAAAAAAAAACAQVQAAAAAAAAAABKIKAAAAAAAAAIBAVAEAAAAAAAAAEIgqAAAAAAAAAAACUQUAAAAAAAAAQCCqAAAAAAAAAAAIRBUAAAAAAAAAAIGoAgAAAAAAAAAgEFUAAAAAAAAAAASiCgD4L7t2IAAAAAAgyN96gRGKIwAAAAAAABhSBQAAAAAAAADAkCoAAAAAAAAAAIZUAQAAAAAAAAAwpAoAAAAAAAAAgCFVAAAAAAAAAAAMqQIAAAAAAAAAYEgVAAAAAAAAAABDqgAAAAAAAAAAGFIFAAAAAAAAAMCQKgAAAAAAAAAAhlQBAAAAAAAAADCkCgAAAAAAAACAIVUAAAAAAAAAAAypAgAAAAAAAABgSBUAAAAAAAAAAEOqAAAAAAAAAAAYUgUAAAAAAAAAwJAqAAAAAAAAAACGVAEAAAAAAAAAMKQKAAAAAAAAAIAhVQAAAAAAAAAADKkCAAAAAAAAAGBIFQAAAAAAAAAAQ6oAAAAAAAAAABhSBQAAAAAAAADAkCoAAAAAAAAAAIZUAQAAAAAAAAAwpAoAAAAAAAAAgCFVAAAAAAAAAAAMqQIAAAAAAAAAYEgVAAAAAAAAAABDqgAAAAAAAAAAGFIFAAAAAAAAAMCQKgAAAAAAAAAAhlQBAAAAAAAAADCkCgAAAAAAAACAIVUAAAAAAAAAAAypAgAAAAAAAABgSBUAAAAAAAAAAEOqAAAAAAAAAAAYUgUAAAAAAAAAwJAqAAAAAAAAAACGVAEAAAAAAAAAMBJAAPbu6LaNI4/j+J7hd7sD80CQr9JVYKaCcyowXUF0FZipIEoFliuIUoHpDuRXEsRRHUgV5GZPm4OB/O4usVfRzOrzAQarR+NvCKshvzsrqgAAAAAAAAAACEQVAAAAAAAAAACBqAIAAAAAAAAAIBBVAAAAAAAAAAAEogoAAAAAAAAAgEBUAQAAAAAAAAAQiCoAAAAAAAAAAAJRBQAAAAAAAABAIKoAAAAAAAAAAAhEFQAAAAAAAAAAgagCAAAAAAAAACAQVQAAAAAAAAAABKIKAAAAAAAAAIBAVAEAAAAAAAAAEIgqAAAAAAAAAAACUQUAAAAAAAAAQCCqAAAAAAAAAAAIRBUAAAAAAAAAAIGoAgAAAAAAAAAgEFUAAAAAAAAAAASiCgAAAAAAAACAQFQBAAAAAAAAABCIKgAAAAAAAAAAAlEFAAAAAAAAAEAgqgAAAAAAAAAACEQVAAAAAAAAAACBqAIAAAAAAAAAIBBVAAAAAAAAAAAEogoAAAAAAAAAgEBUAQAAAAAAAAAQiCoAAAAAAAAAAAJRBQAAAAAAAABAIKoAAAAAAAAAAAhEFQAAAAAAAAAAgagCAAAAAAAAACAQVQAAAAAAAAAABKIKAAAAAAAAAIBAVAEAAAAAAAAAEIgqAAAAAAAAAAACUQUAAAAAAAAAQCCqAAAAAAAAAAAIRBUAAAAAAAAAAIGoAgAAAAAAAAAgEFUAAAAAAAAAAASiCgAAAAAAAACAQFQBAAAAAAAAABCIKgAAAAAAAAAAAlEFAAAAAAAAAEAgqgAAAAAAAAAACEQVAAAAAAAAAACBqAIAAAAAAAAAIBBVAAAAAAAAAAAEogoAAAAAAAAAgEBUAQAAAAAAAAAQiCoAAAAAAAAAAAJRBQAAAAAAAABAIKoAAAAAAAAAAAhEFQAAAAAAAAAAgagCAAAAAAAAACAQVQAAAAAAAAAABKIKAAAAAAAAAIBAVAEAAAAAAAAAEDw1AgAeg+Viflouz00C7sXMCAAAgEo9Xy7mK2OAe3O12x9ujAGAKRNVADA5y8V8Vi6vyloN65mpAAAAwKN0UtYHY4D7s1zM+8vHsq7K2u72h0tTAWBKRBUATGkDty6Xs+7uAxMAAAAA4M/xcljfLRfz23I975dTLACYgidGAEDrykbtVVnH8uO7TlABAAAAAA+pPzX2bVnH5WK+KcsreQFomqgCgGb1G7KytuXHn8p6YSIAAAAAUI1f44qr5WK+Mg4AWiWqAKBJZSN2Wi7H7u5YQQAAAACgTv3DUB+Wi/mZUQDQIlEFAM0pG7B1uWy7u9odAAAAAKjfD8vF/MIYAGiNqAKApgxHBb7rBBUAAAAA0JrXwgoAWiOqAKAZwys/Lk0CAAAAAJr12qtAAGiJqAKAJpSN1vNyueicUAEAAAAArftheIAKAKonqgCgFX29fmIMAAAAADAJTqQFoAmiCgCqt1zMZ+Xy1iQAAAAAYDJeLBfzjTEAUDtRBQAtsLkCAAAAgOk5G177CwDVElUAULXhlIrXJgEAAAAAk/OsrLUxAFAzUQUAtXtlBAAAAAAwWWsjAKBmogoAbKoAAAAAgIdyMpxWCwBVElUAUK1hM3ViEgAAAAAwaU6rBaBaogoAanZqBAAAAAAweSsjAKBWogoAaiaqAAAAAIDpmxkBALUSVQBgMwUAAAAAPCSvAAagWqIKAGo2MwIAAAAAAAAeiqgCAAAAAAAAACAQVQAAAAAAAAAABKIKAGp2YwQAAAAAAAA8FFEFADW7MgIAAAAAmLxrIwCgVqIKAGp2NAIAAAAAmLyjEQBQK1EFADVzUgUAAAAATN/WCAColagCgGrt9oc+qrg1CQAAAACYtK0RAFArUQUAtbs0AgAAAACYrNvd/rA1BgBqJaoAoHYXRgAAAAAAk3VhBADUTFQBQNWGSv2TSQAAAADAJJ0bAQA1E1UA0IKNEQAAAADA5Lzf7Q9HYwCgZqIKAKpXNlaX5fLRJAAAAABgMm47D1MB0ABRBQCtWA8bLQAAAACgfRunVADQAlEFAE0YNlhnJgEAAAAAzft5tz+cGwMALRBVANCMstG6KJcfTQIAAAAAmvWpuzuVFgCaIKoAoCm7/aE/reK9SQAAAABAc/qgYrXbH26MAoBWiCoAaE7ZdK07J1YAAAAAQEsEFQA0SVQBQJOGEyu+LevWNAAAAACgaj/u9odTQQUALRJVANCssgm7LJfTsn42DQAAAACoznVZ3wwPSAFAk0QVADStbMiOZb3qN2dlfTQRAAAAAHhwfUzxZrc/zMraGgcALXtqBABMwbA5Wy0X81m59pHFuqwTkwEAAACAP0UfUmzLuhBSADAlogoAJqU/uaJczofVLRfzVbnMhgXcj/737KUxAAAAFeq/5L0wBrhX27KOw+dyADA5ogoAJk0VD/dvuZhvOlEFAABQp/6L3o0xAADwpZ4YAQAAAAAAAADAb4kqAAAAAAAAAAACUQUAAAAAAAAAQCCqAAAAAAAAAAAIRBUAAAAAAAAAAIGoAgAAAAAAAAAgEFUAAAAAAAAAAASiCgAAAAAAAACAQFQBAAAAAAAAABCIKgAAAAAAAAAAAlEFAAAAAAAAAEAgqgAAAAAAAAAACEQVAAAAAAAAAACBqAIAAAAAAAAAIBBVAAAAAAAAAAAEogoAAAAAAAAAgEBUAQAAAAAAAAAQiCoAAAAAAAAAAAJRBQAAAAAAAABAIKoAAAAAAAAAAAhEFQAAAAAAAAAAgagCAAAAAAAAACAQVQAAAAAAAAAABKIKAAAAAAAAAIBAVAEAAAAAAAAAEIgqAAAAAAAAAAACUQUAAAAAAAAAQCCqAAAAAAAAAAAIRBUAAAAAAAAAAIGoAgAAAAAAAAAgEFUAAAAAAAAAAASiCgAAAAAAAACAQFQBAAAAAAAAABCIKgAAAAAAAAAAAlEFAAAAAAAAAEAgqgAAAAAAAAAACEQVAAAAAAAAAACBqAIAAAAAAAAAIBBVAAAAAAAAAAAEogoAAAAAAAAAgEBUAQAAAAAAAAAQiCoAAAAAAAAAAAJRBQAAAAAAAABAIKoAAAAAAAAAAAhEFQAAAAAAAAAAgagCAAAAAAAAACAQVQAAAAAAAAAABKIKAAAAAAAAAIBAVAEAAAAAAAAAEIgqAAAAAAAAAAACUQUAAAAAAAAAQCCqAAAAAAAAAAAIRBUAAAAAAAAAAIGoAgAAAAAAAAAgEFUAAAAAAAAAAASiCgAAAAAAAACAQFQBAAAAAAAAABCIKgAAAAAAAAAAAlEFAAAAAAAAAEAgqgAAAAAAAAAACEQVAAAAAAAAAACBqAIAAAAAAAAAIBBVAAAAAAAAAAAEogoAAAAAAAAAgEBUAQAAAAAAAAAQiCoAAAAAAAAAAAJRBQAAAAAAAABAIKoAAAAAAAAAAAhEFQAAAAAAAAAAgagCAAAAAAAAACAQVQAAAAAAAAAABKIKAAAAAAAAAIBAVAEAAAAAAAAAEIgqAAAAAAAAAAACUQUAAAAAAAAAQCCqAAAAAAAAAAAIRBUAAAAAAAAAAIGoAgAAAAAAAAAgEFUAAAAAAAAAAASiCgAAAAAAAACAQFQBAAAAAAAAABCIKgAAAAAAAAAAAlEFAAAAAAAAAEAgqgAAAAAAAAAACEQVAAAAAAAAAACBqAIAAAAAAAAAIBBVAAAAAAAAAAAEogoAAAAAAAAAgEBUAQAAAAAAAAAQiCoAAAAAAAAAAAJRBQAAAAAAAABAIKoAAAAAAAAAAAhEFQAAAAAAAAAAgagCAAAAAAAAACAQVQAAAAAAAAAABKIKAAAAAAAAAIBAVAEAAAAAAAAAEIgqAAAAAAAAAAACUQUAAAAAAAAAQCCqAAAAAAAAAAAIRBUAAAAAAAAAAIGoAgAAAAAAAAAgEFUAAAAAAAAAAASiCgAAAAAAAACAQFQBAAAAAAAAABCIKgAAAAAAAAAAAlEFAAAAAAAAAEAgqgAAAAAAAAAACEQVAAAAAAAAAACBqAIAAAAAAAAAIBBVAAAAAAAAAAAEogoAAAAAAAAAgEBUAQAAAAAAAAAQiCoAAAAAAAAAAAJRBQAAAAAAAABAIKoAAAAAAAAAAAhEFQAAAAAAAAAAgagCAAAAAAAAACAQVQAAAAAAAAAABKIKAAAAAAAAAIBAVAEAAAAAAAAAEIgqAAAAAAAAAAACUQUAAAAAAAAAQCCqAAAAAAAAAAAIRBUAAAAAAAAAAIGoAgAAAAAAAAAgEFUAAAAAAAAAAASiCgAAAAAAAACAQFQBAAAAAAAAABCIKgAAAAAAAAAAAlEFAAAAAAAAAEAgqgAAAAAAAAAACEQVAAAAAAAAAACBqAIAAAAAAAAAIBBVAAAAAAAAAAAEogoAAAAAAAAAgEBUAQAAAAAAAAAQiCoAAAAAAAAAAAJRBQAAAAAAAABAIKoAAAAAAAAAAAhEFQAAAAAAAAAAgagCAAAAAAAAACAQVQAAAAAAAAAABKIKAAAAAAAAAIBAVAEAAAAAAAAAEIgqAAAAAAAAAAACUQUAAAAAAAAAQCCqAAAAAAAAAAAIRBUAAAAAAAAAAIGoAgAAAAAAAAAgEFUAAAAAAAAAAASiCgAAAAAAAACAQFQBAAAAAAAAABCIKgAAAAAAAAAAAlEFAAAAAAAAAEAgqgAAAAAAAAAACEQVAAAAAAAAAACBqAIAAAAAAAAAIBBVAAAAAAAAAAAEogoAAAAAAAAAgEBUAQAAAAAAAAAQiCoAAAAAAAAAAAJRBQAAAAAAAABAIKoAAAAAAAAAAAhEFQAAAAAAAAAAgagCAAAAAAAAACAQVQAAAAAAAAAABKIKAAAAAAAAAIBAVAEAAAAAAAAAEIgqAAAAAAAAAACCp0YAwNQtF/NZucxMAu6N3y8Y+Xeq3LtWxgDwaJ0aAYzqub+t4F7d7PaHK2MAYMpEFQBMznIx7z+EXHd3H0a+NBEAGvN6WAAAfL2Tsj4YA9yf5WLeX67L2pZ12V93+8ONyQAwFaIKAKayeXve3YUUZ2W9MBEAAAAA+NP0n8f9GojfLhfzPq7Y7PaHo9EA0LonRgBA68ombV0u/Qbth05QAQAAAAAP6Vl3F1f8c7mYXwwPQwFAs0QVADSrbMj6d85vy4/vhs0aAAAAAFCPPq44LhfzV0YBQKtEFQA0qWzEVuVyVdZL0wAAAACAavUPQ/20XMzPjQKAFokqAGjO8LqPD53TKQAAAACgFd/1rwMxBgBaI6oAoClDUPHOJAAAAACgOa+FFQC0RlQBQDPKhuu0XBwTCAAAAADt6sOKjTEA0ApRBQBNKBut5+Vy2XnlBwAAAAC07u1yMV8ZAwAtEFUA0IpNWS+MAQAAAAAm4WJ4kAoAqiaqAKB6ZXM1K5fvTAIAAAAAJqN/gOrMGAConagCgBZsjAAAAAAAJufMaRUA1E5UAUDVhlMqXpsEAAAAAEzOs7LWxgBAzUQVANTOEYAAAAAAMF0+/wOgaqIKAGr3yggAAAAAYLJeLBfzU2MAoFaiCgCqNbz644VJAAAAAMCkrYwAgFqJKgComUIdAAAAAKZvZQQA1EpUAUDNRBUAAAAAMH0zIwCgVqIKAGymAAAAAICHdGIEANRKVAFAzWZGAAAAAAAAwEMRVQAAAAAAAAAABKIKAAAAAAAAAIBAVAFAzW6MAIARHY0AAAAAAPgjRBUA1OzKCAAYy25/OJoCANivAVClayMAoFaiCgBqdjQCAEbmgzoAsF8DwH0FAH43UQUANfPkEwBj2xoBAHy93f5gvwaAvRoAj4KoAoBqDR/SeaIYgDFtjQAAvtrPRgDAyC6NAIBaiSoAqN3WCAAYkQ/qAMD9FIC6XDsBCYCaiSoAqN25EQAwlt3+cNN5uhYAvsZtJ6oAYFzuKwBUTVQBQNWGSv2jSQAwIsEeAHy5yyFSBAB7NAAeBVEFAC3YGAEAY9ntD9tOsAcAX+LW/gyAkb0ve7SjMQBQM1EFANXz5RcA9+DMCADgDzv3xRcAI7q1NwOgBaIKAFqxHjZaAPDVhtdLfW8SAPC7fSr3z40xADCiM6+UAqAFogoAmjA8DbU2CQBGvLdsyuWTSQDA/3VrPwbAyPrXflwYAwAtEFUA0Iyy0bosl3+YBAAjWpV1bQwA8D+dDac8AcAY+rjdaz8AaIaoAoCm7PaH83J5bxIAjHRf6Y+afdV5xRQA/DdvPEkMwIj6oGLltR8AtERUAUBzyqZrXS5vTAKAke4r/ZO3s86rQADgc31w+K2gAoARfewEFQA0SFQBQJOGD/a+6TxZDMA495X+Q71VWT+aBgD85yniS6MAYCTfl/uKoAKAJokqAGhW2YRtu7sni70OBIAx7is3ZfXv9e2jvWsTAeAR6qP1/kuv0+EkJwD4Wv3pFH8r95WNUQDQKlEFAE0bvgBblx//2okrABjn3rIta9bdvWpKXAHAY/DvmKKsmS+9ABhJH1O8GU6nEOoB0LS//PLLL6YAwGQsF/Pn5bLu7o5w/7uJAJ/5ZjjhBv7oveX0s3vLiYkAMBF9SNH/bXQ5vF4RvuTvJB8uA5/7NNxbLoQUAEyJqAKASRu+COtDi5VpwL3pf79eNvDvFFUwxn2lv6f095bZsACgJf177PsvuY7l76KjcTDC30YtfLjcnzx24X8L7k1/X7mx3wZgykQVAAB8leVivimXtw38U0UVAAAw7l6ghQ+XP/avH/C/BQDAl3piBAAAAAAAAAAAvyWqAAAAAAAAAAAIRBUAAAAAAAAAAIGoAgAAAAAAAAAgEFUAAAAAAAAAAASiCgAAAAAAAACAQFQBAAAAAAAAABCIKgAAAAAAAAAAAlEFAAAAAAAAAEAgqgAAAAAAAAAACEQVAAAAAAAAAACBqAIAAAAAAAAAIBBVAAAAAAAAAAAEogoAAAAAAAAAgEBUAQAAAAAAAAAQiCoAAAAAAAAAAAJRBQAAAAAAAABAIKoAAAAAAAAAAAhEFQAAAAAAAAAAgagCAAAAAAAAACAQVQAAAAAAAAAABKIKAAAAAAAAAIBAVAEAAAAAAAAAEIgqAAAAAAAAAAACUQUAAAAAAAAAQCCqAAAAAAAAAAAIRBUAAAAAAAAAAIGoAgAAAAAAAAAgEFUAAAAAAAAAAASiCgAAAAAAAACAQFQBAAAAAAAAABCIKgAAAAAAAAAAAlEFAAAAAAAAAEAgqgAAAAAAAAAACEQVAAAAAAAAAACBqAIAAAAAAAAAIBBVAAAAAAAAAAAEogoAAAAAAAAAgEBUAQAAAAAAAAAQiCoAAAAAAAAAAAJRBQAAAAAAAABAIKoAAAAAAAAAAAhEFQAAAAAAAAAAgagCAAAAAAAAACAQVQAAAAAAAAAABKIKAAAAAAAAAIBAVAEAAAAAAAAAEIgqAAAAAAAAAAACUQUAAAAAAAAAQCCqAAAAAAAAAAAIRBUAAAAAAAAAAIGoAgAAAAAAAAAgEFUAAAAAAAAAAASiCgAAAAAAAACAQFQBAAAAAAAAABCIKgAAAAAAAAAAAlEFAAAAAAAAAEAgqgAAAAAAAAAACEQVAAAAAAAAAACBqAIAAAAAAAAAIBBVAAAAAAAAAAAEogoAAAAAAAAAgEBUAQAAAAAAAAAQiCoAAAAAAAAAAAJRBQAAAAAAAABAIKoAAAAAAAAAAAhEFQAAAAAAAAAAgagCAAAAAAAAACAQVQAAAAAAAAAABKIKAAAAAAAAAIBAVAEAAAAAAAAAEIgqAAAAAAAAAAACUQUAAAAAAAAAQCCqAAAAAAAAAAAIRBUAAAAAAAAAAIGoAgAAAAAAAAAgEFUAAAAAAAAAAASiCgAAAAAAAACAQFQBAAAAAAAAABCIKgAAAAAAAAAAAlEFAAAAAAAAAEAgqgAAAAAAAAAACEQVAAAAAAAAAACBqAIAAAAAAAAAIBBVAAAAAAAAAAAEogoAAAAAAAAAgEBUAQAAAAAAAAAQiCoAAAAAAAAAAAJRBQAAAAAAAABAIKoAAAAAAAAAAAhEFQAAAAAAAAAAgagCAAAAAAAAACAQVQAAAAAAAAAABKIKAAAAAAAAAIBAVAEAAAAAAAAAEIgqAAAAAAAAAAACUQUAAAAAAAAAQCCqAAAAAAAAAAAIRBUAAAAAAAAAAIGoAgAAAAAAAAAgEFUAAAAAAAAAAASiCgAAAAAAAACAQFQBAAAAAAAAABCIKgAAAAAAAAAAAlEFAAAAAAAAAEAgqgAAAAAAAAAACEQVAAAAAAAAAACBqAIAAAAAAAAAIBBVAAAAAAAAAAAEogoAAAAAAAAAgEBUAQAAAAAAAAAQiCoAAAAAAAAAAAJRBQAAAAAAAABAIKoAAAAAAAAAAAhEFQAAAAAAAAAAgagCAAAAAAAAACAQVQAAAAAAAAAABKIKAAAAAAAAAIBAVAEAAAAAAAAAEIgqAAAAAAAAAAACUQUAAAAAAAAAQCCqAAAAAAAAAAAIRBUAAAAAAAAAAIGoAgAAAAAAAAAgEFUAAAAAAAAAAASiCgAAAAAAAACAQFQBAAAAAAAAABCIKgAAAAAAAAAAgqdGAADAI/FhuZibAgAAAAAAv5uTKgAAAAAAAAAAAlEFAAAAAAAAAEAgqgAAAAAAAAAACEQVAAAAAAAAAACBqAIAAAAAAAAAIBBVAAAAAAAAAAAEogoAAAAAAAAAgEBUAQAAAAAAAAAQiCoAAAAAAAAAAAJRBQAAAAAAAABAIKoAAAAAAAAAAAhEFQAAAAAAAAAAgagCAAAAAP7F3t3dtnGmARhV0kDSQQwI0m3SwWo7cAlKBVEJdAdOB3IH2gpW7kC+JUGA6sCqQDvc8MJAnt0E4vB3zgEG4yt58I1ffKDnoQYAAACCqAIAAAAAAAAAIIgqAAAAAAAAAACCqAIAAAAAAAAAIIgqAAAAAAAAAACCqAIAAAAAAAAAIIgqAAAAAAAAAACCqAIAAAAAAAAAIIgqAAAAAAA4VytLAADANkQVAABsa2UJAAAAn1cAADhHogoAALa1sgQAAAAAAJwjUQUAANtaWQIAAOBIPVkCAAC2IaoAAGAr88VyNZxerAQAAHCERBUAAGxFVAEAwBgeLQEAAHBknjcROAAAvJmoAgCAMTxYAgAAwOcUAADOjagCAIAxrP+z0itAAACAY3JvCQAA2JaoAgCArc0Xy68XvgUGAAAcj8/D55QnywAAwLZEFQAAjGVmCQAAAJ9PAAA4J6IKAABGMV8sV8Ppg5UAAAAObP1bKh4tAwAAYxBVAAAwpo/D8WwZAACAA3kZjlvLAADAWEQVAACMZr5Yfh1O760EAABwIHeb36IHAACjEFUAADCq+WL5NJx+tRIAAMCefRo+j9xbBgAAxiSqAABgdJv/yBRWAAAA+7IOKm4tAwAAYxNVAACwE8IKAABgTwQVAADsjKgCAICd2YQV/xyOF6sBAACMbP0541dBBQAAuySqAABgp+aL5eNwejccn6wGAAAwks/DcbMJuQEAYGe+e319tQoAAOzF9dXlzXCaDcc/rAYAAPAGX9afKeaL5YOlAABgH0QVAADs3fXV5bvhdDcc74fjJysCAAD8H+vXfKwjivvNb8IDAIC9EVUAAHBQm8Dil83xbnPALvw4HD+fwHU+D8fK7cJcmSvMlbliwlbfHE/zxfLJkgAAcCiiCgAAYBI2r5/59wlc6of5YjlzxzBX5gpzZa4AAAAO73tLAAAAAAAAAADwZ6IKAAAAAAAAAIAgqgAAAAAAAAAACKIKAAAAAAAAAIAgqgAAAAAAAAAACKIKAAAAAAAAAIAgqgAAAAAAAAAACKIKAAAAAAAAAIAgqgAAAAAAAAAACKIKAAAAAAAAAIAgqgAAAAAAAAAACKIKAAAAAAAAAIAgqgAAAAAAAAAACKIKAAAAAAAAAIAgqgAAAAAAAAAACKIKAAAAAAAAAIAgqgAAAAAAAAAACKIKAAAAAAAAAIAgqgAAAAAAAAAACKIKAAAAAAAAAIAgqgAAAAAAAAAACKIKAAAAAAAAAIAgqgAAAAAAAAAACKIKAAAAAAAAAIAgqgAAAAAAAAAACKIKAAAAAAAAAIAgqgAAAAAAAAAACKIKAAAAAAAAAIAgqgAAAAAAAAAACKIKAAAAAAAAAIAgqgAAAAAAAAAACKIKAAAAAAAAAIAgqgAAAAAAAAAACKIKAAAAAAAAAIAgqgAAAAAAAAAACKIKAAAAAAAAAIAgqgAAAAAAAAAACKIKAAAAAAAAAIAgqgAAAAAAAAAACKIKAAAAAAAAAIAgqgAAAAAAAAAACKIKAAAAAAAAAIAgqgAAAAAAAAAACKIKAAAAAAAAAIAgqgAAAAAAAAAACKIKAAAAAAAAAIAgqgAAAAAAAAAACKIKAAAAAAAAAIAgqgAAAAAAAAAACKIKAAAAAAAAAIAgqgAAAAAAAAAACKIKAAAAAAAAAIAgqgAAAAAAAAAACKIKAAAAAAAAAIAgqgAAAAAAAAAACKIKAAAAAAAAAIAgqgAAAAAAAAAACKIKAAAAAAAAAIAgqgAAAAAAAAAACKIKAAAAAAAAAIAgqgAAAAAAAAAACKIKAAAAAAAAAIAgqgAAAAAAAAAACKIKAAAAAAAAAIAgqgAAAAAAAAAACKIKAAAAAAAAAIAgqgAAAAAAAAAACKIKAAAAAAAAAIAgqgAAAAAAAAAACKIKAAAAAAAAAIAgqgAAAAAAAAAACKIKAAAAAAAAAIAgqgAAAAAAAAAACKIKAAAAAAAAAIAgqgAAAAAAAAAACKIKAAAAAAAAAIAgqgAAAAAAAAAACKIKAAAAAAAAAIAgqgAAAAAAAAAACKIKAAAAAAAAAIAgqgAAAAAAAAAACKIKAAAAAAAAAIAgqgAAAAAAAAAACKIKAAAAAAAAAIAgqgAAAAAAAAAACKIKAAAAAAAAAIAgqgAAAAAAAAAACKIKAAAAAAAAAIAgqgAAAAAAAAAACKIKAAAAAAAAAIAgqgAAAAAAAAAACKIKAAAAAAAAAIAgqgAAAAAAAAAACKIKAAAAAAAAAIAgqgAAAAAAAAAACKIKAAAAAAAAAIAgqgAAAAAAAAAACKIKAAAAAAAAAIAgqgAAAAAAAAAACKIKAAAAAAAAAIAgqgAAAAAAAAAACKIKAAAAAAAAAIAgqgAAAAAAAAAACKIKAAAAAAAAAIAgqgAAAAAAAAAACKIKAAAAAAAAAIAgqgAAAAAAAAAACKIKAAAAAAAAAIAgqgAAAAAAAAAACKIKAAAAAAAAAIAgqgAAAAAAAAAACKIKAAAAAAAAAIAgqgAAAAAAAAAACKIKAAAAAAAAAIAgqgAAAAAAAAAACKIKAAAAAAAAAIAgqgAAAAAAAAAACKIKAAAAAAAAAIAgqgAAAAAAAAAACKIKAAAAAAAAAIAgqgAAAAAAAAAACKIKAAAAAAAAAIAgqgAAAAAAAAAACKIKAAAAAAAAAIAgqgAAAAAAAAAACKIKAAAAAAAAAIAgqgAAAAAAAAAACKIKAAAAAAAAAIAgqgAAAAAAAAAACKIKAAAAAAAAAIAgqgAAAAAAAAAACKIKAAAAAAAAAIAgqgAAAAAAAAAACKIKAAAAAAAAAIAgqgAAAAAAAAAACKIKAAAAAAAAAIAgqgAAAAAAAAAACKIKAAAAAAAAAIAgqgAAAAAAAAAACKIKAAAAAAAAAIAgqgAAAAAAAAAACKIKAAAAAAAAAIAgqgAAAAAAAAAACKIKAAAAAAAAAIAgqgAAAAAAAAAACKIKAAAAAAAAAIAgqgAAAAAAAAAACKIKAAAAAAAAAIAgqgAAAAAAAAAACKIKAAAAAAAAAIAgqgAAAAAAAAAACKIKAAAAAAAAAIAgqgAAAAAAAAAACKIKAAAAAAAAAIAgqgAAAAAAAAAACKIKAAAAAAAAAIAgqgAAAAAAAAAACKIKAAAAAAAAAIAgqgAAAAAAAAAACKIKAAAAAAAAAIAgqgAAAAAAAAAACKIKAAAAAAAAAIAgqgAAAAAAAAAACKIKAAAAAAAAAIAgqgAAAAAAAAAACKIKAAAAAAAAAIAgqgAAAAAAAAAACKIKAAAAAAAAAIAgqgAAAAAAAAAACKIKAAAAAAAAAIAgqgAAAAAAAAAACKIKAAAAAAAAAIAgqgAAAAAAAAAACKIKAAAAAAAAAIAgqgAAAAAAAAAACKIKAAAAAAAAAIAgqgAAAAAAAAAACKIKAAAAAAAAAIAgqgAAAAAAAAAACKIKAAAAAAAAAIAgqgAAAAAAAAAACKIKAAAAAAAAAIAgqgAAAAAAAAAACKIKAAAAAAAAAIAgqgAAAAAAAAAACKIKAAAAAAAAAIAgqgAAAAAAAAAACKIKAAAAAAAAAIAgqgAAAAAAAAAACKIKAAAAAAAAAIAgqgAAAAAAAAAACKIKAAAAAAAAAIAgqgAAAAAAAAAACKIKAAAAAAAAAIAgqgAAAAAAAAAACKIKAAAAAAAAAIAgqgAAAAAAAAAACKIKAAAAAAAAAIAgqgAAAAAAAAAACKIKAAAAAAAAAIAgqgAAAAAAAAAACKIKAAAAAAAAAIAgqgAAAAAAAAAACKIKAAAAAAAAAIAgqgAAAAAAAAAACKIKAAAAAAAAAIAgqgAAAAAAAAAACKIKAAAAAAAAAIAgqgAAAAAAAAAACKIKAAAAAAAAAIAgqgAAAAAAAAAACKIKAAAAAAAAAIAgqgAAAAAAAAAACKIKAAAAAAAAAIAgqgAAAAAAAAAACKIKAABgKp4sAYzu64lc58qtwn4FAADAW4gqAACASZgvlqfy8PfR3eKE5upUHv6u3C3sV/YrAACAtxBVAAAAU/L5BK5x5TZxYp5P4Bp98x/7lf0KAADgTUQVAADAlBz7g9Xn+WK5cps4MY9Hfn1fTuib/2C/AgAAODKiCgAAYEoeXR+YKzBX5goAAODvElUAAACTMV8sH4bTyxFf4oO7xAk69rm6d4uwX9mvAAAA3kpUAQAATM39kV7X8+YhGpyUzas1jvXf7vrVH0/uEvYr+xUAAMBbiSoAAICp+Xik1zVzazhhM/MO9isAAIBzJKoAAAAmZb5YrobT70d2Wetv/d67O5z4XH06ssv6Yq6wX9mvAAAAtiWqAAAApmh2cVzvqr9zSzgDd+YK7FcAAADnRlQBAABMznyx/Dqcbo/kcj55Nz3manS/D9fz6K5gruxXAAAA2xJVAAAAk7R5MPThwJfx5cK3fjm/uTr0a0DWr/0wV5zbXB36NSD2KwAAYLJEFQAAwGTNF8vZxeEeAD8Px83mW8hwTnN1e8C5Wj/4vXEXOMO5ujv0XNmvAACAqRJVAAAAk3agB8AeUGGuzBWYKwAAgBMgqgAAACZv86BqX68C+XzxxwOqlZVnAnO1r1cW/OvCg1/sV7var8wVAAAwad+9vr5aBQAAgMH11eXNcLofjp929Fd82LxyBKY0V+83c/XDDn78y3DMhrn6aKWxX9mvAAAAdkFUAQAA8I3rq8sfh9Pd5hjrIfD62763fjsFE5+r2XD8NuKPXb8GYWausF/ZrwAAAHZJVAEAABC+eVh1e/G2bwKvv0H/MBwf54vlkxWF/87Vu81MbTtXYgqwXwEAAOyFqAIAAOAvXF9d/jKc1q8wuBmOdxf/+6HV+hu+6wdSj+vDe+jhb8/V+s8//NVcDTP1YOXAfgUAALBPogoAAAAAAAAAgPC9JQAAAAAAAAAA+DNRBQAAAAAAAABAEFUAAAAAAAAAAARRBQAAAAAAAABAEFUAAAAAAAAAAARRBQAAAAAAAABAEFUAAAAAAAAAAARRBQAAAAAAAABAEFUAAAAAAAAAAARRBQAAAAAAAABAEFUAAAAAAAAAAARRBQAAAAAAAABAEFUAAAAAAAAAAARRBQAAAAAAAABAEFUAAAAAAAAAAARRBQAAAAAAAABAEFUAAAAAAAAAAARRBQAAAAAAAABAEFUAAAAAAAAAAARRBQAAAAAAAABAEFUAAAAAAAAAAARRBQAAAAAAAABAEFUAAAAAAAAAAARRBQAAAAAAAABAEFUAAAAAAAAAAARRBQAAAAAAAABAEFUAAAAAAAAAAARRBQAAAAAAAABAEFUAAAAAAAAAAARRBQAAAAAAAABAEFUAAAAAAAAAAARRBQAAAAAAAABAEFUAAAAAAAAAAARRBQAAAAAAAABAEFUAAAAAAAAAAARRBQAAAAAAAABAEFUAAAAAAAAAAARRBQAAAAAAAABAEFUAAAAAAAAAAARRBQAAAAAAAABAEFUAAAAAAAAAAARRBQAAAAAAAABAEFUAAAAAAAAAAARRBQAAAAAAAABAEFUAAAAAAAAAAARRBQAAAAAAAABAEFUAAAAAAAAAAARRBQAAAAAAAABAEFUAAAAAAAAAAARRBQAAAAAAAABAEFUAAAAAAAAAAARRBQAAAAAAAABAEFUAAAAAAAAAAARRBQAAAAAAAABAEFUAAAAAAAAAAARRBQAAAAAAAABAEFUAAAAAAAAAAARRBQAAAAAAAABAEFUAAAAAAAAAAARRBQAAAAAAAABAEFUAAAAAAAAAAARRBQAAAAAAAABAEFUAAAAAAAAAAARRBQAAAAAAAABAEFUAAAAAAAAAAARRBQAAAAAAAABAEFUAAAAAAAAAAARRBQAAAAAAAABAEFUAAAAAAAAAAARRBQAAAAAAAABAEFUAAAAAAAAAAARRBQAAAAAAAABAEFUAAAAAAAAAAARRBQAAAAAAAABAEFUAAAAAAAAAAARRBQAAAAAAAABAEFUAAAAAAAAAAARRBQAAAAAAAABAEFUAAAAAAAAAAARRBQAAAAAAAABAEFUAAAAAAAAAAARRBQAAAAAAAABAEFUAAAAAAAAAAARRBQAAAAAAAABAEFUAAAAAAAAAAARRBQAAAAAAAABAEFUAAAAAAAAAAARRBQAAAAAAAABAEFUAAAAAAAAAAARRBQAAAAAAAABAEFUAAAAAAAAAAARRBQAAAAAAAABAEFUAAAAAAAAAAARRBQAAAAAAAABAEFUAAAAAAAAAAARRBQAAAAAAAABAEFUAAAAAAAAAAARRBQAAAAAAAABAEFUAAAAAAAAAAARRBQAAAAAAAABAEFUAAAAAAAAAAARRBQAAAAAAAABAEFUAAAAAAAAAAARRBQAAAAAAAABAEFUAAAAAAAAAAARRBQAAAAAAAABAEFUAAAAAAAAAAARRBQAAAAAAAABAEFUAAAAAAAAAAARRBQAAAAAAAABAEFUAAAAAAAAAAARRBQAAAAAAAABAEFUAAAAAAAAAAARRBQAAAAAAAABAEFUAAAAAAAAAAARRBQAAAAAAAABAEFUAAAAAAAAAAARRBQAAAAAAAABAEFUAAAAAAAAAAARRBQAAAAAAAABAEFUAAAAAAAAAAARRBQAAAAAAAABAEFUAAAAAAAAAAARRBQAAAAAAAABAEFUAAAAAAAAAAARRBQAAAAAAAABAEFUAAAAAAAAAAARRBQAAAAAAAABAEFUAAAAAAAAAAARRBQAAAAAAAABAEFUAAAAAAAAAAARRBQAAAAAAAABAEFUAAAAAAAAAAARRBQAAAAAAAABAEFUAAAAAAAAAAARRBQAAAAAAAABAEFUAAAAAAAAAAARRBQAAAAAAAABAEFUAAAAAAAAAAARRBQAAAAAAAABAEFUAAAAAAAAAAARRBQAAAAAAAABAEFUAAAAAAAAAAARRBQAAAAAAAABAEFUAAAAAAAAAAARRBQAAAAAAAABAEFUAAAAAAAAAAARRBQAAAAAAAABAEFUAAAAAAAAAAARRBQAAAAAAAABAEFUAAAAAAAAAAARRBQAAAAAAAABAEFUAAAAAAAAAAARRBQAAAAAAAABAEFUAAAAAAAAAAARRBQAAAAAAAABAEFUAAAAAAAAAAARRBQAAAAAAAABAEFUAAAAAAAAAAARRBQAAAAAAAABAEFUAAAAAAAAAAARRBQAAAAAAAABAEFUAAAAAAAAAAARRBQAAAAAAAABAEFUAAAAAAAAAAARRBQAAAAAAAABAEFUAAAAAAAAAAARRBQAAAAAAAABAEFUAAAAAAAAAAARRBQAAAAAAAABAEFUAAAAAAAAAAARRBQAAAAAAAABAEFUAAAAAAAAAAARRBQAAAAAAAABAEFUAAAAAAAAAAARRBQAAAAAAAABAEFUAAAAAAAAAAARRBQAAAAAAAABAEFUAAAAAAAAAAARRBQAAAAAAAABAEFUAAAAAAAAAAARRBQAAAAAAAABAEFUAAAAAAAAAAARRBQAAAAAAAABAEFUAAAAAAAAAAARRBQAAAAAAAABAEFUAAAAAAAAAAARRBQAAAAAAAABAEFUAAAAAAAAAAARRBQAAAAAAAABAEFUAAAAAAAAAAARRBQAAAAAAAABAEFUAAAAAAAAAAARRBQAAAAAAAABAEFUAAAAAAAAAAARRBQAAAAAAAABAEFUAAAAAAAAAAARRBQAAAAAAAABAEFUAAAAAAAAAAARRBQAAAAAAAABAEFUAAAAAAAAAAARRBQAAAAAAAABAEFUAAAAAAAAAAARRBQAAAAAAAABAEFUAAAAAAAAAAARRBQAAAAAAAABAEFUAAAAAAAAAAARRBQAAAAAAAPAfdu1AAAAAAECQv/UCIxRHAAypAgAAAAAAAABgSBUAAAAAAAAAAEOqAAAAAAAAAAAYUgUAAAAAAAAAwJAqAAAAAAAAAACGVAEAAAAAAAAAMKQKAAAAAAAAAIAhVQAAAAAAAAAADKkCAAAAAAAAAGBIFQAAAAAAAAAAQ6oAAAAAAAAAABhSBQAAAAAAAADAkCoAAAAAAAAAAIZUAQAAAAAAAAAwpAoAAAAAAAAAgCFVAAAAAAAAAAAMqQIAAAAAAAAAYEgVAAAAAAAAAABDqgAAAAAAAAAAGFIFAAAAAAAAAMCQKgAAAAAAAAAAhlQBAAAAAAAAADCkCgAAAAAAAACAIVUAAAAAAAAAAAypAgAAAAAAAABgSBUAAAAAAAAAAEOqAAAAAAAAAAAYUgUAAAAAAAAAwJAqAAAAAAAAAACGVAEAAAAAAAAAMKQKAAAAAAAAAIAhVQAAAAAAAAAADKkCAAAAAAAAAGBIFQAAAAAAAAAAQ6oAAAAAAAAAABhSBQAAAAAAAADAkCoAAAAAAAAAAIZUAQAAAAAAAAAwpAoAAAAAAAAAgCFVAAAAAAAAAAAMqQIAAAAAAAAAYEgVAAAAAAAAAABDqgAAAAAAAAAAGFIFAAAAAAAAAMCQKgAAAAAAAAAAhlQBAAAAAAAAADCkCgAAAAAAAACAIVUAAAAAAAAAAAypAgAAAAAAAABgJIAA7dqBAAAAAIAgf+sFRiiOpAoAAAAAAAAAgCFVAAAAAAAAAAAMqQIAAAAAAAAAYEgVAAAAAAAAAABDqgAAAAAAAAAAGFIFAAAAAAAAAMCQKgAAAAAAAAAAhlQBAAAAAAAAADCkCgAAAAAAAACAIVUAAAAAAAAAAAypAgAAAAAAAABgSBUAAAAAAAAAAEOqAAAAAAAAAAAYUgUAAAAAAAAAwJAqAAAAAAAAAACGVAEAAAAAAAAAMKQKAAAAAAAAAIAhVQAAAAAAAAAADKkCAAAAAAAAAGBIFQAAAAAAAAAAQ6oAAAAAAAAAABhSBQAAAAAAAADAkCoAAAAAAAAAAIZUAQAAAAAAAAAwpAoAAAAAAAAAgCFVAAAAAAAAAAAMqQIAAAAAAAAAYEgVAAAAAAAAAABDqgAAAAAAAAAAGFIFAAAAAAAAAMCQKgAAAAAAAAAAhlQBAAAAAAAAADCkCgAAAAAAAACAIVUAAAAAAAAAAAypAgAAAAAAAABgSBUAAAAAAAAAAEOqAAAAAAAAAAAYUgUAAAAAAAAAwJAqAAAAAAAAAACGVAEAAAAAAAAAMKQKAAAAAAAAAIAhVQAAAAAAAAAADKkCAAAAAAAAAGBIFQAAAAAAAAAAQ6oAAAAAAAAAABhSBQAAAAAAAADAkCoAAAAAAAAAAIZUAQAAAAAAAAAwpAoAAAAAAAAAgCFVAAAAAAAAAAAMqQIAAAAAAAAAYEgVAAAAAAAAAABDqgAAAAAAAAAAGFIFAAAAAAAAAMCQKgAAAAAAAAAAhlQBAAAAAAAAADCkCgAAAAAAAACAIVUAAAAAAAAAAAypAgAAAAAAAABgSBUAAAAAAAAAAEOqAAAAAAAAAAAYUgUAAAAAAAAAwJAqAAAAAAAAAACGVAEAAAAAAAAAMKQKAAAAAAAAAIAhVQAAAAAAAAAADKkCAAAAAAAAAGBIFQAAAAAAAAAAQ6oAAAAAAAAAABhSBQAAAAAAAADAkCoAAAAAAAAAAIZUAQAAAAAAAAAwpAoAAAAAAAAAgCFVAAAAAAAAAAAMqQIAAAAAAAAAYEgVAAAAAAAAAABDqgAAAAAAAAAAGFIFAAAAAAAAAMCQKgAAAAAAAAAAhlQBAAAAAAAAADCkCgAAAAAAAACAIVUAAAAAAAAAAAypAgAAAAAAAABgSBUAAAAAAAAAAEOqAAAAAAAAAAAYUgUAAAAAAAAAwJAqAAAAAAAAAACGVAEAAAAAAAAAMKQKAAAAAAAAAIAhVQAAAAAAAAAADKkCAAAAAAAAAGBIFQAAAAAAAAAAQ6oAAAAAAAAAABhSBQAAAAAAAADAkCoAAAAAAAAAAIZUAQAAAAAAAAAwpAoAAAAAAAAAgCFVAAAAAAAAAAAMqQIAAAAAAAAAYEgVAAAAAAAAAABDqgAAAAAAAAAAGFIFAAAAAAAAAMCQKgAAAAAAAAAAhlQBAAAAAAAAADCkCgAAAAAAAACAIVUAAAAAAAAAAAypAgAAAAAAAABgSBUAAAAAAAAAAEOqAAAAAAAAAAAYUgUAAAAAAAAAwJAqAAAAAAAAAACGVAEAAAAAAAAAMKQKAAAAAAAAAIAhVQAAAAAAAAAADKkCAAAAAAAAAGBIFQAAAAAAAAAAQ6oAAAAAAAAAABhSBQAAAAAAAADAkCoAAAAAAAAAAIZUAQAAAAAAAAAwpAoAAAAAAAAAgCFVAAAAAAAAAAAMqQIAAAAAAAAAYEgVAAAAAAAAAABDqgAAAAAAAAAAGFIFAAAAAAAAAMCQKgAAAAAAAAAAhlQBAAAAAAAAADCkCgAAAAAAAACAIVUAAAAAAAAAAAypAgAAAAAAAABgSBUAAAAAAAAAAEOqAAAAAAAAAAAYUgUAAAAAAAAAwJAqAAAAAAAAAACGVAEAAAAAAAAAMKQKAAAAAAAAAIAhVQAAAAAAAAAADKkCAAAAAAAAAGBIFQAAAAAAAAAAQ6oAAAAAAAAAABhSBQAAAAAAAADAkCoAAAAAAAAAAIZUAQAAAAAAAAAwpAoAAAAAAAAAgCFVAAAAAAAAAAAMqQIAAAAAAAAAYEgVAAAAAAAAAABDqgAAAAAAAAAAGFIFAAAAAAAAAMCQKgAAAAAAAAAAhlQBAAAAAAAAADCkCgAAAAAAAACAIVUAAAAAAAAAAAypAgAAAAAAAABgSBUAAAAAAAAAAEOqAAAAAAAAAAAYUgUAAAAAAAAAwJAqAAAAAAAAAACGVAEAAAAAAAAAMKQKAAAAAAAAAIAhVQAAAAAAAAAADKkCAAAAAAAAAGBIFQAAAAAAAAAAQ6oAAAAAAAAAABhSBQAAAAAAAADAkCoAAAAAAAAAAEYrqxtxSj68aAAAAABJRU5ErkJggg==;" vertex="1" parent="1">
          <mxGeometry x="200" y="1160" width="50" height="50" as="geometry" />
        </mxCell>
        <mxCell id="v1EW0JT8d4S7AqYUZW40-8" value="" style="shape=image;verticalLabelPosition=bottom;labelBackgroundColor=default;verticalAlign=top;aspect=fixed;imageAspect=0;image=data:image/png,iVBORw0KGgoAAAANSUhEUgAACFUAAAhVCAYAAACx2Qd4AAAACXBIWXMAAC4jAAAuIwF4pT92AAAAGXRFWHRTb2Z0d2FyZQBBZG9iZSBJbWFnZVJlYWR5ccllPAAAgdBJREFUeNrs2jERACAQwDDAv+dn5qiERELn7plZAAAAAAAAAAC8jgQAAAAAAAAAAD9TBQAAAAAAAABAMFUAAAAAAAAAAARTBQAAAAAAAABAMFUAAAAAAAAAAARTBQAAAAAAAABAMFUAAAAAAAAAAARTBQAAAAAAAABAMFUAAAAAAAAAAARTBQAAAAAAAABAMFUAAAAAAAAAAARTBQAAAAAAAABAMFUAAAAAAAAAAARTBQAAAAAAAABAMFUAAAAAAAAAAARTBQAAAAAAAABAMFUAAAAAAAAAAARTBQAAAAAAAABAMFUAAAAAAAAAAARTBQAAAAAAAABAMFUAAAAAAAAAAARTBQAAAAAAAABAMFUAAAAAAAAAAARTBQAAAAAAAABAMFUAAAAAAAAAAARTBQAAAAAAAABAMFUAAAAAAAAAAARTBQAAAAAAAABAMFUAAAAAAAAAAARTBQAAAAAAAABAMFUAAAAAAAAAAARTBQAAAAAAAABAMFUAAAAAAAAAAARTBQAAAAAAAABAMFUAAAAAAAAAAARTBQAAAAAAAABAMFUAAAAAAAAAAARTBQAAAAAAAABAMFUAAAAAAAAAAARTBQAAAAAAAABAMFUAAAAAAAAAAARTBQAAAAAAAABAMFUAAAAAAAAAAARTBQAAAAAAAABAMFUAAAAAAAAAAARTBQAAAAAAAABAMFUAAAAAAAAAAARTBQAAAAAAAABAMFUAAAAAAAAAAARTBQAAAAAAAABAMFUAAAAAAAAAAARTBQAAAAAAAABAMFUAAAAAAAAAAARTBQAAAAAAAABAMFUAAAAAAAAAAARTBQAAAAAAAABAMFUAAAAAAAAAAARTBQAAAAAAAABAMFUAAAAAAAAAAARTBQAAAAAAAABAMFUAAAAAAAAAAARTBQAAAAAAAABAMFUAAAAAAAAAAARTBQAAAAAAAABAMFUAAAAAAAAAAARTBQAAAAAAAABAMFUAAAAAAAAAAARTBQAAAAAAAABAMFUAAAAAAAAAAARTBQAAAAAAAABAMFUAAAAAAAAAAARTBQAAAAAAAABAMFUAAAAAAAAAAARTBQAAAAAAAABAMFUAAAAAAAAAAARTBQAAAAAAAABAMFUAAAAAAAAAAARTBQAAAAAAAABAMFUAAAAAAAAAAARTBQAAAAAAAABAMFUAAAAAAAAAAARTBQAAAAAAAABAMFUAAAAAAAAAAARTBQAAAAAAAABAMFUAAAAAAAAAAARTBQAAAAAAAABAMFUAAAAAAAAAAARTBQAAAAAAAABAMFUAAAAAAAAAAARTBQAAAAAAAABAMFUAAAAAAAAAAARTBQAAAAAAAABAMFUAAAAAAAAAAARTBQAAAAAAAABAMFUAAAAAAAAAAARTBQAAAAAAAABAMFUAAAAAAAAAAARTBQAAAAAAAABAMFUAAAAAAAAAAARTBQAAAAAAAABAMFUAAAAAAAAAAARTBQAAAAAAAABAMFUAAAAAAAAAAARTBQAAAAAAAABAMFUAAAAAAAAAAARTBQAAAAAAAABAMFUAAAAAAAAAAARTBQAAAAAAAABAMFUAAAAAAAAAAARTBQAAAAAAAABAMFUAAAAAAAAAAARTBQAAAAAAAABAMFUAAAAAAAAAAARTBQAAAAAAAABAMFUAAAAAAAAAAARTBQAAAAAAAABAMFUAAAAAAAAAAARTBQAAAAAAAABAMFUAAAAAAAAAAARTBQAAAAAAAABAMFUAAAAAAAAAAARTBQAAAAAAAABAMFUAAAAAAAAAAARTBQAAAAAAAABAMFUAAAAAAAAAAARTBQAAAAAAAABAMFUAAAAAAAAAAARTBQAAAAAAAABAMFUAAAAAAAAAAARTBQAAAAAAAABAMFUAAAAAAAAAAARTBQAAAAAAAABAMFUAAAAAAAAAAARTBQAAAAAAAABAMFUAAAAAAAAAAARTBQAAAAAAAABAMFUAAAAAAAAAAARTBQAAAAAAAABAMFUAAAAAAAAAAARTBQAAAAAAAABAMFUAAAAAAAAAAARTBQAAAAAAAABAMFUAAAAAAAAAAARTBQAAAAAAAABAMFUAAAAAAAAAAARTBQAAAAAAAABAMFUAAAAAAAAAAARTBQAAAAAAAABAMFUAAAAAAAAAAARTBQAAAAAAAABAMFUAAAAAAAAAAARTBQAAAAAAAABAMFUAAAAAAAAAAARTBQAAAAAAAABAMFUAAAAAAAAAAARTBQAAAAAAAABAMFUAAAAAAAAAAARTBQAAAAAAAABAMFUAAAAAAAAAAARTBQAAAAAAAABAMFUAAAAAAAAAAARTBQAAAAAAAABAMFUAAAAAAAAAAARTBQAAAAAAAABAMFUAAAAAAAAAAARTBQAAAAAAAABAMFUAAAAAAAAAAARTBQAAAAAAAABAMFUAAAAAAAAAAARTBQAAAAAAAABAMFUAAAAAAAAAAARTBQAAAAAAAABAMFUAAAAAAAAAAARTBQAAAAAAAABAMFUAAAAAAAAAAARTBQAAAAAAAABAMFUAAAAAAAAAAARTBQAAAAAAAABAMFUAAAAAAAAAAARTBQAAAAAAAABAMFUAAAAAAAAAAARTBQAAAAAAAABAMFUAAAAAAAAAAARTBQAAAAAAAABAMFUAAAAAAAAAAARTBQAAAAAAAABAMFUAAAAAAAAAAARTBQAAAAAAAABAMFUAAAAAAAAAAARTBQAAAAAAAABAMFUAAAAAAAAAAARTBQAAAAAAAABAMFUAAAAAAAAAAARTBQAAAAAAAABAMFUAAAAAAAAAAARTBQAAAAAAAABAMFUAAAAAAAAAAARTBQAAAAAAAABAMFUAAAAAAAAAAARTBQAAAAAAAABAMFUAAAAAAAAAAARTBQAAAAAAAABAMFUAAAAAAAAAAARTBQAAAAAAAABAMFUAAAAAAAAAAARTBQAAAAAAAABAMFUAAAAAAAAAAARTBQAAAAAAAABAMFUAAAAAAAAAAARTBQAAAAAAAABAMFUAAAAAAAAAAARTBQAAAAAAAABAMFUAAAAAAAAAAARTBQAAAAAAAABAMFUAAAAAAAAAAARTBQAAAAAAAABAMFUAAAAAAAAAAARTBQAAAAAAAABAMFUAAAAAAAAAAARTBQAAAAAAAABAMFUAAAAAAAAAAARTBQAAAAAAAABAMFUAAAAAAAAAAARTBQAAAAAAAABAMFUAAAAAAAAAAARTBQAAAAAAAABAMFUAAAAAAAAAAARTBQAAAAAAAABAMFUAAAAAAAAAAARTBQAAAAAAAABAMFUAAAAAAAAAAARTBQAAAAAAAABAMFUAAAAAAAAAAARTBQAAAAAAAABAMFUAAAAAAAAAAARTBQAAAAAAAABAMFUAAAAAAAAAAARTBQAAAAAAAABAMFUAAAAAAAAAAARTBQAAAAAAAABAMFUAAAAAAAAAAARTBQAAAAAAAABAMFUAAAAAAAAAAARTBQAAAAAAAABAMFUAAAAAAAAAAARTBQAAAAAAAABAMFUAAAAAAAAAAARTBQAAAAAAAABAMFUAAAAAAAAAAARTBQAAAAAAAABAMFUAAAAAAAAAAARTBQAAAAAAAABAMFUAAAAAAAAAAARTBQAAAAAAAABAMFUAAAAAAAAAAARTBQAAAAAAAABAMFUAAAAAAAAAAARTBQAAAAAAAABAMFUAAAAAAAAAAARTBQAAAAAAAABAMFUAAAAAAAAAAARTBQAAAAAAAABAMFUAAAAAAAAAAARTBQAAAAAAAABAMFUAAAAAAAAAAARTBQAAAAAAAABAMFUAAAAAAAAAAARTBQAAAAAAAABAMFUAAAAAAAAAAARTBQAAAAAAAABAMFUAAAAAAAAAAARTBQAAAAAAAABAMFUAAAAAAAAAAARTBQAAAAAAAABAMFUAAAAAAAAAAARTBQAAAAAAAABAMFUAAAAAAAAAAARTBQAAAAAAAABAMFUAAAAAAAAAAARTBQAAAAAAAABAMFUAAAAAAAAAAARTBQAAAAAAAABAMFUAAAAAAAAAAARTBQAAAAAAAABAMFUAAAAAAAAAAARTBQAAAAAAAABAMFUAAAAAAAAAAARTBQAAAAAAAABAMFUAAAAAAAAAAARTBQAAAAAAAABAMFUAAAAAAAAAAARTBQAAAAAAAABAMFUAAAAAAAAAAARTBQAAAAAAAABAMFUAAAAAAAAAAARTBQAAAAAAAABAMFUAAAAAAAAAAARTBQAAAAAAAABAMFUAAAAAAAAAAARTBQAAAAAAAABAMFUAAAAAAAAAAARTBQAAAAAAAABAMFUAAAAAAAAAAARTBQAAAAAAAABAMFUAAAAAAAAAAARTBQAAAAAAAABAMFUAAAAAAAAAAARTBQAAAAAAAABAMFUAAAAAAAAAAARTBQAAAAAAAABAMFUAAAAAAAAAAARTBQAAAAAAAABAMFUAAAAAAAAAAARTBQAAAAAAAABAMFUAAAAAAAAAAARTBQAAAAAAAABAMFUAAAAAAAAAAARTBQAAAAAAAABAMFUAAAAAAAAAAARTBQAAAAAAAABAMFUAAAAAAAAAAARTBQAAAAAAAABAMFUAAAAAAAAAAARTBQAAAAAAAABAMFUAAAAAAAAAAARTBQAAAAAAAABAMFUAAAAAAAAAAARTBQAAAAAAAABAMFUAAAAAAAAAAARTBQAAAAAAAABAMFUAAAAAAAAAAARTBQAAAAAAAABAMFUAAAAAAAAAAARTBQAAAAAAAABAMFUAAAAAAAAAAARTBQAAAAAAAABAMFUAAAAAAAAAAARTBQAAAAAAAABAMFUAAAAAAAAAAARTBQAAAAAAAABAMFUAAAAAAAAAAARTBQAAAAAAAABAMFUAAAAAAAAAAARTBQAAAAAAAABAMFUAAAAAAAAAAARTBQAAAAAAAABAMFUAAAAAAAAAAARTBQAAAAAAAABAMFUAAAAAAAAAAARTBQAAAAAAAABAMFUAAAAAAAAAAARTBQAAAAAAAABAMFUAAAAAAAAAAARTBQAAAAAAAABAMFUAAAAAAAAAAARTBQAAAAAAAABAMFUAAAAAAAAAAARTBQAAAAAAAABAMFUAAAAAAAAAAARTBQAAAAAAAABAMFUAAAAAAAAAAARTBQAAAAAAAABAMFUAAAAAAAAAAARTBQAAAAAAAABAMFUAAAAAAAAAAARTBQAAAAAAAABAMFUAAAAAAAAAAARTBQAAAAAAAABAMFUAAAAAAAAAAARTBQAAAAAAAABAMFUAAAAAAAAAAARTBQAAAAAAAABAMFUAAAAAAAAAAARTBQAAAAAAAABAMFUAAAAAAAAAAARTBQAAAAAAAABAMFUAAAAAAAAAAARTBQAAAAAAAABAMFUAAAAAAAAAAARTBQAAAAAAAABAMFUAAAAAAAAAAARTBQAAAAAAAABAMFUAAAAAAAAAAARTBQAAAAAAAABAMFUAAAAAAAAAAARTBQAAAAAAAABAMFUAAAAAAAAAAARTBQAAAAAAAABAMFUAAAAAAAAAAARTBQAAAAAAAABAMFUAAAAAAAAAAARTBQAAAAAAAABAMFUAAAAAAAAAAARTBQAAAAAAAABAMFUAAAAAAAAAAARTBQAAAAAAAABAMFUAAAAAAAAAAARTBQAAAAAAAABAMFUAAAAAAAAAAARTBQAAAAAAAABAMFUAAAAAAAAAAARTBQAAAAAAAABAMFUAAAAAAAAAAARTBQAAAAAAAABAMFUAAAAAAAAAAARTBQAAAAAAAABAMFUAAAAAAAAAAARTBQAAAAAAAABAMFUAAAAAAAAAAARTBQAAAAAAAABAMFUAAAAAAAAAAARTBQAAAAAAAABAMFUAAAAAAAAAAARTBQAAAAAAAABAMFUAAAAAAAAAAARTBQAAAAAAAABAMFUAAAAAAAAAAARTBQAAAAAAAABAMFUAAAAAAAAAAARTBQAAAAAAAABAMFUAAAAAAAAAAARTBQAAAAAAAABAMFUAAAAAAAAAAARTBQAAAAAAAABAMFUAAAAAAAAAAARTBQAAAAAAAABAMFUAAAAAAAAAAARTBQAAAAAAAABAMFUAAAAAAAAAAARTBQAAAAAAAABAMFUAAAAAAAAAAARTBQAAAAAAAABAMFUAAAAAAAAAAARTBQAAAAAAAABAMFUAAAAAAAAAAARTBQAAAAAAAABAMFUAAAAAAAAAAARTBQAAAAAAAABAMFUAAAAAAAAAAARTBQAAAAAAAABAMFUAAAAAAAAAAARTBQAAAAAAAABAMFUAAAAAAAAAAARTBQAAAAAAAABAMFUAAAAAAAAAAARTBQAAAAAAAABAMFUAAAAAAAAAAARTBQAAAAAAAABAMFUAAAAAAAAAAARTBQAAAAAAAABAMFUAAAAAAAAAAARTBQAAAAAAAABAMFUAAAAAAAAAAARTBQAAAAAAAABAMFUAAAAAAAAAAARTBQAAAAAAAABAMFUAAAAAAAAAAARTBQAAAAAAAABAMFUAAAAAAAAAAARTBQAAAAAAAABAMFUAAAAAAAAAAARTBQAAAAAAAABAMFUAAAAAAAAAAARTBQAAAAAAAABAMFUAAAAAAAAAAARTBQAAAAAAAABAMFUAAAAAAAAAAARTBQAAAAAAAABAMFUAAAAAAAAAAARTBQAAAAAAAABAMFUAAAAAAAAAAARTBQAAAAAAAABAMFUAAAAAAAAAAARTBQAAAAAAAABAMFUAAAAAAAAAAARTBQAAAAAAAABAMFUAAAAAAAAAAARTBQAAAAAAAABAMFUAAAAAAAAAAARTBQAAAAAAAABAMFUAAAAAAMBl745u4zjSBI7zFn4nM+AAhapXKQPORmBmQGaguQjcjuDGEewoAzmDYQb0azcaK2ZARuCrOXFvbe9nS6Q0M109vx9QKANra6v6e5GAv4oAABAQVQAAAAAAAAAABEQVAAAAAAAAAAABUQUAAAAAAAAAQEBUAQAAAAAAAAAQEFUAAAAAAAAAAAREFQAAAAAAAAAAAVEFAAAAAAAAAEBAVAEAAAAAAAAAEBBVAAAAAAAAAAAERBUAAAAAAAAAAAFRBQAAAAAAAABAQFQBAAAAAAAAABAQVQAAAAAAAAAABEQVAAAAAAAAAAABUQUAAAAAAAAAQEBUAQAAAAAAAAAQEFUAAAAAAAAAAAREFQAAAAAAAAAAAVEFAAAAAAAAAEBAVAEAAAAAAAAAEBBVAAAAAAAAAAAERBUAAAAAAAAAAAFRBQAAAAAAAABAQFQBAAAAAAAAABAQVQAAAAAAAAAABEQVAAAAAAAAAAABUQUAAAAAAAAAQEBUAQAAAAAAAAAQEFUAAAAAAAAAAAREFQAAAAAAAAAAAVEFAAAAAAAAAEBAVAEAAAAAAAAAEBBVAAAAAAAAAAAERBUAAAAAAAAAAAFRBQAAAAAAAABAQFQBAAAAAAAAABAQVQAAAAAAAAAABEQVAAAAAAAAAAABUQUAAAAAAAAAQEBUAQAAAAAAAAAQEFUAAAAAAAAAAAREFQAAAAAAAAAAAVEFAAAAAAAAAEBAVAEAAAAAAAAAEBBVAAAAAAAAAAAERBUAAAAAAAAAAAFRBQAAAAAAAABAQFQBAAAAAAAAABAQVQAAAAAAAAAABEQVAAAAAAAAAAABUQUAAAAAAAAAQEBUAQAAAAAAAAAQEFUAAAAAAAAAAAREFQAAAAAAAAAAAVEFAAAAAAAAAEBAVAEAAAAAAAAAEBBVAAAAAAAAAAAERBUAAAAAAAAAAAFRBQAAAAAAAABAQFQBAAAAAAAAABAQVQAAAAAAAAAABEQVAAAAAAAAAAABUQUAAAAAAAAAQEBUAQAAAAAAAAAQEFUAAAAAAAAAAAREFQAAAAAAAAAAAVEFAAAAAAAAAEBAVAEAAAAAAAAAEBBVAAAAAAAAAAAERBUAAAAAAAAAAAFRBQAAAAAAAABAQFQBAAAAAAAAABAQVQAAAAAAAAAABEQVAAAAAAAAAAABUQUAAAAAAAAAQEBUAQAAAAAAAAAQEFUAAAAAAAAAAAREFQAAAAAAAAAAAVEFAAAAAAAAAEBAVAEAAAAAAAAAEBBVAAAAAAAAAAAERBUAAAAAAAAAAAFRBQAAAAAAAABAQFQBAAAAAAAAABAQVQAAAAAAAAAABEQVAAAAAAAAAAABUQUAAAAAAAAAQEBUAQAAAAAAAAAQEFUAAAAAAAAAAAREFQAAAAAAAAAAAVEFAAAAAAAAAEBAVAEAAAAAAAAAEBBVAAAAAAAAAAAERBUAAAAAAAAAAAFRBQAAAAAAAABAQFQBAAAAAAAAABAQVQAAAAAAAAAABEQVAAAAAAAAAAABUQUAAAAAAAAAQEBUAQAAAAAAAAAQEFUAAAAAAAAAAAREFQAAAAAAAAAAAVEFAAAAAAAAAEBAVAEAAAAAAAAAEBBVAAAAAAAAAAAERBUAAAAAAAAAAAFRBQAAAAAAAABAQFQBAAAAAAAAABAQVQAAAAAAAAAABEQVAAAAAAAAAAABUQUAAAAAAAAAQEBUAQAAAAAAAAAQEFUAAAAAAAAAAAREFQAAAAAAAAAAAVEFAAAAAAAAAEBAVAEAAAAAAAAAEBBVAAAAAAAAAAAERBUAAAAAAAAAAAFRBQAAAAAAAABAQFQBAAAAAAAAABAQVQAAAAAAAAAABEQVAAAAAAAAAAABUQUAAAAAAAAAQEBUAQAAAAAAAAAQEFUAAAAAAAAAAAREFQAAAAAAAAAAAVEFAAAAAAAAAEBAVAEAAAAAAAAAEBBVAAAAAAAAAAAERBUAAAAAAAAAAAFRBQAAAAAAAABAQFQBAAAAAAAAABAQVQAAAAAAAAAABEQVAAAAAAAAAAABUQUAAAAAAAAAQEBUAQAAAAAAAAAQEFUAAAAAAAAAAAREFQAAAAAAAAAAAVEFAAAAAAAAAEBAVAEAAAAAAAAAEBBVAAAAAAAAAAAERBUAAAAAAAAAAAFRBQAAAAAAAABAQFQBAAAAAAAAABAQVQAAAAAAAAAABEQVAAAAAAAAAAABUQUAAAAAAAAAQEBUAQAAAAAAAAAQEFUAAAAAAAAAAAREFQAAAAAAAAAAAVEFAAAAAAAAAEBAVAEAAAAAAAAAEBBVAAAAAAAAAAAERBUAAAAAAAAAAAFRBQAAAAAAAABAQFQBAAAAAAAAABAQVQAAAAAAAAAABEQVAAAAAAAAAAABUQUAAAAAAAAAQOA7nwCAOSs5Leu2eF4AAAAAwLfzWNf9bvXD+OhzADBH//Xrr7/6CgDMRslpUbfr53XliwAAAADAQTzU9aGuTT+M9z4HAHMhqgBgFp5fpLit68bXAAAAAICj+qWudT+MG58CgNaJKgBoWsnpYvcHtDMxBQAAAABMzS6uWPXDuPUpAGiVqAKAZpWcdj/iY1PXua8BAAAAAJP1Uz+MK58BgBaJKgBoUsmpq9sPvgQAAAAANGH3asWyH8ZHnwKAlogqAGhOyWlz5sd9AAAAAEBrhBUANOdvPgEALSk5rc8EFQAAAADQojd1bUtOFz4FAK0QVQDQjPqHrdu6vfMlAAAAAKBZu7Bi4zMA0Ao//gOAJpScFnW7r+vc1wAAAACA5v13P4xrnwGAqfNSBQCt2JwJKgAAAABgLrrnv0gFAJMmqgBg8uofrpZ1u/IlAAAAAGA2dn+BqvMZAJg6UQUALfCHKwAAAACYnxuvVQAwdaIKACat/qHq7ZlXKgAAAABgrlY+AQBTJqoAwB+qAAAAAIBjufYJAJgyUQUAU7f0CQAAAABgti6fX6sFgEkSVQAwWc9/mLr0JQAAAABg1rxWAcBkiSoAmDKFOgAAAADM39InAGCqRBUATNnCJwAAAACA2Vv4BABMlagCgCnzUgUAAAAAzJ8fAQzAZIkqAJiyC58AAAAAAACAYxFVAAAAAAAAAAAERBUAAAAAAAAAAAFRBQAAAAAAAABAQFQBAAAAAAAAABAQVQAAAAAAAAAABEQVAAAAAAAAAAABUQUAAAAAAAAAQEBUAQAAAAAAAAAQEFUAAAAAAAAAAAREFQAAAAAAAAAAAVEFAAAAAAAAAEBAVAEAAAAAAAAAEBBVAAAAAAAAAAAERBUAAAAAAAAAAAFRBQAAAAAAAABAQFQBAAAAAAAAABAQVQAAAAAAAAAABEQVAAAAAAAAAAABUQUAAAAAAAAAQEBUAQAAAAAAAAAQEFUAAAAAAAAAAAS+8wkA4Kv93ScAAAAAYKLWdb3xGQDgdUQVAPCV+mHc+goAAAAATFHJ6dFXAIDX8+M/AAAAAAAAAAACogoAAAAAAAAAgICoAgAAAAAAAAAgIKoAAAAAAAAAAAiIKgAAAAAAAAAAAqIKAAAAAAAAAICAqAIAAAAAAAAAICCqAAAAAAAAAAAIiCoAAAAAAAAAAAKiCgAAAAAAAACAgKgCAAAAAAAAACAgqgAAAAAAAAAACIgqAAAAAAAAAAACogoAAAAAAAAAgICoAgAAAAAAAAAgIKoAAAAAAAAAAAiIKgAAAAAAAAAAAqIKAAAAAAAAAICAqAIAAAAAAAAAICCqAAAAAAAAAAAIiCoAAAAAAAAAAAKiCgAAAAAAAACAgKgCAAAAAAAAACAgqgAAAAAAAAAACIgqAAAAAAAAAAACogoAAAAAAAAAgICoAgAAAAAAAAAgIKoAAAAAAAAAAAiIKgAAAAAAAAAAAqIKAAAAAAAAAICAqAIAAAAAAAAAICCqAAAAAAAAAAAIiCoAAAAAAAAAAAKiCgAAAAAAAACAgKgCAAAAAAAAACAgqgAAAAAAAAAACIgqAAAAAAAAAAACogoAAAAAAAAAgICoAgAAAAAAAAAgIKoAAAAAAAAAAAiIKgAAAAAAAAAAAqIKAAAAAAAAAICAqAIAAAAAAAAAICCqAAAAAAAAAAAIiCoAAAAAAAAAAAKiCgAAAAAAAACAgKgCAAAAAAAAACAgqgAAAAAAAAAACIgqAAAAAAAAAAACogoAAAAAAAAAgICoAgAAAAAAAAAgIKoAAAAAAAAAAAiIKgAAAAAAAAAAAqIKAAAAAAAAAICAqAIAAAAAAAAAICCqAAAAAAAAAAAIiCoAAAAAAAAAAAKiCgAAAAAAAACAgKgCAAAAAAAAACAgqgAAAAAAAAAACIgqAAAAAAAAAAACogoAAAAAAAAAgICoAgAAAAAAAAAgIKoAAAAAAAAAAAiIKgAAAAAAAAAAAqIKAAAAAAAAAICAqAIAAAAAAAAAICCqAAAAAAAAAAAIiCoAAAAAAAAAAAKiCgAAAAAAAACAgKgCAAAAAAAAACAgqgAAAAAAAAAACIgqAAAAAAAAAAACogoAAAAAAAAAgICoAgAAAAAAAAAgIKoAAAAAAAAAAAiIKgAAAAAAAAAAAqIKAAAAAAAAAICAqAIAAAAAAAAAICCqAAAAAAAAAAAIiCoAAAAAAAAAAAKiCgAAAAAAAACAgKgCAAAAAAAAACAgqgAAAAAAAAAACIgqAAAAAAAAAAACogoAAAAAAAAAgICoAgAAAAAAAAAgIKoAAAAAAAAAAAiIKgAAAAAAAAAAAqIKAAAAAAAAAICAqAIAAAAAAAAAICCqAAAAAAAAAAAIiCoAAAAAAAAAAAKiCgAAAAAAAACAgKgCAAAAAAAAACAgqgAAAAAAAAAACIgqAAAAAAAAAAACogoAAAAAAAAAgICoAgAAAAAAAAAgIKoAAAAAAAAAAAiIKgAAAAAAAAAAAqIKAAAAAAAAAICAqAIAAAAAAAAAICCqAAAAAAAAAAAIiCoAAAAAAAAAAAKiCgAAAAAAAACAgKgCAAAAAAAAACAgqgAAAAAAAAAACIgqAAAAAAAAAAACogoAAAAAAAAAgICoAgAAAAAAAAAgIKoAAAAAAAAAAAiIKgAAAAAAAAAAAt/5BAAAAAAA01RyWtRtWdduf1vXxR/+lW1dj7u9H8Z7XwwAAL4tUQUAAAAAwIQ8hxSruq7ruvzMv371m//uqW4f6tr0w7j1JQEA4OuJKgAAAAAAJuA5pujqunnlL3H+/N/e1F/rYfdr9cO48WUBAOD1/uYTAAAAAAAcT8npoq51/cd/nr0+qPij3QsX/6i/7raut74yAAC8jqgCAAAAAOBInoOH+7re7en/YvfjQXZhxa2vDQAALyeqAAAAAAA4gufQYXv26VWJfdr9WJDdqxUbXx0AAF5GVAEAAAAAcGDPQcU/zj4FD4dyI6wAAICXEVUAAAAAABxQyWl59imoOIZdWLE2BQAA+DKiCgAAAACAAyk5Ler24cjHeFfPcW0aAADweaIKAAAAAIDD2Zwd9kd+/Ok5ngMPAADgL4gqAAAAAAAOoOR0W7eriRxnF3b4MSAAAPAZogoAAAAAgMPoJnae70tOS2MBAIA/J6oAAAAAANiz51cqLid4NK9VAADAXxBVAAAAAADs32qi53pTcloZDwAAxEQVAAAAAAB7VHJ6W7c3Ez5iV894YVIAAPCfRBUAAAAAAPu1nPj5zuvqjAkAAP6TqAIAAAAAYL+uGzjju5LTwqgAAOD3RBUAAAAAAPv1tpFzbowKAAB+T1QBAAAAALBf542c86rktDQuAAD4N1EFAAAAAMCeNBgpbEwNAAD+TVQBAAAAAMC/XJacOp8BAAA+EVUAAAAAAPBbq5LThc8AAACiCgAAAAAAfu+8rrXPAAAAogoAAAAAgH26b/TcNyWnt8YHAMCpE1UAAAAAAOxJP4yPDR/faxUAAJw8UQUAAAAAwH7dNXruq5LTtfEBAHDKRBUAAAAAAPt13/DZ1yWnCyMEAOBUiSoAAAAAAPbrQ8Nnv6xrZYQAAJwqUQUAAAAAwB71w7it20PDV1iVnBYmCQDAKRJVAAAAAADs36bhs5/X1RkhAACnSFQBAAAAALB/67qeGj7/TclpaYwAAJwaUQUAAAAAwJ71w/h49imsaFlnkgAAnBpRBQAAAADAYeyiioeGz39Vcro1RgAATomoAgAAAADgAJ5fq+gav0ZXcrowTQAAToWoAgAAAADgQPph3NTtruErXNa1MkkAAE6FqAIAAAAA4LC6xs//Q8lpYYwAAJwCUQUAAAAAwAH1w7it2/vGr7E2SQAAToGoAgAAAADg8HY/QuOp4fN/X3JaGiMAAHMnqgAAAAAAOLB+GB/P2n/twWsVAADMnqgCAAAAAOAI+mHs6vbQ8BXelJxuTRIAgDkTVQAAAAAAHM+q8fOvS04XxggAwFyJKgAAAAAAjqQfxg91u2v4Cud1dSYJAMBciSoAAAAAAI6r9dcq3pWcFsYIAMAciSoAAAAAAI6oH8b7uv3U+DU2JgkAwByJKgAAAAAAjq+r66nh81+VnJbGCADA3IgqAAAAAACOrB/Gx7NPYUXLNiYJAMDciCoAAAAAACagH8Z13R4avsJlyWllkgAAzImoAgAAAABgOm4bP39XcrowRgAA5kJUAQAAAAAwEf0wbut21/AVzutamyQAAHMhqgAAAAAAmJbbxs9/U3J6a4wAAMyBqAIAAAAAYEL6YfxYtx8bv4bXKgAAmAVRBQAAAADA9OyihKeGz39Vcro2RgAAWieqAAAAAACYmH4YH+u2avwaXqsAAKB5ogoAAAAAgAnqh3FTt18avsJlyakzSQAAWiaqAAAAAACYrtZfq1iVnBbGCABAq0QVAAAAAAAT1Q/jtm4/N3yF87o6kwQAoFWiCgAAAACAadu9VvHU8PlvSk5LYwQAoEWiCgAAAACACeuH8WPd1o1fozNJAABaJKoAAAAAAJi+XVTx0PD5r0pOt8YIAEBrRBUAAAAAABPXD+PjWfuvPXQlpwvTBACgJaIKAAAAAIAG9MO4qdtdw1e4rGtlkgAAtERUAQAAAADQjq7x8/9QcloYIwAArRBVAAAAAAA0oh/Gbd3eN36NtUkCANAKUQUAAAAAQFt2P0LjqeHzf19yWhojAAAtEFUAAAAAADSkH8bHs/Zfe/BaBQAATRBVAAAAAAA0ph/Grm4PDV/hTcnp1iQBAJg6UQUAAAAAQJtWjZ9/XXK6MEYAAKZMVAEAAAAA0KB+GD/U7a7hK5zX1ZkkAABTJqoAAAAAAGhX669VvCs5LYwRAICpElUAAAAAADSqH8b7uv3U+DU2JgkAwFSJKgAAAAAA2tbV9dTw+a9KTktjBABgikQVAAAAAAAN64fx8exTWNGyjUkCADBFogoAAAAAgMb1w7iu20PDV7gsOa1MEgCAqRFVAAAAAADMw23j5+9KThfGCADAlIgqAAAAAABmoB/Gbd3uGr7CeV1rkwQAYEpEFQAAAAAA83Hb+PlvSk5vjREAgKkQVQAAAAAAzEQ/jB/r9mPj1/BaBQAAkyGqAAAAAACYl12U8NTw+a9KTtfGCADAFIgqAAAAAABmpB/Gx7qtGr+G1yoAAJgEUQUAAAAAwMz0w7ip2y8NX+Gy5NSZJAAAxyaqAAAAAACYp9Zfq1iVnBbGCADAMYkqAAAAAABmqB/Gbd1+bvgK53V1JgkAwDGJKgAAAAAA5qv11ypuSk5LYwQA4FhEFQAAAAAAM9UP48e6/dj4NTqTBADgWEQVAAAAAADztq7roeHzX5Wcbo0RAIBjEFUAAAAAAMxYP4yPZ+2/9tCVnC5MEwCAQxNVAAAAAADMXD+Mm7rdNXyFy7pWJgkAwKGJKgAAAAAATkPX+Pl/KDktjBEAgEMSVQAAAAAAnIB+GLd1e9/4NdYmCQDAIYkqAAAAAABOR1fXU8Pn/77ktDRGAAAORVQBAAAAAHAi+mH8eNb+aw9eqwAA4GBEFQAAAAAAJ6Qfxq5uDw1f4U3J6dYkAQA4BFEFAAAAAMDpWTV+/nXJ6cIYAQDYN1EFAAAAAMCJ6YfxQ93uGr7CeV2dSQIAsG+iCgAAAACA09T6axXvSk4LYwQAYJ9EFQAAAAAAJ6gfxvu6vW/8GhuTBABgn0QVAAAAAACna/daxVPD578qOS2NEQCAfRFVAAAAAACcqH4YH+vWNX6NjUkCALAvogoAAAAAgBPWD+O6bg8NX+Gy5LQySQAA9kFUAQAAAADAbePn70pOF8YIAMC3JqoAAAAAADhx/TBu63bX8BXO61qbJAAA35qoAgAAAACAndvGz39TcnprjAAAfEuiCgAAAAAAdq9VfKzbT41fw2sVAAB8U6IKAAAAAAD+pavrqeHzX5Wcro0RAIBvRVQBAAAAAMD/6YfxsW6rxq/htQoAAL4ZUQUAAAAAAP+vH8ZN3X5p+AqXJafOJAEA+BZEFQAAAAAA/FHrr1WsSk4LYwQA4GuJKgAAAAAA+J1+GLd1+7nhK5zX1ZkkAABfS1QBAAAAAECk9dcqbkpOS2MEAOBriCoAAAAAAPgP/TB+rNuPjV+jM0kAAL6GqAIAAAAAgD+zruuh4fNflZxujREAgNcSVQAAAAAAEOqH8fGs/dceupLThWkCAPAaogoAAAAAAP5UP4ybut01fIXLulYmCQDAa4gqAAAAAAD4nK7x8/9QcloYIwAALyWqAAAAAADgL/XDuK3b+8avsTZJAABeSlQBAAAAAMCX6Op6avj835eclsYIAMBLiCoAAAAAAPisfhg/nrX/2oPXKgAAeBFRBQAAAAAAX6Qfxq5uDw1f4U3J6dYkAQD4UqIKAAAAAABeYtX4+dclpwtjBADgS4gqAAAAAAD4Yv0wfqjbXcNXOK+rM0kAAL6EqAIAAAAAgJdq/bWKdyWnhTECAPA5ogoAAAAAAF6kH8b7ur1v/BobkwQA4HNEFQAAAAAAvMbutYqnhs9/VXJaGiMAAH9FVAEAAAAAwIv1w/hYt67xa2xMEgCAvyKqAAAAAADgVfphXNftoeErXJacViYJAMCfEVUAAAAAAPA1bhs/f1dyujBGAAAiogoAAAAAAF6tH8Zt3e4avsJ5XWuTBAAgIqoAAAAAAOBr3TZ+/puS01tjBADgj77zCQAA4PhKTou6LaL/7flv/gEAwGTV37N+rL+n/an+47uGr7F7rWJpmgAA/JaoAgAAjuA5orh+Xlef+Xd32y91bXerH8YPviAAABPUnX16seK80fNf1d97X/v9NgAAv+XHfwAAwAGVnJZ1bes//rOu//lf9u7otm0rCgMwN7A3kAGCfHU3kDdwNog2sDYwO0GVCSpPUGeCWhM0eSVBwNrA3qCX9U2bpk3qOErFQ34fQJwnw/fwvFAXPy+L/whUfOS8eHrr75f098NbgE26Tt1RAADGou36h1TWwdvYmCQAAB8TqgAAgP/B8H3mHKb4tXh+kOJzFum6TtcQrli7uwAAjEXb9dvi6ZS1qBZDgNkkAQD4QKgCAAC+s7wp+1vx7WGKTw3HKv80hDXy50QAAGAMogd/156vAQD4QKgCAAC+k+HzHPl0iuvv/K+GsMa74TQMdx0AgGNru354Bn4buIUhvNyYJAAAA6EKAAD4DoZARSp3xeFPp/icYeP3t/R/V+4+AAAjEP20itfp2frCGAEAEKoAAIAD+yhQcX6Ef/+zzV8AAI6t7fr7VH4M3kZjkgAACFUAAMDhbYvjBCo+uPUpEAAARmCTrn3g9S+dBAcAgFAFAAAcUF2VwzHHl0dexvApkK1pAABwTG3XPxTxT3to8kl0AADMlFAFAAAcSF2VZ8V4No3P03oaUwEA4Jjart+msgvcwiJda5MEAJgvoQoAADic4XjjkxGtZ52DHgAAcExN8PVfe64GAJgvoQoAADiAuioviuN/9uNTQ8CjMR0AAI6p7fq7VG6Ct7ExSQCAeRKqAACAwxjrJusr34AGAGAEmnQ9Bl7/ZQ5SAwAwM0IVAADwjeqqXKVyPtLlDadVvDIlAACOqe36+yL+aQ9OqwAAmCGhCgAA+Ab5FIixb64KVQAAcHRt1zep7AO3cJ4D1QAAzIhQBQAAfJumeDoNYswujQkAgJFYB1//xuf1AADmRagCAABeqK7Ks1Sugqz1wsQAADi2tutvU9kFbmEIVDcmCQAwH0IVAADwcttAaz0zLgAARiL6aRVXOWANAMAMCFUAAMAL5JMfloGWfGZqAACMQdv171K5Cd7G1iQBAOZBqAIAAF5m6xYAAMCLDadVPAZe/9In9gAA5kGoAgAAvlJdlcMG8MKdAACAl2m7/iGVJngbW5MEAJg+oQoAAPgKdVWeFvE3fwEA4Ojart+ksg/cwiIHrgEAmDChCgAA+DpNuk7cBgAAOIhV9N8HOXgNAMBECVUAAMAz1VX5QypXQZd/b4IAAIxN2/V3qewCtzAErhuTBACYLqEKAAB4vk3gtd8bHwAAI7UKvv6rHMAGAGCChCoAAOAZ6qp8lcoy6vrzG4AAADDGZ9X7VN4Eb2NjkgAA0yRUAQAAzxN5k/St8QEAMHJNuh4Dr3+Zg9gAAEyMUAUAAPyHuiqbVBaBW7g1RQAAxqzt+odU1sHbcFoFAMAECVUAAMAX1FV5WsTe3B3e9hOqAABg9Nqu36byPnALixzIBgBgQoQqAADgy4a3zU4Cr/82v/UHAAARRD+tYp2D2QAATIRQBQAAfEZdlRepvA7cwnBKRWOSAABE0Xb9XSpvA7cwBLJ9BgQAYEKEKgAA4POa4OvftF1/b4wAAAQT/bSK1zmgDQDABAhVAADAv6ircpXKMnAL+8IbcgAABJSDwT8Gb6MxSQCAaRCqAACAT+RvIDfB22jarn8wTQAAghoCwvvA61/moDYAAMEJVQAAwD8Nxw0vAq9/13b91hgBAIgqB4Sb4G00ObANAEBgQhUAAPCRuirPivjfcG5MEgCA6HJQeBe4hcUEflsAAMyeUAUAAPzdcMzwSeD137Rdf2eMAABMRBN8/esc3AYAICihCgAAyOqqvEjlMnALj4VTKgAAmJAcGL4J3MIQ2N6YJABAXEIVAADwl+ibnZu26++NEQCAiWmKpwBxVJc5wA0AQEBCFQAAUPxxSsUqlfPALezbrm9MEgCAqcnB4fABaJMEAIhJqAIAgNmrq/K0iL/JuTZJAACmKgeI94FbOM9BbgAAghGqAACAp0DCSeD179quvzVGAABm8Nwe2SYHugEACESoAgCAWaur8iyV6+BtOKUCAIDJy0HiXeAWTjy7AwDEI1QBAMDcRf/sx03b9e+MEQCAmYgeSrjOwW4AAIIQqgAAYLbqqrxI5TJwC4+FN90AAJiRHCi+Cd7G1iQBAOIQqgAAYM62wdfftF3/YIwAAMzMECx+DLz+ZQ54AwAQgFAFAACzVFflsBG7CNzCvu36jUkCADA3OVjcBG9ja5IAADEIVQAAMDt1VZ4W8TdhVyYJAMBc5YDxPnALixz0BgBg5IQqAACYoyZdJ4HXv2u7/s4YAQCYuVX03yU58A0AwIgJVQAAMCt1VZ6lchW8jZVJAgAwdzlovAvcwhD0bkwSAGDchCoAAJibbfD1v2m7/t4YAQDgD6vg67+qq/IHYwQAGC+hCgAAZqOuylepLAO38Fh4kw0AAP6UA8dvgrexMUkAgPESqgAAYE6ib1Y2bdc/GCMAAPz9Obl4CiBHtcwBcAAARkioAgCAWairskllEbiF923Xe4MNAAA+kYPH6+BteNYHABgpoQoAACavrsrTIv4m69okAQDg37Vdv03lfeAWFjkIDgDAyAhVAAAwB8NbXyeB1/+27fo7YwQAgC8KH6TOgXAAAEbkdwHYu3/fOLYsP+C1g5fYMEAGzkmjUBVacmbABtjzF4hrZ5uoH7Cx1QM7VwmG4bQVOPLCbiaOycSZMc3AgLOV0ioUQOYOyGgTA+Nby9asnh6fxF/dXefW5wMU7lvs7uiee/gGrNa37/nJEQAAkLO6Kl+n5W3wMtxSwXP+HThOy7GTAAAm4n+n518F3fsQBB8C4XNtBAAYD6EKAAByF3028Ye266+0kYfYfLPxND2zzXPkVAAAQnmbfqdbuakOAGA8hCoAAMhWXZXDXy6fBC7htogfCmE3P+uz4u5GkzdOAwAgvKa4C8gCADACv3MEAADkaPON/eiBhEXb9Te6yXd+zl+nZ53+8Y+FQAUAQC5O0u94c8cAADAOQhUAAORq+NZ+5NEHl23Xr7SR31JXZZOWvy1i38YCAMD9mk1QHACAPTP+AwCA7NRVeVzchSoia3SS3/j5Hj5cPy+EKQAAcna0eafxXgAAsGduqgAAIEdNeg4C7/+s7fq1NvKtTaBi+NkQqAAAyN9iExgHAGCPhCoAAMhKXZWztLwNXMJt4dto3P+z/SVQ8cppAABMwhAUXzoGAID9EqoAACA3TfD9L9uuv9JG7rEuBCoAAKbmzSY4DgDAnghVAACQjboq50XssQjXhW+icf/P9vBzIVABADBN3hEAAPZIqAIAgCxsRiNE/7Cxabv+Rjf55md7lpZ3TgIAYLJebQLkAADsgVAFAAC5WBR3M4ejumy7fqWN3MPPBQAAy02QHACAHROqAAAgvLoqj9PyPngZC53knp/teVqOnAQAwOQdeGcAANgPoQoAAHIQfezHWdv1n7SRe/jgHAAAvxsCAOyRUAUAAKHVVTlLy5vAJdwWPhzl/p/t12l55SQAANg4SL8jnjoGAIDdEqoAACC66LdULNuuv9FG7jF3BAAAfEOoAgBgx4QqAAAIq67K4YaHyN/kv267vtFJfsPMEQAA8A2hCgCAHROqAAAgpLoqD9PSBC/D2A++x+gPAAC+dbAZEwcAwI4IVQAAEFWTnoPA+79su/5cG7lPXZUzpwAAwG84dgQAALsjVAEAQDh1VR6n5V3wMuY6CQAAPIGbKgAAdkioAgCAiFbB9/+x7forbeQ7Zo4AAAAAAPZPqAIAgFA2YxFOApdwW9yNLgEAAAAAYOSEKgAAiGYVfP9N2/U32ggAAAAAMH5CFQAAhFFX5SItR4FLuG67fqmTPMAnRwAAAAAA+ydUAQBACHVVHhbxx2bMdZIHcpsJAAC/5coRAADsjlAFAABRDDc8HATe/0Xb9Wtt5IGuHAEAAH5XBADYP6EKAABGr67K12l5G7yMhU7yUG3XX6Xl2kkAAHDP74prpwAAsDtCFQAARLAMvv8Pm78kh8dYOwIAAL5x6QgAAHZLqAIAgFGrq/I0LSeBS7gt4odC2I9zRwAAgN8RAQD2S6gCAICxix5IWLRdf6ONPFb6uRk+ML91EgAAfEWoAgBgx4QqAAAYrboqm7QcBS7hc9v1K53kGdxyAgDAF2fGCgIA7J5QBQAAo1RX5XFaFsHLWOgkzzSEKtxWAQDAoHEEAAC7J1QBAMBYNek5CLz/i7br19rIc2xGx7itAgCAj26pAADYD6EKAABGp67KWVreBi5huFnALRW8iLbrm7R8dhIAAJN1XbilAgBgb4QqAAAYoyb4/pe+RcYLOy2MAQEAmKrF5gYzAAD2QKgCAIBRqatynpaTwCUM3yIzroEXtQnpnDoJAIDJGcYKnjsGAID9EaoAAGA06qo8LOLfUtH4FhnbkH6u1mn52UkAAEzGcFPZ3DEAAOyXUAUAAGOySM9R4P1ftl2/0ka2ZfPz9ZeFUSAAAFMwF9gGANg/oQoAAEahrsrj4i5UEVmjk2zb5vrnWXo+Ow0AgGwZ+wEAMBJCFQAAjMUyPQeB93+2Gc8AW5d+1j6l53X6xw+FWysAAHJj7AcAwIgIVQAAsHd1Vc7S8iZwCcOHngudZNfarm/SMoQrzgrhCgCAXDTGfgAAjIdQBQAAY7CMvn8ferIv6WfvKj3z9I/H6fk5PRdOBQAgrMv0u93SMQAAjMdPjgAAgH2qq3KelleBS7je3BYAe7UJ9qw2z/Dv1nCDxXFxd5MFAEDuhpvjDoLXYOwHAMAICVUAALA3dVUeFvFvqTD2g1Fqu/5TWobn3GkAAJm/VzRF/EDFYBj7caWjAADjYvwHAAD7FP3bZMPVvP7CGgAA9mRzO9f7DEox9gMAYKSEKgAA2Iu6Ko+L+B9+uqUCAAD2a5VJHXOtBAAYJ6EKAAD2ZRV8/2eb8QoAAMAebMZ+vMqglA/GfgAAjJdQBQAAO1dX5SwtJ4FLuC3cUgEAAPt8p8hl7MfntusbHQUAGC+hCgAA9mEVfP9N2/U32ggAAHuzzKSOuVYCAIybUAUAADtVV+Vww8NR4BKu265f6iQAAOz1neIkg1I+GCkIADB+QhUAAOxMXZWHaWmClzHXSQAA2Ns7xXEG7xQDYz8AAIIQqgAAYJea9BwE3v9l2/VrbQQAgL1ZBX+n+GKhlQAAMQhVAACwE3VVvk7Lu+BlzHUSAAD29k6Ry9iPj8LaAABxCFUAALAry+D7Hz74vNJGAADYvYzGflxnUgcAwGQIVQAAsHV1VZ4Wsb9Rdlv44BMAAPZpCGnnMPZj3nb9jXYCAMQhVAEAwC5Ev6Vi4YNPAADYj01I+00GpRj7AQAQkFAFAABbVVdlk5ajwCV8brt+pZMAALCX94nDtOTw+7ixHwAAQQlVAACwNZsPQBfBy1joJAAA7M2qyGPsh9vvAACCEqoAAGCbos89vnA9LwAA7EdGYz+G94pzHQUAiEmoAgCArair8nVa3gYvwy0VAACwn/eJXMZ+3KZnrqMAAHEJVQAAsC3L4Pv/0Hb9lTYCAMBeNEUeYz/mxn4AAMQmVAEAwIurq3KelpPAJVwX8UMhAAAQ9X1ilpZ3GZRi7AcAQAaEKgAAeFGba3qb4GU0vk0GAAB7e59YZVCKsR8AAJkQqgAA4KUt0nMUeP+XbdevtBEAAPaiCf4+8ec6BLUBAPIgVAEAwIupq/K4uAtVRNboJAAA7OV9YlbkMfZjCGobJwgAkAmhCgAAXlKTnoPA+z9ru36tjQAAsBerDGow9gMAIDNCFQAAvIjNt8reBi5h+PCz0UkAANjL+8Twu3guYz+udBQAIB9CFQAAvJTo19suffgJAAC7V1fl67S8z6AUYz8AADIkVAEAwLPVVTlPy6vAJVwX8UMhAAAQ1SqTOuZaCQCQH6EKAACepa7KwyJ+IGHRdv2NbgIAwM7fJ5oidkD7iw9uvgMAyJNQBQAAz7VIz0Hg/Q9X9J5rIwAA7FZGYz8+p3eKRkcBAPIkVAEAwJPVVXlcxP8QdKGTAACwF6tM6phrJQBAvoQqAAB4juhjP87arv+kjQAAsFt1VQ7h5lzGfninAADImFAFAABPUlflLC1vApdwW7ilAgAA9vEucZyWJoNSjP0AAJgAoQoAAJ4q+i0Vy7brb7QRAAB2bpWegwzqENIGAJgAoQoAAB4tg6t6r32jDAAA9vYucZJBKR/TO8VaRwEA8idUAQDAo9RVeVjEv6p3rpMAALDzd4njIo+xH9eZ1AEAwAMIVQAA8FhNEfuq3kvfKAMAgL1YFXmM/ZgbJQgAMB1CFQAAPNjmm2Xvgpcx10kAANj5u8RpYewHAAABCVUAAPAYq+D7Hz4AvdJGAADYnc0IwVUGpRj7AQAwQUIVAAA8SF2VsyL2N8tuCx+AAgDAPqyKPMZ+LIz9AACYHqEKAAAeahV8/40PQAEAYLc2Yz/eZFDKRXqfONdRAIDpEaoAAOCH6qps0nIUuITrtuuXOgkAADt9j8hl7Mdw691cRwEApkmoAgCA79p8ELoIXsZcJwEAYOeGYHMOYz/mbr0DAJguoQoAAH4k+gehwzW9a20EAIDdqatylpa3GZRi7AcAwMQJVQAA8JvqqnxdxP8gdKGTAACw0/cIYz8AAMiGUAUAAN+zDL7/D23XX2kjAADsVJOeoxzqMPYDAAChCgAA7lVX5WlaTgKXMHyrbKmTAACw0/eIWVreZVDKZdv13icAABCqAADg1zbX9Ub/AHHhW2UAALDz94hVBqUY+wEAwJ8JVQAAcJ9FEfu63s9t16+0EQAAvEc8QWOMIAAAXwhVAADwC3VVHhd3H4ZGttBJAADY6XvE67S8z6AUYz8AAPgFoQoAAL7VpOcg8P7P2q5fayMAAOzUKpM65loJAMDXhCoAAPizuipnaXkbuIRh9nGjkwAAsNP3iOF38FcZlPLB2A8AAL4lVAEAwNea4Ptf+hAUAAB2J6OxH5/Tu0SjowAAfEuoAgCAv1dX5TwtJ4FLuE6P2ccAALBbq0zqmGslAAD3EaoAAGAIVBwW8W+paNquv9FNAADY2XvEoshn7McnHQUA4D5CFQAADIYPQ48C7/+y7fqVNgIAwG7UVXlcxA9mD4z9AADgu4QqAAAmbvNhaPQZyAudBACAnVql5yCDOrxLAADwXUIVAAAsg+//zFW9AACwO5uxHycZlPIxvUusdRQAgO8RqgAAmLC6KmdpeRO4hNvCN8sAAGCX7xDHRR5jP64zqQMAgC0TqgAAmLbot1Qs266/0UYAANiZVZHH2I+5dwkAAB5CqAIAYKLqqpyn5VXgEq7brm90EgAAdvYOcVoY+wEAwMQIVQAATFBdlYdF/FsqjP0AAIDdvkOsMijF2A8AAB5FqAIAYJqaIvaVvZdt159rIwAA7MyqyGPsx8LYDwAAHkOoAgBgYuqqPE7Lu+BluKUCAAB29w4xjP14k0EpF8LZAAA8llAFAMD0rILvf5h//EkbAQBg+zIa+3GbnrmOAgDwWEIVAAATUlflLC0ngUsYPghtdBIAAHZmWeQx9mNu7AcAAE8hVAEAMC2r4PtvfBAKAAC7sQllv82gFGM/AAB4MqEKAICJqKtykZajwCVct12/1EkAANjJ+4OxHwAAUAhVAABMwuYD0SZ4GXOdBACAnRneH45yqMNtdwAAPIdQBQDANDRF7DnIl23Xr7URAAC2bzP2410GpVy67Q4AgOcSqgAAyFxdla+L+B+IznUSAAB28v5g7AcAAHxFqAIAIH/Rv5n1oe36K20EAICdWBT5jP3wHgEAwLMJVQAAZKyuytO0nAQuYfh2met6AQBgN+8Pwy137zMoxdgPAABejFAFAEDeon+QuGi7/kYbAQBgJ1aZ1DHXSgAAXopQBQBApuqqbIrY1/Z+brt+pZMAALCz94dXGZRifCAAAC9KqAIAIEN1VR4Wd7OQI1voJAAA7OT9IZexH0Mwu9FRAABeklAFAECehrEfB4H3f9F2/VobAQBgJ1aZ1DHXSgAAXppQBQBAZuqqnKXlbfAy3FIBAAC7eX8YfvfOZezHJx0FAOClCVUAAOSnCb5/M5ABAGAH6qo8zuD9YWDsBwAAWyNUAQCQkboq52k5CVzCdXE3ugQAANi+VRF7bOAXc60EAGBbhCoAADJRV+VhEf9bZk3b9Te6CQAAW39/GMZ+nGRQykdjPwAA2CahCgCAfAwfih4F3v9l2/UrbQQAgO3KaOzHdSZ1AAAwYkIVAAAZ2HwougheRqOTAACwE6sik7EfbroDAGDbhCoAAPKwLGJ/KHrWdv1aGwEAYLvqqjwt8hn74R0CAICtE6oAAAiurspZWt4ELuG2cEsFAADs4t3hsLi7pSI6Yz8AANgZoQoAgPiW0fffdv2VNgIAwNatCmM/AADgUYQqAAACq6tynpZXgUu4bru+0UkAANj6u8Mw9uNNBqVcGPsBAMAuCVUAAAS1ubo3+i0VC50EAICdvDusMihlGB0411EAAHbpJ0cAABDWEEiIfHXvcF3voq5KwQoAILqrzbNOzydjCRihZWHsBwAAPIlQBQBAQHVVHqflffAyhm/LnegmAJCBL7/TvN/8rnaRlvO261eOhhG8O8zS8jaDUoaxH+c6CgDArhn/AQAQ09IRAACM1pv0/Pe6Km/S0zgO9sXYDwAAeD6hCgCAYDbfNHvjJAAARm8Yt/A+/f52tfkdDnatSc9RBnUsjP0AAGBfhCoAAOJZOQIAgFCGv9T+Y12VbhtjZzZBnncZlHJplA4AAPskVAEAEEhdlYsij2+aAQBM0bv0+9x6M5IBtvneYOwHAAC8EKEKAIAgNh+M/icnAQAQ2kl6BCvYtlzC2E3b9VfaCQDAPglVAADE8V/S848dAwBAeK/Sc+4Y2Ia6Kl+n5X0GpQxjP4zMAQBg74QqAAACqKvyn6flr5wEAEA2TtLveP7CmG1YZVCDsR8AAIyGUAUAQAz/yxEAAGTnXV2VM8fAS0k/T01xdxNKdEtjPwAAGAuhCgCAkaur8j+n5Z86CQCALK0cAS/03pDL2I/Pbdc3OgoAwFgIVQAAjN9/cAQAANk6qqty7hh4AatM6vDvAwAAoyJUAQAwYnVV/k1afnISAABZaxwBz3xvWBR5jP340Hb9Jx0FAGBMhCoAAMbt3zoCAIDsDbdVnDoGniL97BwXeQRzjP0AAGCUhCoAAEaqrsp/nZZDJwEAMAlzR8ATrdJz4N8BAADYDqEKAIDx+veOAABgMmaOgMfajP04yaCUj8Z+AAAwVkIVAADj9S8dAQDAZBzUVTlzDDxURmM/rjOpAwCATAlVAACM14EjAACYlNeOgEdYZfLOMG+7/kY7AQAYK6EKAIDx+keOAABgUg4dAQ9RV+Vpkc/Yj7WOAgAwZkIVAAAAADAObqrgh+qqHMI3qwxKMfYDAIAQhCoAAEaorsq/dgoAAJPjpgoeYlUY+wEAADsjVAEAME7/xBEAAABf24z9eJNBKRfGfgAAEIVQBQDACLVdv3QKAADAFxmN/bhNz1xHAQCIQqgCAAAAAMZh7Qj4jiF4bewHAADsmFAFAMB4/T9HAAAA1FU5S8vbDEoZxn6c6ygAAJEIVQAAjNf/dQQAAJOydgR8y9gPAADYL6EKAIDx+j+OAABgOtquXzsF7tGk5yiDOhbGfgAAEJFQBQDAeP1XRwAAMBkXjoBvbcZ+vMuglMu261c6CgBAREIVAAAj1Xb9/0zL3zkJAIBJOHcEfM3YDwAAGAehCgCAcfsfjgAAIHvDXzoLVfCtRZHH2I+m7for7QQAICqhCgCAcfuP6fmTYwAAyNqy7fobx8AXdVW+Tsv7DEoZxn4sdRQAgMiEKgAARqzt+uu0/DcnAQCQreGWCn/pzLdWmfxsz7USAIDohCoAAEau7fq/TsvfOQkAgCzN3VLB1+qqbNLyKoNSlsZ+AACQA6EKAIAY/p0jAADIzkXb9eeOgS8yGvvxOf1sNzoKAEAOhCoAAAJou/5v0vK3TgIAIBufC6MR+LVVJnX42QYAIBtCFQAAcfwbRwAAkIXb9MyM/eBrdVUuijzGfnxIP9ufdBQAgFwIVQAABLGZR/zBSQAAhDbcUPFaoIKv1VV5nJYmh59vYz8AAMiNUAUAQCzL4u6bjQAAxHNZ3N1QceUo+MYqPQcZ1DHXSgAAciNUAQAQyOYbjQsnAQAQyhCK/UP6Xc7ID35lM/bjJINSPhr7AQBAjoQqAACCabt+Vdx9yxEAgPE7K+7GfSwdBd/KaOzHdSZ1AADAr/zkCAAAQmrS80fHAAAwSsNfMJ+nZ2nUBz+wKjIZ++EWFgAAciVUAQAQUNv167oqh289vnUaAAB7N9wiNvyF8jD64NwIBB4i/T5/WuQz9mOtowAA5EqoAgAgriY9wwexkb/Z9nsfwAIAMDV1VR4Wd7dURGfsBwAA2fudIwAAiGlzlXT02dxmiwMAMEWrwtgPAAAIQagCACC2IZRwHXj/r+qqnGsjAABTsRn78SaDUi7cOgcAwBQIVQAABLb5VtgieBnLzfXHAACQtYzGftymZ66jAABMgVAFAEBwbdefp+UycAnDtccLnQQAYAKawtgPAAAIRagCACAP0UMJ7+uqPNZGAABytfl9910GpVxsgt0AADAJQhUAABlou/5TWs6Cl7HSSQAAMpbD7WzGfgAAMDlCFQAA+Rg+pL0NvP+Tuipn2ggAQKbmObxzGPsBAMDUCFUAAGRi8+HmMngZK50EACA3dVWepuUgeBmX6Z3D7+sAAEyOUAUAQEbarm/Sch24hKO6Khc6CQBAZmbB92/sBwAAkyVUAQCQn3nw/Td1VR5qIwAAGZlF/x297forbQQAYIqEKgAAMtN2/Totl4FLGK5FbnQSAICMvAq892Hsx1ILAQCYKqEKAIA8zYPv/11dla+1EQCA6NLvtceBt2/sBwAAkydUAQCQoc3VvB+Dl+HbcAAA5OA48u/kxn4AADB1QhUAAPlqirtvlkV1UlflqTYCAMBefG67vnEMAABMnVAFAECm2q6/Ke6CFZG5rQIAAPZj7ggAAECoAgAga23XD6GEz4FLOKqrstFJAADYqQ/pXeKTYwAAAKEKAIApWETff12Vh9oIAEBEbdevg23Z2A8AAPiKUAUAQOY2H+JeBC7hoDAGBACA2G4D7XWuXQAA8A+EKgAApiH6bRVv66qcaSMAAEGtg+zzo7EfAADwS0IVAAAT0Hb9VVo+BC+j0UkAAIJaB9jjtd+5AQDg14QqAACmYxihcRt4/yd1Vc61EQCAgM4D7HHedv2NVgEAwC8JVQAATMTmA9LoY0CauioPdRMAgGC/i1+l5XLEWxzGfqx1CgAAfk2oAgBgQtquXxXj/jD3R46K+MEQAACmaTXSfRn7AQAA3yFUAQAwPU3w/S/qqjzWRgAAItkEnK9HuDVjPwAA4DuEKgAAJmZzre9Z4BIO0rPUSQAAAhrbrWsXxn4AAMD3CVUAAExTk57bwPt/U1flTBsBAIik7frztFyMZDvD+8BcVwAA4PuEKgAAJqjt+qsi/m0PbqsAACCieTGOMSCnxn4AAMCPCVUAAEzXEEq4Drz/V3VVzrURAIBINkGG02K/N8f9bOwHAAA8jFAFAMBEbT7MXQQvY1lX5aFuAgAQ7HfxT2mZFfsJVpylP3+lCwAA8DBCFQAAE7aZ6XwZuISDIn4wBACAaf4uvo9gxR/Snzt3+gAA8HBCFQAARA8lvK+r8lgbAQCIZhOseJ2ez1v+o4bgxl+mP2/p1AEA4HGEKgAAJm7zQe5Z8DJWOgkAQNDfx6/SMwQrPhTbubXiIj3Hm1vqAACARxKqAABgMNxWcRt4/yd1Vc60EQCAqNqub4q7WyvOXuh382HM3+/Tf+5pem6cMAAAPI1QBQAAxeZD1uhXAa90EgCA4L+XD7dWzNM/Hqfn5+IuGPEYwxiRj+n5Z+k/Z5aetVMFAIDn+Ys//elPTgGAUaqrcp2Wk7Hvs+36v9AtMvr37iotR4FL+IM50QAAZPh7+qy4u8XicPMM/zwEoz9t/k+G9+chkHHltIB7/jtk+O8In7EBwBP95AgAAPjKPD1/DLz/pq7KleuNAQDIyebGibWTAACA3TP+AwCAP9t8WHsZuISD9DQ6CQAAAADASxCqAADgW/Pg+39XV+VrbQQAAAAA4LmEKgAA+IXNHOaPwctY6iQAAAAAAM8lVAEAwH2a9NwG3v9JXZWn2ggAAAAAwHMIVQAA8Ctt198Ud8GKyNxWAQAAAADAswhVAABwr7brh1DC58AlHNVV2egkAAAAAABPJVQBAMD3LKLvv67KQ20EAAAAAOAphCoAAPhNbdev03IRuISDwhgQAAAAAACeSKgCAIAfiX5bxdu6KmfaCAAAAADAYwlVAADwXW3XX6XlQ/AyGp0EAAAAAOCxhCoAAHiIYYTGbeD9n9RVOddGAAAAAAAeQ6gCAIAfarv+pog/BqSpq/JQNwEAAAAAeCihCgAAHqTt+lVaLgOXcFTED4YAAAAAALBDQhUAADxGE3z/i7oqj7URAAAAAICHEKoAAODB2q5fp+UscAkH6VnqJAAAAAAADyFUAQDAYzXpuQ28/zd1Vc60EQAAAACAHxGqAADgUdquvyri3/bgtgoAAAAAAH5IqAIAgKcYQgnXgff/qq7KuTYCAAAAAPA9QhUAADxa2/U3aVkEL2NZV+WhbgIAAAAA8FuEKgAAeJK268/Tchm4hIMifjAEAAAAAIAtEqoAAOA5oocS3tdVeayNAAAAAADcR6gCAIAna7v+U1rOgpex0kkAAAAAAO4jVAEAwHMNt1XcBt7/SV2VM20EAAAAAOBbQhUAADxL2/U3aVkGL2OlkwAAAAAAfEuoAgCAZ2u7vknLdeASjuqqXOgkAAAAAABfE6oAAOClzIPvv6mr8lAbAQAAAAD4QqgCAIAX0Xb9Oi2XgUs4SE+jkwAAAAAAfCFUAQDAS5oH3/+7uipfayMAAAAAAAOhCgAAXkzb9Vdp+Ri8jKVOAgAAAAAwEKoAAOClNem5Dbz/k7oqT7URAAAAAAChCgAAXlTb9TfFXbAiMrdVAAAAAAAgVAEAwMtru34IJXwOXMJRXZWNTgIAAAAATJtQBQAA27KIvv+6Kg+1EQAAAABguoQqAADYirbr12m5CFzCQWEMCAAAAADApAlVAACwTdFvq3hbV+VMGwEAAAAApkmoAgCArWm7/iotH4KX0egkAAAAAMA0CVUAALBtwwiN28D7P6mrcq6NAAAAAADTI1QBAMBWtV1/U8QfA9LUVXmomwAAAAAA0yJUAQDA1rVdv0rLZeASjor4wRAAAAAAAB5JqAIAgF1pgu9/UVflsTYCAAAAAEyHUAUAADvRdv06LWeBSzhIz1InAQAAAACmQ6gCAIBdatJzG3j/b+qqnGkjAAAAAMA0CFUAALAzbddfFfFve3BbBQAAAADARAhVAACwa0Mo4Trw/l/VVTnXRgAAAACA/AlVAACwU23X36RlEbyMZV2Vh7oJAAAAAJA3oQoAAHau7frztFwGLuGgiB8MAQAAAADgB4QqAADYl+ihhPd1VR5rIwAAAABAvoQqAADYi7brP6XlLHgZK50EAAAAAMiXUAUAAPs03FZxG3j/J3VVzrQRAAAAACBPQhUAAOxN2/U3aVkGL2OlkwAAAAAAeRKqAABgr9qub9JyHbiEo7oqFzoJAAAAAJAfoQoAAMZgHnz/TV2Vh9oIAAAAAJAXoQoAAPau7fp1Wi4Dl3CQnkYnAQAAAADyIlQBAMBYzIPv/11dla+1EQAAAAAgH0IVAACMQtv1V2n5GLyMpU4CAAAAAORDqAIAgDFp0nMbeP8ndVWeaiMAAAAAQB6EKgAAGI2262+Ku2BFZG6rAAAAAADIhFAFAACj0nb9EEr4HLiEo7oqG50EAAAAAIhPqAIAgDFaRN9/XZWH2ggAAAAAEJtQBQAAo9N2/TotF4FLOCiMAQEAAAAACE+oAgCAsYp+W8Xbuipn2ggAAAAAEJdQBQAAo9R2/VVaPgQvo9FJAAAAAIC4hCoAABizYYTGbeD9n9RVOddGAAAAAICYhCoAABittutvivhjQJq6Kg91EwAAAAAgHqEKAABGre36VVouA5dwVMQPhgAAAAAATJJQBQAAETTB97+oq/JYGwEAAAAAYhGqAABg9NquX6flLHAJB+lZ6iQAAAAAQCxCFQAARNGk5zbw/t/UVTnTRgAAAACAOIQqAAAIoe36qyL+bQ9uqwAAAAAACESoAgCASIZQwnXg/b+qq3KujQAAAAAAMQhVAAAQRtv1N2lZBC9jWVfloW4CAAAAAIyfUAUAAKG0XX+elsvAJRwU8YMhAAAAAACTIFQBAEBE0UMJ7+uqPNZGAAAAAIBxE6oAACCctus/peUseBkrnQQAAAAAGDehCgAAohpuq7gNvP+Tuipn2ggAAAAAMF5CFQAAhNR2/U1alsHLWOkkAAAAAMB4CVUAABBW2/VNWq4Dl3BUV+VCJwEAAAAAxkmoAgCA6ObB99/UVXmojQAAAAAA4yNUAQBAaG3Xr9NyGbiEg/Q0OgkAAAAAMD5CFQAA5GAefP/v6qp8rY0AAAAAAOMiVAEAQHht11+l5WPwMpY6CQAAAAAwLkIVAADkoknPbeD9n9RVeaqNAAAAAADjIVQBAEAW2q6/Ke6CFZG5rQIAAAAAYESEKgAAyEbb9UMo4XPgEo7qqmx0EgAAAABgHIQqAADIzSL6/uuqPNRGAAAAAID9E6oAACArbdev03IRuISDwhgQAAAAAIBREKoAACBH0W+reFtX5UwbAQAAAAD2S6gCAIDstF1/lZYPwctodBIAAAAAYL+EKgAAyNUwQuM28P5P6qqcayMAAAAAwP4IVQAAkKW262+K+GNAmroqD3UTAAAAAGA/hCoAAMhW2/WrtFwGLuGoiB8MAQAAAAAIS6gCAIDcNcH3v6ir8lgbAQAAAAB2T6gCAICstV2/TstZ4BIO0rPUSQAAAACA3ROqAABgCpr03Abe/5u6KmfaCAAAAACwW0IVAABkr+36qyL+bQ9uqwAAAAAA2DGhCgAApmIIJVwH3v+ruirn2ggAAAAAsDtCFQAATELb9TdpWQQvY1lX5aFuAgAAAADshlAFAACT0Xb9eVouA5dwUMQPhgAAAAAAhCFUAQDA1EQPJbyvq/JYGwEAAAAAtk+oAgCASWm7/lNazoKXsdJJAAAAAIDtE6oAAGCKhtsqbgPv/6Suypk2AgAAAABsl1AFAACT03b9TVqWwctY6SQAAAAAwHYJVQAAMElt1zdpuQ5cwlFdlQudBAAAAADYHqEKAACmbB58/01dlYfaCAAAAACwHUIVAABMVtv167RcBi7hID2NTgIAAAAAbIdQBQAAUzcPvv93dVW+1kYAAAAAgJcnVAEAwKS1XX+Vlo/By1jqJAAAAADAyxOqAACAuxEat4H3f1JX5ak2AgAAAAC8LKEKAAAmr+36m+IuWBGZ2yoAAAAAAF6YUAUAABR/H6wYQgmfA5dwVFdlo5MAAAAAAC9HqAIAAP7BIvr+66o81EYAAAAAgJchVAEAABtt16/TchG4hIPCGBAAAAAAgBcjVAEAAL8U/baKt3VVzrQRAAAAAOD5hCoAAOArbddfpeVD8DIanQQAAAAAeD6hCgAA+LVhhMZt4P2f1FU510YAAAAAgOcRqgAAgG+0XX9TxB8D0tRVeaibAAAAAABPJ1QBAAD3aLt+lZbLwCUcFfGDIQAAAAAAeyVUAQAAv60Jvv9FXZXH2ggAAAAA8DRCFQAA8Bvarl+n5SxwCQdF/GAIAAAAAMDeCFUAAMD3Nem5Dbz/07oqD7URAAAAAODxhCoAAOA72q6/SssycAnDbRWnOgkAAAAA8HhCFQAA8GNDqOI68P6FKgAAAAAAnkCoAgAAfqDt+pu0LAKX8EYXAQAAAAAeT6gCAAAeoO3687RcRt1/XZUzXQQAAAAAeByhCgAAeLjIt1Ucax8AAAAAwOMIVQAAwAO1Xf8pLWdBt3+sgwAAAAAAjyNUAQAAjzPcVnHrGAAAAAAA8idUAQAAj9B2/U1alk4CAAAAACB/QhUAAPBIbdc3abl2EgAAAAAAeROqAACAp5k7AgAAAACAvAlVAADAE7Rdv07LZaAtX+kaAAAAAMDjCFUAAMDTzQPt9Uq7AAAAAAAeR6gCAACeqO36q7R8DLLXtY4BAAAAADyOUAUAADxPk57bke/xQpsAAAAAAB5PqAIAAJ6h7fqb4i5YMWbnOgUAAAAA8HhCFQAA8Ext1y/T8nmk2xtu0RCqAAAAAAB4AqEKAAB4GYuR7ut8c5sGAAAAAACPJFQBAAAvoO36dVouRri1RncAAAAAAJ5GqAIAAF7OcFvF7Yj286Ht+ittAQAAAAB4GqEKAAB4IZsAQzOS7XxO+2l0BQAAAADg6YQqAADgBbVdvyz2PwZkuC1jrhsAAAAAAM8jVAEAAC9vnp7P+/zz267/pA0AAAAAAM8jVAEAAC+s7fqbtMyK/QQrfk5//rkuAAAAAAA8n1AFAABswVfBissd/ZHDyI/fpz935fQBAAAAAF6GUAUAAGzJEKxIzyz944ct/1FDcON1+rPWTh0AAAAA4OUIVQAAwJa1Xd+k5V8UL39rxXA7xR+G4EZ6rpw0AAAAAMDLEqoAAIAdaLv+0+bWit8Xzw9XXBd3t18cp//MpdMFAAAAANiOnxwBAADszmZEx6yuyuO0nm6ekwf8vw5BiuH/9zz9Z5w7SQAAAACA7ROqAACAPdiM61hunqKuytdpOdz8r2fpudo8X4IYAAAAAADsmFAFAACMwDAe5Kv/ce1EAAAAAAD273eOAAAAAAAAAADg14QqAAAAAAAAAADuIVQBAAAAAAAAAHAPoQoAAAAAAAAAgHsIVQAAAAAAAAAA3EOoAgAAAAAAAADgHkIVAAAAAAAAAAD3EKoAAAAAAAAAALiHUAUAAAAAAAAAwD2EKgAAAAAAAAAA7iFUAQAAAAAAAABwD6EKAAAAAAAAAIB7CFUAAAAAAAAAANxDqAIAAAAAAAAA4B5CFQAAAAAAAAAA9xCqAAAAAAAAAAC4h1AFAAAAAAAAAMA9hCoAAAAAAAAAAO4hVAEAAAAAAAAAcA+hCgAAAAAAAACAewhVAAAAAAAAAADcQ6gCAAAAAAAAAOAeQhUAAAAAAAAAAPcQqgAAAAAAAAAAuIdQBQAAAAAAAADAPYQq+P/s3cFtHFUAx+EFcYcOsLTaPdMB0EHowHSQDlg6sDtIOnAJoQPnuquVnA5MBc6ssjd+JwLye6Pvk57m/r+N9Jt5AAAAAAAAAEAQVQAAAAAAAAAABFEFAAAAAAAAAEAQVQAAAAAAAAAABFEFAAAAAAAAAEAQVQAAAAAAAAAABFEFAAAAAAAAAEAQVQAAAAAAAAAABFEFAAAAAAAAAEAQVQAAAAAAAAAABFEFAAAAAAAAAEAQVQAAAAAAAAAABFEFAAAAAAAAAEAQVQAAAAAAAAAABFEFAAAAAAAAAEAQVQAAAAAAAAAABFEFAAAAAAAAAEAQVQAAAAAAAAAABFEFAAAAAAAAAEAQVQAAAAAAAAAABFEFAAAAAAAAAEAQVQAAAAAAAAAABFEFAAAAAAAAAEAQVQAAAAAAAAAABFEFAAAAAAAAAEAQVQAAAAAAAAAABFEFAAAAAAAAAEAQVQAAAAAAAAAABFEFAAAAAAAAAEAQVQAAAAAAAAAABFEFAAAAAAAAAEAQVQAAAAAAAAAABFEFAAAAAAAAAEAQVQAAAAAAAAAABFEFAAAAAAAAAEAQVQAAAAAAAAAABFEFAAAAAAAAAEAQVQAAAAAAAAAABFEFAAAAAAAAAEAQVQAAAAAAAAAABFEFAAAAAAAAAEAQVQAAAAAAAAAABFEFAAAAAAAAAEAQVQAAAAAAAAAABFEFAAAAAAAAAEAQVQAAAAAAAAAABFEFAAAAAAAAAEAQVQAAAAAAAAAABFEFAAAAAAAAAEAQVQAAAAAAAAAABFEFAAAAAAAAAEAQVQAAAAAAAAAABFEFAAAAAAAAAEAQVQAAAAAAAAAABFEFAAAAAAAAAEAQVQAAAAAAAAAABFEFAAAAAAAAAEAQVQAAAAAAAAAABFEFAAAAAAAAAEAQVQAAAAAAAAAABFEFAAAAAAAAAEAQVQAAAAAAAAAABFEFAAAAAAAAAEAQVQAAAAAAAAAABFEFAAAAAAAAAEAQVQAAAAAAAAAABFEFAAAAAAAAAEAQVQAAAAAAAAAABFEFAAAAAAAAAEAQVQAAAAAAAAAABFEFAAAAAAAAAEAQVQAAAAAAAAAABFEFAAAAAAAAAEAQVQAAAAAAAAAABFEFAAAAAAAAAEAQVQAAAAAAAAAABFEFAAAAAAAAAEAQVQAAAAAAAAAABFEFAAAAAAAAAEAQVQAAAAAAAAAABFEFAAAAAAAAAEAQVQAAAAAAAAAABFEFAAAAAAAAAEAQVQAAAAAAAAAABFEFAAAAAAAAAEAQVQAAAAAAAAAABFEFAAAAAAAAAEAQVQAAAAAAAAAAhO9MAABfZ7/bHqwAAAAAwKBuTAAA/56oAgC+3h8mAAAAAAAAWB/XfwAAAAAAAAAABFEFAAAAAAAAAEAQVQAAAAAAAAAABFEFAAAAAAAAAEAQVQAAAAAAAAAABFEFAAAAAAAAAEAQVQAAAAAAAAAABFEFAAAAAAAAAEAQVQAAAAAAAAAABFEFAAAAAAAAAEAQVQAAAAAAAAAABFEFAAAAAAAAAEAQVQAAAAAAAAAABFEFAAAAAAAAAEAQVQAAAAAAAAAABFEFAAAAAAAAAEAQVQAAAAAAAAAABFEFAAAAAAAAAEAQVQAAAAAAAAAABFEFAAAAAAAAAEAQVQAAAAAAAAAABFEFACN7MgEAAAAAAACvRVQBwMieTAAAAAAAq/fRBACMSlQBwMgeTQAAAAAAq/dkAgBGJaoAYGSiCgAAAABYvw8mAGBUogoAhnU8nZ82fv0HAAAAAGv3YAIARiWqAMALFQAAAADwWj5dP64CgCGJKgAY3TsTAAAAAMBq3ZkAgJGJKgAY2rVSf28JAAAAAFidvzc+qgJgcKIKAGZwMAEAAAAArM7d8XR+NgMAIxNVADC8698q7i0BAAAAAKvxaePqDwAmIKoAYBaH64sWAAAAADC/W3+pAGAGogoApnB9wXqz+XLPIgAAAAAwrz+Pp/MHMwAwA1EFANNYXrQel8dbSwAAAADAtN4fT+eDGQCYhagCgKksL1zvlsfvlgAAAACA6VyCilszADATUQUA07mGFb9uXAUCAAAAALO4F1QAMCNRBQBTut65+NNy/rIGAAAAAAzr8mHUb8fT2bW+AEzpm5eXFysAMLX9bnu7PO6W8701AAAAAGAY98s5HE/nZ1MAMCtRBQCrsN9tf1get8u5FO8/WgQAAAAAXsXlzxQPmy8xxZM5AJidqAKA1dnvtpdrQd4s55fl/GwRAAAAAPhffVzO43IejqfzgzkAWBNRBQCrt99tb5bHjSUAAAAA4D/1fDydH80AwJqJKgAAAAAAAAAAwrcmAAAAAAAAAAD4J1EFAAAAAAAAAEAQVQAAAAAAAAAABFEFAAAAAAAAAEAQVQAAAAAAAAAABFEFAAAAAAAAAEAQVQAAAAAAAAAABFEFAAAAAAAAAEAQVQAAAAAAAAAABFEFAAAAAAAAAEAQVQAAAAAAAAAABFEFAAAAAAAAAEAQVQAAAAAAAAAABFEFAAAAAAAAAEAQVQAAAAAAAAAABFEFAAAAAAAAAEAQVQAAAAAAAAAABFEFAAAAAAAAAEAQVQAAAAAAAAAABFEFAAAAAAAAAEAQVQAAAAAAAAAABFEFAAAAAAAAAEAQVQAAAAAAAAAABFEFAAAAAAAAAEAQVQAAAAAAAAAABFEFAAAAAAAAAEAQVQAAAAAAAAAABFEFAAAAAAAAAEAQVQAAAAAAAAAABFEFAAAAAAAAAEAQVQAAAAAAAAAABFEFAAAAAAAAAEAQVQAAAAAAAAAABFEFAAAAAAAAAEAQVQAAAAAAAAAABFEFAAAAAAAAAEAQVQAAAAAAAAAABFEFAAAAAAAAAEAQVQAAAAAAAAAABFEFAAAAAAAAAEAQVQAAAAAAAAAABFEFAAAAAAAAAEAQVQAAAAAAAAAABFEFAAAAAAAAAEAQVQAAAAAAAAAABFEFAAAAAAAAAEAQVQAAAAAAAAAABFEFAAAAAAAAAEAQVQAAAAAAAAAABFEFAAAAAAAAAEAQVQAAAAAAAAAABFEFAAAAAAAAAEAQVQAAAAAAAAAABFEFAAAAAAAAAEAQVQAAAAAAAAAABFEFAAAAAAAAAEAQVQAAAAAAAAAABFEFAAAAAAAAAEAQVQAAAAAAAAAABFEFAAAAAAAAAEAQVQAAAAAAAAAABFEFAAAAAAAAAEAQVQAAAAAAAAAABFEFAAAAAAAAAEAQVQAAAAAAAAAABFEFAAAAAAAAAEAQVQAAAAAAAAAABFEFAAAAAAAAAEAQVQAAAAAAAAAABFEFAAAAAAAAAEAQVQAAAAAAAAAABFEFAAAAAAAAAEAQVQAAAAAAAAAABFEFAAAAAAAAAEAQVQAAAAAAAAAABFEFAAAAAAAAAEAQVQAAAAAAAAAABFEFAAAAAAAAAEAQVQAAAAAAAAAABFEFAAAAAAAAAEAQVQAAAAAAAAAABFEFAAAAAAAAAEAQVQAAAAAAAAAABFEFAAAAAAAAAEAQVQAAAAAAAAAABFEFAAAAAAAAAEAQVQAAAAAAAAAABFEFAAAAAAAAAEAQVQAAAAAAAAAABFEFAAAAAAAAAEAQVQAAAAAAAAAABFEFAAAAAAAAAEAQVQAAAAAAAAAABFEFAAAAAAAAAEAQVQAAAAAAAAAABFEFAAAAAAAAAEAQVQAAAAAAAAAABFEFAAAAAAAAAEAQVQAAAAAAAAAABFEFAAAAAAAAAEAQVQAAAAAAAAAABFEFAAAAAAAAAEAQVQAAAAAAAAAABFEFAAAAAAAAAEAQVQAAAAAAAAAABFEFAAAAAAAAAEAQVQAAAAAAAAAABFEFAAAAAAAAAEAQVQAAAAAAAAAABFEFAAAAAAAAAEAQVQAAAAAAAAAABFEFAAAAAAAAAEAQVQAAAAAAAAAABFEFAAAAAAAAAEAQVQAAAAAAAAAABFEFAAAAAAAAAEAQVQAAAAAAAAAABFEFAAAAAAAAAEAQVQAAAAAAAAAABFEFAAAAAAAAAEAQVQAAAAAAAAAABFEFAAAAAAAAAEAQVQAAAAAAAAAABFEFAAAAAAAAAEAQVQAAAAAAAAAABFEFAAAAAAAAAEAQVQAAAAAAAAAABFEFAAAAAAAAAEAQVQAAAAAAAAAABFEFAAAAAAAAAEAQVQAAAAAAAAAABFEFAAAAAAAAAEAQVQAAAAAAAAAABFEFAAAAAAAAAEAQVQAAAAAAAAAABFEFAAAAAAAAAEAQVQAAAAAAAAAABFEFAAAAAAAAAEAQVQAAAAAAAAAABFEFAAAAAAAAAEAQVQAAAAAAAAAABFEFAAAAAAAAAEAQVQAAAAAAAAAABFEFAAAAAAAAAEAQVQAAAAAAAAAABFEFAAAAAAAAAEAQVQAAAAAAAAAABFEFAAAAAAAAAEAQVQAAAAAAAAAABFEFAAAAAAAAAEAQVQAAAAAAAAAABFEFAAAAAAAAAEAQVQAAAAAAAAAABFEFAAAAAAAAAEAQVQAAAAAAAAAABFEFAAAAAAAAAEAQVQAAAAAAAAAABFEFAAAAAAAAAEAQVQAAAAAAAAAABFEFAAAAAAAAAEAQVQAAAAAAAAAABFEFAAAAAAAAAEAQVQAAAAAAAAAABFEFAAAAAAAAAEAQVQAAAAAAAAAABFEFAAAAAAAAAEAQVQAAAAAAAAAABFEFAAAAAAAAAEAQVQAAAAAAAAAABFEFAAAAAAAAAEAQVQAAAAAAAAAABFEFAAAAAAAAAEAQVQAAAAAAAAAABFEFAAAAAAAAAEAQVQAAAAAAAAAABFEFAAAAAAAAAEAQVQAAAAAAAAAABFEFAAAAAAAAAEAQVQAAAAAAAAAABFEFAAAAAAAAAEAQVQAAAAAAAAAABFEFAAAAAAAAAEAQVQAAAAAAAAAABFEFAAAAAAAAAEAQVQAAAAAAAAAABFEFAAAAAAAAAEAQVQAAAAAAAAAABFEFAAAAAAAAAEAQVQAAAAAAAAAABFEFAAAAAAAAAEAQVQAAAAAAAAAABFEFAAAAAAAAAEAQVQAAAAAAAAAABFEFAAAAAAAAAEAQVQAAAAAAAAAABFEFAAAAAAAAAEAQVQAAAAAAAAAABFEFAAAAAAAAAEAQVQAAAAAAAAAABFEFAAAAAAAAAEAQVQAAAAAAAAAABFEFAAAAAAAAAEAQVQAAAAAAAAAABFEFAAAAAAAAAEAQVQAAAAAAAAAABFEFAAAAAAAAAEAQVQAAAAAAAAAABFEFAAAAAAAAAEAQVQAAAAAAAAAABFEFAAAAAAAAAEAQVQAAAAAAAAAABFEFAAAAAAAAAEAQVQAAAAAAAAAABFEFAAAAAAAAAEAQVQAAAAAAAAAABFEFAAAAAAAAAEAQVQAAAAAAAAAABFEFAAAAAAAAAEAQVQAAAAAAAAAABFEFAAAAAAAAAEAQVQAAAAAAAAAABFEFAAAAAAAAAEAQVQAAAAAAAAAABFEFAAAAAAAAAEAQVQAAAAAAAAAABFEFAAAAAAAAAEAQVQAAAAAAAAAABFEFAAAAAAAAAEAQVQAAAAAAAAAABFEFAAAAAAAAAEAQVQAAAAAAAAAABFEFAAAAAAAAAEAQVQAAAAAAAAAABFEFAAAAAAAAAEAQVQAAAAAAAAAABFEFAAAAAAAAAEAQVQAAAAAAAAAABFEFAAAAAAAAAEAQVQAAAAAAAAAABFEFAAAAAAAAAEAQVQAAAAAAAAAABFEFAAAAAAAAAEAQVQAAAAAAAAAABFEFAAAAAAAAAEAQVQAAAAAAAAAABFEFAAAAAAAAAEAQVQAAAAAAAAAABFEFAAAAAAAAAEAQVQAAAAAAAAAABFEFAAAAAAAAAEAQVQAAAAAAAAAABFEFAAAAAAAAAEAQVQAAAAAAAAAABFEFAAAAAAAAAEAQVQAAAAAAAAAABFEFAAAAAAAAAEAQVQAAAAAAAAAABFEFAAAAAAAAAEAQVQAAAAAAAAAABFEFAAAAAAAAAEAQVQAAAAAAAAAABFEFAAAAAAAAAEAQVQAAAAAAAAAABFEFAAAAAAAAAEAQVQAAAAAAAAAABFEFAAAAAAAAAEAQVQAAAAAAAAAABFEFAAAAAAAAAEAQVQAAAAAAAAAABFEFAAAAAAAAAEAQVQAAAAAAAAAABFEFAAAAAAAAAEAQVQAAAAAAAAAABFEFAAAAAAAAAEAQVQAAAAAAAAAABFEFAAAAAAAAAEAQVQAAAAAAAAAABFEFAAAAAAAAAEAQVQAAAAAAAAAABFEFAAAAAAAAAEAQVQAAAAAAAAAABFEFAAAAAAAAAEAQVQAAAAAAAAAABFEFAAAAAAAAAEAQVQAAAAAAAAAABFEFAAAAAAAAAEAQVQAAAAAAAAAABFEFAAAAAAAAAEAQVQAAAAAAAAAABFEFAAAAAAAAAEAQVQAAAAAAAAAABFEFAAAAAAAAAEAQVQAAAAAAAAAABFEFAAAAAAAAAEAQVQAAAAAAAAAABFEFAAAAAAAAAEAQVQAAAAAAAAAABFEFAAAAAAAAAEAQVQAAAAAAAAAABFEFAAAAAAAAAEAQVQAAAAAAAAAABFEFAAAAAAAAAEAQVQAAAAAAAAAABFEFAAAAAAAAAEAQVQAAAAAAAAAABFEFAAAAAAAAAEAQVQAAAAAAAAAABFEFAAAAAAAAAEAQVQAAAAAAAAAABFEFAAAAAAAAAEAQVQAAAAAAAAAABFEFAAAAAAAAAEAQVQAAAAAAAAAABFEFAAAAAAAAAEAQVQAAAAAAAAAABFEFAAAAAAAAAEAQVQAAAAAAAAAABFEFAAAAAAAAAEAQVQAAAAAAAAAABFEFAAAAAAAAAEAQVQAAAAAAAAAABFEFAAAAAAAAAEAQVQAAAAAAAAAABFEFAAAAAAAAAEAQVQAAAAAAAAAABFEFAAAAAAAAAEAQVQAAAAAAAAAABFEFAAAAAAAAAEAQVQAAAAAAAAAABFEFAAAAAAAAAEAQVQAAAAAAAAAABFEFAAAAAAAAAEAQVQAAAAAAAAAABFEFAAAAAAAAAEAQVQAAAAAAAAAABFEFAAAAAAAAAEAQVQAAAAAAAAAABFEFAAAAAAAAAEAQVQAAAAAAAAAABFEFAAAAAAAAAEAQVQAAAAAAAAAABFEFAAAAAAAAAEAQVQAAAAAAAAAABFEFAAAAAAAAAEAQVQAAAAAAAAAABFEFAAAAAAAAn9m1AwEAAAAAQf7WC4xQHAEAQ6oAAAAAAAAAABhSBQAAAAAAAADAkCoAAAAAAAAAAIZUAQAAAAAAAAAwpAoAAAAAAAAAgCFVAAAAAAAAAAAMqQIAAAAAAAAAYEgVAAAAAAAAAABDqgAAAAAAAAAAGFIFAAAAAAAAAMCQKgAAAAAAAAAAhlQBAAAAAAAAADCkCgAAAAAAAACAIVUAAAAAAAAAAAypAgAAAAAAAABgSBUAAAAAAAAAAEOqAAAAAAAAAAAYUgUAAAAAAAAAwJAqAAAAAAAAAACGVAEAAAAAAAAAMKQKAAAAAAAAAIAhVQAAAAAAAAAADKkCAAAAAAAAAGBIFQAAAAAAAAAAQ6oAAAAAAAAAABhSBQAAAAAAAADAkCoAAAAAAAAAAIZUAQAAAAAAAAAwpAoAAAAAAAAAgCFVAAAAAAAAAAAMqQIAAAAAAAAAYEgVAAAAAAAAAABDqgAAAAAAAAAAGFIFAAAAAAAAAMCQKgAAAAAAAAAAhlQBAAAAAAAAADCkCgAAAAAAAACAIVUAAAAAAAAAAAypAgAAAAAAAABgSBUAAAAAAAAAAEOqAAAAAAAAAAAYUgUAAAAAAAAAwJAqAAAAAAAAAACGVAEAAAAAAAAAMKQKAAAAAAAAAIAhVQAAAAAAAAAADKkCAAAAAAAAAGBIFQAAAAAAAAAAQ6oAAAAAAAAAABhSBQAAAAAAAADAkCoAAAAAAAAAAIZUAQAAAAAAAAAwpAoAAAAAAAAAgCFVAAAAAAAAAAAMqQIAAAAAAAAAYEgVAAAAAAAAAABDqgAAAAAAAAAAGFIFAAAAAAAAAMCQKgAAAAAAAAAAhlQBAAAAAAAAADCkCgAAAAAAAACAIVUAAAAAAAAAAAypAgAAAAAAAABgSBUAAAAAAAAAAEOqAAAAAAAAAAAYUgUAAAAAAAAAwJAqAAAAAAAAAACGVAEAAAAAAAAAMKQKAAAAAAAAAIAhVQAAAAAAAAAADKkCAAAAAAAAAGBIFQAAAAAAAAAAQ6oAAAAAAAAAABhSBQAAAAAAAADAkCoAAAAAAAAAAIZUAQAAAAAAAAAwpAoAAAAAAAAAgCFVAAAAAAAAAAAMqQIAAAAAAAAAYEgVAAAAAAAAAABDqgAAAAAAAAAAGFIFAAAAAAAAAMCQKgAAAAAAAAAAhlQBAAAAAAAAADCkCgAAAAAAAACAIVUAAAAAAAAAAAypAgAAAAAAAABgSBUAAAAAAAAAAEOqAAAAAAAAAAAYUgUAAAAAAAAAwJAqAAAAAAAAAACGVAEAAAAAAAAAMKQKAAAAAAAAAIAhVQAAAAAAAAAADKkCAAAAAAAAAGBIFQAAAAAAAAAAQ6oAAAAAAAAAABhSBQAAAAAAAADAkCoAAAAAAAAAAIZUAQAAAAAAAAAwpAoAAAAAAAAAgCFVAAAAAAAAAAAMqQIAAAAAAAAAYEgVAAAAAAAAAABDqgAAAAAAAAAAGFIFAAAAAAAAAMCQKgAAAAAAAAAAhlQBAAAAAAAAADCkCgAAAAAAAACAIVUAAAAAAAAAAAypAgAAAAAAAABgSBUAAAAAAAAAAEOqAAAAAAAAAAAYUgUAAAAAAAAAwJAqAAAAAAAAAACGVAEAAAAAAAAAMKQKAAAAAAAAAIAhVQAAAAAAAAAADKkCAAAAAAAAAGBIFQAAAAAAAAAAQ6oAAAAAAAAAABhSBQAAAAAAAADASAAB2rUDAQAAAABB/tYLjFAcSRUAAAAAAAAAAEOqAAAAAAAAAAAYUgUAAAAAAAAAwJAqAAAAAAAAAACGVAEAAAAAAAAAMKQKAAAAAAAAAIAhVQAAAAAAAAAADKkCAAAAAAAAAGBIFQAAAAAAAAAAQ6oAAAAAAAAAABhSBQAAAAAAAADAkCoAAAAAAAAAAIZUAQAAAAAAAAAwpAoAAAAAAAAAgCFVAAAAAAAAAAAMqQIAAAAAAAAAYEgVAAAAAAAAAABDqgAAAAAAAAAAGFIFAAAAAAAAAMCQKgAAAAAAAAAAhlQBAAAAAAAAADCkCgAAAAAAAACAIVUAAAAAAAAAAAypAgAAAAAAAABgSBUAAAAAAAAAAEOqAAAAAAAAAAAYUgUAAAAAAAAAwJAqAAAAAAAAAACGVAEAAAAAAAAAMKQKAAAAAAAAAIAhVQAAAAAAAAAADKkCAAAAAAAAAGBIFQAAAAAAAAAAQ6oAAAAAAAAAABhSBQAAAAAAAADAkCoAAAAAAAAAAIZUAQAAAAAAAAAwpAoAAAAAAAAAgCFVAAAAAAAAAAAMqQIAAAAAAAAAYEgVAAAAAAAAAABDqgAAAAAAAAAAGFIFAAAAAAAAAMCQKgAAAAAAAAAAhlQBAAAAAAAAADCkCgAAAAAAAACAIVUAAAAAAAAAAAypAgAAAAAAAABgSBUAAAAAAAAAAEOqAAAAAAAAAAAYUgUAAAAAAAAAwJAqAAAAAAAAAACGVAEAAAAAAAAAMKQKAAAAAAAAAIAhVQAAAAAAAAAADKkCAAAAAAAAAGBIFQAAAAAAAAAAQ6oAAAAAAAAAABhSBQAAAAAAAADAkCoAAAAAAAAAAIZUAQAAAAAAAAAwpAoAAAAAAAAAgCFVAAAAAAAAAAAMqQIAAAAAAAAAYEgVAAAAAAAAAABDqgAAAAAAAAAAGFIFAAAAAAAAAMCQKgAAAAAAAAAAhlQBAAAAAAAAADCkCgAAAAAAAACAIVUAAAAAAAAAAAypAgAAAAAAAABgSBUAAAAAAAAAAEOqAAAAAAAAAAAYUgUAAAAAAAAAwJAqAAAAAAAAAACGVAEAAAAAAAAAMKQKAAAAAAAAAIAhVQAAAAAAAAAADKkCAAAAAAAAAGBIFQAAAAAAAAAAQ6oAAAAAAAAAABhSBQAAAAAAAADAkCoAAAAAAAAAAIZUAQAAAAAAAAAwpAoAAAAAAAAAgCFVAAAAAAAAAAAMqQIAAAAAAAAAYEgVAAAAAAAAAABDqgAAAAAAAAAAGFIFAAAAAAAAAMCQKgAAAAAAAAAAhlQBAAAAAAAAADCkCgAAAAAAAACAIVUAAAAAAAAAAAypAgAAAAAAAABgSBUAAAAAAAAAAEOqAAAAAAAAAAAYUgUAAAAAAAAAwJAqAAAAAAAAAACGVAEAAAAAAAAAMKQKAAAAAAAAAIAhVQAAAAAAAAAADKkCAAAAAAAAAGBIFQAAAAAAAAAAQ6oAAAAAAAAAABhSBQAAAAAAAADAkCoAAAAAAAAAAIZUAQAAAAAAAAAwpAoAAAAAAAAAgCFVAAAAAAAAAAAMqQIAAAAAAAAAYEgVAAAAAAAAAABDqgAAAAAAAAAAGFIFAAAAAAAAAMCQKgAAAAAAAAAAhlQBAAAAAAAAADCkCgAAAAAAAACAIVUAAAAAAAAAAAypAgAAAAAAAABgSBUAAAAAAAAAAEOqAAAAAAAAAAAYUgUAAAAAAAAAwJAqAAAAAAAAAACGVAEAAAAAAAAAMKQKAAAAAAAAAIAhVQAAAAAAAAAADKkCAAAAAAAAAGBIFQAAAAAAAAAAQ6oAAAAAAAAAABhSBQAAAAAAAADAkCoAAAAAAAAAAIZUAQAAAAAAAAAwpAoAAAAAAAAAgCFVAAAAAAAAAAAMqQIAAAAAAAAAYEgVAAAAAAAAAABDqgAAAAAAAAAAGFIFAAAAAAAAAMCQKgAAAAAAAAAAhlQBAAAAAAAAADCkCgAAAAAAAACAIVUAAAAAAAAAAAypAgAAAAAAAABgSBUAAAAAAAAAAEOqAAAAAAAAAAAYUgUAAAAAAAAAwJAqAAAAAAAAAACGVAEAAAAAAAAAMKQKAAAAAAAAAIAhVQAAAAAAAAAADKkCAAAAAAAAAGBIFQAAAAAAAAAAQ6oAAAAAAAAAABhSBQAAAAAAAADAkCoAAAAAAAAAAIZUAQAAAAAAAAAwpAoAAAAAAAAAgCFVAAAAAAAAAAAMqQIAAAAAAAAAYEgVAAAAAAAAAABDqgAAAAAAAAAAGFIFAAAAAAAAAMCQKgAAAAAAAAAAhlQBAAAAAAAAADCkCgAAAAAAAACAIVUAAAAAAAAAAIwAp9Z38W7EkCYAAAAASUVORK5CYII=;" vertex="1" parent="1">
          <mxGeometry x="680" y="1840" width="50" height="50" as="geometry" />
        </mxCell>
      </root>
    </mxGraphModel>
  </diagram>
</mxfile>
